NotoSansArabic-Regular.ufo
<glyph name="exclam" format="2">
  <advance width="263"/>
  <unicode hex="0021"/>
  <outline>
    <contour>
      <point x="93" y="204" type="line"/>
      <point x="171" y="204" type="line"/>
      <point x="181" y="714" type="line"/>
      <point x="82" y="714" type="line"/>
    </contour>
    <contour>
      <point x="130" y="-10" type="curve" smooth="yes"/>
      <point x="166" y="-10"/>
      <point x="186" y="10"/>
      <point x="186" y="46" type="curve" smooth="yes"/>
      <point x="186" y="82"/>
      <point x="166" y="101"/>
      <point x="130" y="101" type="curve" smooth="yes"/>
      <point x="96" y="101"/>
      <point x="75" y="82"/>
      <point x="75" y="46" type="curve" smooth="yes"/>
      <point x="75" y="10"/>
      <point x="96" y="-10"/>
    </contour>
  </outline>
</glyph>
<glyph name="parenleft" format="2">
  <advance width="394"/>
  <unicode hex="0028"/>
  <outline>
    <contour>
      <point x="241" y="-172" type="curve"/>
      <point x="319" y="-172" type="line"/>
      <point x="229" y="-25"/>
      <point x="184" y="135"/>
      <point x="184" y="309" type="curve" smooth="yes"/>
      <point x="184" y="470"/>
      <point x="225" y="640"/>
      <point x="319" y="785" type="curve"/>
      <point x="241" y="785" type="line"/>
      <point x="152" y="648"/>
      <point x="107" y="484"/>
      <point x="107" y="317" type="curve" smooth="yes"/>
      <point x="107" y="128"/>
      <point x="148" y="-29"/>
    </contour>
  </outline>
</glyph>
<glyph name="comma" format="2">
  <advance width="248"/>
  <unicode hex="002C"/>
  <outline>
    <contour>
      <point x="52" y="-133" type="curve"/>
      <point x="118" y="-133" type="line"/>
      <point x="148" y="-62"/>
      <point x="175" y="43"/>
      <point x="191" y="116" type="curve"/>
      <point x="187" y="128" type="line"/>
      <point x="105" y="128" type="line"/>
      <point x="94" y="50"/>
      <point x="77" y="-38"/>
    </contour>
  </outline>
</glyph>
<glyph name="hyphen" format="2">
  <advance width="320"/>
  <unicode hex="002D"/>
  <outline>
    <contour>
      <point x="33" y="233" type="line"/>
      <point x="288" y="233" type="line"/>
      <point x="288" y="307" type="line"/>
      <point x="33" y="307" type="line"/>
    </contour>
  </outline>
</glyph>
<glyph name="period" format="2">
  <advance width="247"/>
  <unicode hex="002E"/>
  <outline>
    <contour>
      <point x="124" y="-10" type="curve" smooth="yes"/>
      <point x="160" y="-10"/>
      <point x="181" y="10"/>
      <point x="181" y="46" type="curve" smooth="yes"/>
      <point x="181" y="82"/>
      <point x="160" y="101"/>
      <point x="124" y="101" type="curve" smooth="yes"/>
      <point x="90" y="101"/>
      <point x="66" y="82"/>
      <point x="66" y="46" type="curve" smooth="yes"/>
      <point x="66" y="10"/>
      <point x="90" y="-10"/>
    </contour>
  </outline>
</glyph>
<glyph name="colon" format="2">
  <advance width="249"/>
  <unicode hex="003A"/>
  <outline>
    <contour>
      <point x="125" y="432" type="curve" smooth="yes"/>
      <point x="162" y="432"/>
      <point x="183" y="451"/>
      <point x="183" y="488" type="curve" smooth="yes"/>
      <point x="183" y="524"/>
      <point x="162" y="543"/>
      <point x="125" y="543" type="curve" smooth="yes"/>
      <point x="88" y="543"/>
      <point x="66" y="524"/>
      <point x="66" y="488" type="curve" smooth="yes"/>
      <point x="66" y="451"/>
      <point x="88" y="432"/>
    </contour>
    <contour>
      <point x="125" y="-10" type="curve" smooth="yes"/>
      <point x="162" y="-10"/>
      <point x="183" y="10"/>
      <point x="183" y="46" type="curve" smooth="yes"/>
      <point x="183" y="82"/>
      <point x="162" y="101"/>
      <point x="125" y="101" type="curve" smooth="yes"/>
      <point x="88" y="101"/>
      <point x="66" y="82"/>
      <point x="66" y="46" type="curve" smooth="yes"/>
      <point x="66" y="10"/>
      <point x="88" y="-10"/>
    </contour>
  </outline>
</glyph>
<glyph name="guillemotleft" format="2">
  <advance width="500"/>
  <unicode hex="00AB"/>
  <outline>
    <contour>
      <point x="405" y="68" type="line"/>
      <point x="471" y="104" type="line"/>
      <point x="334" y="280" type="line"/>
      <point x="471" y="454" type="line"/>
      <point x="405" y="492" type="line"/>
      <point x="241" y="286" type="line"/>
      <point x="241" y="273" type="line"/>
    </contour>
    <contour>
      <point x="193" y="68" type="line"/>
      <point x="258" y="104" type="line"/>
      <point x="122" y="280" type="line"/>
      <point x="258" y="454" type="line"/>
      <point x="193" y="492" type="line"/>
      <point x="28" y="286" type="line"/>
      <point x="28" y="273" type="line"/>
    </contour>
  </outline>
</glyph>
<glyph name="guillemotright" format="2">
  <advance width="499"/>
  <unicode hex="00BB"/>
  <outline>
    <contour>
      <point x="307" y="68" type="line"/>
      <point x="471" y="274" type="line"/>
      <point x="471" y="287" type="line"/>
      <point x="307" y="492" type="line"/>
      <point x="241" y="454" type="line"/>
      <point x="378" y="280" type="line"/>
      <point x="241" y="105" type="line"/>
    </contour>
    <contour>
      <point x="95" y="68" type="line"/>
      <point x="259" y="274" type="line"/>
      <point x="259" y="287" type="line"/>
      <point x="95" y="492" type="line"/>
      <point x="29" y="454" type="line"/>
      <point x="165" y="280" type="line"/>
      <point x="29" y="105" type="line"/>
    </contour>
  </outline>
</glyph>
<glyph name="pagenumber-ar" format="2">
  <advance width="1341"/>
  <unicode hex="0603"/>
  <outline>
    <contour>
      <point x="40" y="-244" type="line"/>
      <point x="692" y="-244" type="line" smooth="yes"/>
      <point x="762" y="-244"/>
      <point x="815" y="-227"/>
      <point x="835" y="-164" type="curve"/>
      <point x="816" y="-163" type="line"/>
      <point x="832" y="-226"/>
      <point x="884" y="-246"/>
      <point x="1029" y="-246" type="curve" smooth="yes"/>
      <point x="1213" y="-246"/>
      <point x="1309" y="-193"/>
      <point x="1309" y="-78" type="curve" smooth="yes"/>
      <point x="1309" y="18"/>
      <point x="1247" y="80"/>
      <point x="1161" y="80" type="curve" smooth="yes"/>
      <point x="1053" y="80"/>
      <point x="963" y="-17"/>
      <point x="876" y="-164" type="curve"/>
      <point x="936" y="-181" type="line"/>
      <point x="1007" y="-69"/>
      <point x="1073" y="3"/>
      <point x="1145" y="3" type="curve" smooth="yes"/>
      <point x="1199" y="3"/>
      <point x="1234" y="-34"/>
      <point x="1234" y="-82" type="curve" smooth="yes"/>
      <point x="1234" y="-141"/>
      <point x="1170" y="-167"/>
      <point x="1029" y="-167" type="curve" smooth="yes"/>
      <point x="886" y="-167"/>
      <point x="870" y="-157"/>
      <point x="861" y="-121" type="curve" smooth="yes"/>
      <point x="856" y="-101"/>
      <point x="856" y="-83"/>
      <point x="855" y="-50" type="curve"/>
      <point x="802" y="-51" type="line"/>
      <point x="801" y="-85"/>
      <point x="800" y="-103"/>
      <point x="796" y="-121" type="curve" smooth="yes"/>
      <point x="789" y="-152"/>
      <point x="769" y="-163"/>
      <point x="718" y="-163" type="curve" smooth="yes"/>
      <point x="32" y="-163" type="line"/>
    </contour>
  </outline>
</glyph>
<glyph name="samvat-ar" format="2">
  <advance width="1996"/>
  <unicode hex="0604"/>
  <outline>
    <contour>
      <point x="1181" y="-55" type="curve"/>
      <point x="1219" y="20" type="line"/>
      <point x="1120" y="68"/>
      <point x="1066" y="123"/>
      <point x="1066" y="206" type="curve" smooth="yes"/>
      <point x="1066" y="278"/>
      <point x="1110" y="326"/>
      <point x="1171" y="326" type="curve" smooth="yes"/>
      <point x="1224" y="326"/>
      <point x="1252" y="299"/>
      <point x="1291" y="222" type="curve" smooth="yes"/>
      <point x="1340" y="125"/>
      <point x="1385" y="92"/>
      <point x="1468" y="92" type="curve" smooth="yes"/>
      <point x="1542" y="92"/>
      <point x="1612" y="122"/>
      <point x="1632" y="219" type="curve"/>
      <point x="1612" y="218" type="line"/>
      <point x="1623" y="131"/>
      <point x="1672" y="92"/>
      <point x="1767" y="92" type="curve" smooth="yes"/>
      <point x="1877" y="92"/>
      <point x="1938" y="157"/>
      <point x="1938" y="276" type="curve" smooth="yes"/>
      <point x="1938" y="347"/>
      <point x="1922" y="419"/>
      <point x="1892" y="505" type="curve"/>
      <point x="1821" y="482" type="line"/>
      <point x="1846" y="400"/>
      <point x="1860" y="341"/>
      <point x="1860" y="278" type="curve" smooth="yes"/>
      <point x="1860" y="211"/>
      <point x="1827" y="178"/>
      <point x="1762" y="178" type="curve" smooth="yes"/>
      <point x="1689" y="178"/>
      <point x="1664" y="201"/>
      <point x="1657" y="259" type="curve" smooth="yes"/>
      <point x="1654" y="295"/>
      <point x="1654" y="354"/>
      <point x="1652" y="424" type="curve"/>
      <point x="1581" y="418" type="line"/>
      <point x="1582" y="353"/>
      <point x="1581" y="302"/>
      <point x="1574" y="265" type="curve" smooth="yes"/>
      <point x="1562" y="201"/>
      <point x="1528" y="178"/>
      <point x="1473" y="178" type="curve" smooth="yes"/>
      <point x="1409" y="178"/>
      <point x="1386" y="204"/>
      <point x="1346" y="280" type="curve" smooth="yes"/>
      <point x="1299" y="366"/>
      <point x="1258" y="410"/>
      <point x="1167" y="410" type="curve" smooth="yes"/>
      <point x="1065" y="410"/>
      <point x="984" y="330"/>
      <point x="984" y="214" type="curve" smooth="yes"/>
      <point x="984" y="137"/>
      <point x="1012" y="85"/>
      <point x="1069" y="39" type="curve"/>
      <point x="1085" y="87" type="line"/>
      <point x="969" y="105"/>
      <point x="811" y="113"/>
      <point x="602" y="113" type="curve" smooth="yes"/>
      <point x="420" y="113"/>
      <point x="201" y="102"/>
      <point x="30" y="81" type="curve"/>
      <point x="35" y="-1" type="line"/>
      <point x="203" y="16"/>
      <point x="415" y="27"/>
      <point x="591" y="27" type="curve" smooth="yes"/>
      <point x="799" y="27"/>
      <point x="941" y="26"/>
      <point x="1051" y="11" type="curve"/>
      <point x="1097" y="-13"/>
      <point x="1133" y="-34"/>
    </contour>
  </outline>
</glyph>
<glyph name="numbermark-ar" format="2">
  <advance width="1249"/>
  <unicode hex="0605"/>
  <outline>
    <contour>
      <point x="101" y="547" type="line"/>
      <point x="143" y="622"/>
      <point x="168" y="655"/>
      <point x="221" y="655" type="curve" smooth="yes"/>
      <point x="288" y="655"/>
      <point x="421" y="575"/>
      <point x="707" y="575" type="curve" smooth="yes"/>
      <point x="896" y="575"/>
      <point x="1076" y="599"/>
      <point x="1203" y="645" type="curve"/>
      <point x="1186" y="719" type="line"/>
      <point x="1067" y="680"/>
      <point x="903" y="656"/>
      <point x="722" y="656" type="curve" smooth="yes"/>
      <point x="447" y="656"/>
      <point x="300" y="737"/>
      <point x="222" y="737" type="curve" smooth="yes"/>
      <point x="139" y="737"/>
      <point x="92" y="673"/>
      <point x="44" y="575" type="curve"/>
    </contour>
  </outline>
</glyph>
<glyph name="ray-ar" format="2">
  <advance width="963"/>
  <unicode hex="0608"/>
  <outline>
    <contour>
      <point x="499" y="-262" type="curve" smooth="yes"/>
      <point x="766" y="-262"/>
      <point x="880" y="-159"/>
      <point x="880" y="61" type="curve" smooth="yes"/>
      <point x="880" y="257"/>
      <point x="811" y="383"/>
      <point x="680" y="383" type="curve" smooth="yes"/>
      <point x="569" y="383"/>
      <point x="493" y="282"/>
      <point x="493" y="156" type="curve" smooth="yes"/>
      <point x="493" y="48"/>
      <point x="556" y="-7"/>
      <point x="700" y="-7" type="curve" smooth="yes"/>
      <point x="962" y="-7" type="line" smooth="yes"/>
      <point x="993" y="-7"/>
      <point x="1010" y="13"/>
      <point x="1010" y="36" type="curve" smooth="yes"/>
      <point x="1010" y="58"/>
      <point x="998" y="79"/>
      <point x="968" y="79" type="curve" smooth="yes"/>
      <point x="847" y="79" type="line"/>
      <point x="796" y="77"/>
      <point x="747" y="72"/>
      <point x="694" y="72" type="curve" smooth="yes"/>
      <point x="607" y="72"/>
      <point x="563" y="98"/>
      <point x="563" y="168" type="curve" smooth="yes"/>
      <point x="563" y="242"/>
      <point x="609" y="304"/>
      <point x="677" y="304" type="curve" smooth="yes"/>
      <point x="763" y="304"/>
      <point x="812" y="220"/>
      <point x="812" y="61" type="curve" smooth="yes"/>
      <point x="812" y="-105"/>
      <point x="742" y="-176"/>
      <point x="512" y="-176" type="curve" smooth="yes"/>
      <point x="328" y="-176"/>
      <point x="254" y="-100"/>
      <point x="254" y="24" type="curve" smooth="yes"/>
      <point x="254" y="76"/>
      <point x="263" y="123"/>
      <point x="285" y="188" type="curve"/>
      <point x="233" y="212" type="line"/>
      <point x="15" y="144" type="line"/>
      <point x="29" y="71" type="line"/>
      <point x="218" y="131" type="line"/>
      <point x="205" y="150" type="line"/>
      <point x="184" y="92"/>
      <point x="177" y="46"/>
      <point x="177" y="3" type="curve" smooth="yes"/>
      <point x="177" y="-155"/>
      <point x="275" y="-262"/>
    </contour>
  </outline>
</glyph>
<glyph name="perthousand-ar" format="2">
  <advance width="720"/>
  <unicode hex="0609"/>
  <outline>
    <contour>
      <point x="623" y="-15" type="curve"/>
      <point x="687" y="49" type="line"/>
      <point x="668" y="74"/>
      <point x="641" y="101"/>
      <point x="613" y="123" type="curve"/>
      <point x="550" y="55" type="line"/>
      <point x="579" y="31"/>
      <point x="594" y="14"/>
    </contour>
    <component base="percent-ar"/>
  </outline>
</glyph>
<glyph name="pertenthousand-ar" format="2">
  <advance width="911"/>
  <unicode hex="060A"/>
  <outline>
    <contour>
      <point x="617" y="-15" type="curve"/>
      <point x="682" y="49" type="line"/>
      <point x="662" y="74"/>
      <point x="636" y="101"/>
      <point x="607" y="123" type="curve"/>
      <point x="544" y="55" type="line"/>
      <point x="573" y="31"/>
      <point x="589" y="14"/>
    </contour>
    <contour>
      <point x="814" y="-15" type="curve"/>
      <point x="878" y="49" type="line"/>
      <point x="859" y="74"/>
      <point x="832" y="101"/>
      <point x="804" y="123" type="curve"/>
      <point x="741" y="55" type="line"/>
      <point x="770" y="31"/>
      <point x="785" y="14"/>
    </contour>
    <component base="percent-ar"/>
  </outline>
</glyph>
<glyph name="comma-ar" format="2">
  <advance width="268"/>
  <unicode hex="060C"/>
  <outline>
    <contour>
      <point x="143" y="-4" type="curve" smooth="yes"/>
      <point x="177" y="-4"/>
      <point x="198" y="16"/>
      <point x="198" y="44" type="curve" smooth="yes"/>
      <point x="198" y="68"/>
      <point x="179" y="86"/>
      <point x="149" y="93" type="curve"/>
      <point x="153" y="136"/>
      <point x="174" y="180"/>
      <point x="209" y="228" type="curve"/>
      <point x="165" y="254" type="line"/>
      <point x="118" y="200"/>
      <point x="82" y="137"/>
      <point x="82" y="72" type="curve" smooth="yes"/>
      <point x="82" y="24"/>
      <point x="108" y="-4"/>
    </contour>
  </outline>
</glyph>
<glyph name="dateseparator-ar" format="2">
  <advance width="357"/>
  <unicode hex="060D"/>
  <outline>
    <contour>
      <point x="99" y="-171" type="line"/>
      <point x="156" y="-54"/>
      <point x="229" y="61"/>
      <point x="300" y="143" type="curve"/>
      <point x="237" y="197" type="line"/>
      <point x="167" y="118"/>
      <point x="87" y="-13"/>
      <point x="32" y="-137" type="curve"/>
    </contour>
  </outline>
</glyph>
<glyph name="verseComma-ar" format="2">
  <advance width="1028"/>
  <unicode hex="060E"/>
  <outline>
    <contour>
      <point x="442" y="-11" type="curve" smooth="yes"/>
      <point x="668" y="-11"/>
      <point x="870" y="7"/>
      <point x="995" y="27" type="curve"/>
      <point x="996" y="106" type="line"/>
      <point x="871" y="87"/>
      <point x="662" y="69"/>
      <point x="441" y="69" type="curve" smooth="yes"/>
      <point x="220" y="69"/>
      <point x="134" y="109"/>
      <point x="134" y="199" type="curve" smooth="yes"/>
      <point x="134" y="292"/>
      <point x="211" y="356"/>
      <point x="291" y="356" type="curve" smooth="yes"/>
      <point x="361" y="356"/>
      <point x="389" y="309"/>
      <point x="389" y="218" type="curve" smooth="yes"/>
      <point x="389" y="164"/>
      <point x="383" y="114"/>
      <point x="364" y="53" type="curve"/>
      <point x="431" y="32" type="line"/>
      <point x="453" y="99"/>
      <point x="463" y="164"/>
      <point x="463" y="228" type="curve" smooth="yes"/>
      <point x="463" y="353"/>
      <point x="415" y="438"/>
      <point x="298" y="438" type="curve" smooth="yes"/>
      <point x="172" y="438"/>
      <point x="54" y="338"/>
      <point x="54" y="192" type="curve" smooth="yes"/>
      <point x="54" y="61"/>
      <point x="162" y="-11"/>
    </contour>
  </outline>
</glyph>
<glyph name="misraComma-ar" format="2">
  <advance width="581"/>
  <unicode hex="060F"/>
  <outline>
    <contour>
      <point x="77" y="-408" type="line"/>
      <point x="173" y="-203"/>
      <point x="292" y="-90"/>
      <point x="418" y="-90" type="curve" smooth="yes"/>
      <point x="494" y="-90"/>
      <point x="535" y="-126"/>
      <point x="535" y="-187" type="curve" smooth="yes"/>
      <point x="535" y="-266"/>
      <point x="453" y="-310"/>
      <point x="336" y="-310" type="curve" smooth="yes"/>
      <point x="196" y="-310"/>
      <point x="105" y="-258"/>
      <point x="105" y="-136" type="curve" smooth="yes"/>
      <point x="105" y="-51"/>
      <point x="167" y="23"/>
      <point x="276" y="75" type="curve" smooth="yes"/>
      <point x="332" y="102"/>
      <point x="429" y="124"/>
      <point x="515" y="143" type="curve"/>
      <point x="508" y="223" type="line"/>
      <point x="435" y="207"/>
      <point x="361" y="188"/>
      <point x="312" y="188" type="curve" smooth="yes"/>
      <point x="227" y="188"/>
      <point x="154" y="229"/>
      <point x="154" y="319" type="curve" smooth="yes"/>
      <point x="154" y="407"/>
      <point x="222" y="458"/>
      <point x="322" y="458" type="curve" smooth="yes"/>
      <point x="371" y="458"/>
      <point x="411" y="448"/>
      <point x="450" y="437" type="curve"/>
      <point x="457" y="515" type="line"/>
      <point x="420" y="533"/>
      <point x="373" y="544"/>
      <point x="316" y="544" type="curve" smooth="yes"/>
      <point x="169" y="544"/>
      <point x="75" y="451"/>
      <point x="75" y="320" type="curve" smooth="yes"/>
      <point x="75" y="198"/>
      <point x="170" y="126"/>
      <point x="263" y="113" type="curve"/>
      <point x="271" y="150" type="line"/>
      <point x="140" y="97"/>
      <point x="26" y="-1"/>
      <point x="26" y="-147" type="curve" smooth="yes"/>
      <point x="26" y="-308"/>
      <point x="152" y="-388"/>
      <point x="332" y="-388" type="curve" smooth="yes"/>
      <point x="492" y="-388"/>
      <point x="614" y="-314"/>
      <point x="614" y="-181" type="curve" smooth="yes"/>
      <point x="614" y="-73"/>
      <point x="543" y="-14"/>
      <point x="427" y="-14" type="curve" smooth="yes"/>
      <point x="270" y="-14"/>
      <point x="126" y="-137"/>
      <point x="11" y="-375" type="curve"/>
    </contour>
  </outline>
</glyph>
<glyph name="sadabove-ar" format="2">
  <unicode hex="0610"/>
  <anchor x="158" y="432" name="_top"/>
  <anchor x="165" y="736" name="top"/>
  <outline>
    <contour>
      <point x="36" y="469" type="curve"/>
      <point x="68" y="464" type="line"/>
      <point x="76" y="502"/>
      <point x="80" y="547"/>
      <point x="80" y="584" type="curve"/>
      <point x="69" y="585" type="line"/>
      <point x="76" y="562"/>
      <point x="105" y="548"/>
      <point x="172" y="548" type="curve" smooth="yes"/>
      <point x="258" y="548"/>
      <point x="305" y="573"/>
      <point x="305" y="632" type="curve" smooth="yes"/>
      <point x="305" y="678"/>
      <point x="276" y="707"/>
      <point x="231" y="707" type="curve" smooth="yes"/>
      <point x="169" y="707"/>
      <point x="122" y="641"/>
      <point x="90" y="587" type="curve"/>
      <point x="120" y="573" type="line"/>
      <point x="146" y="620"/>
      <point x="184" y="671"/>
      <point x="225" y="671" type="curve" smooth="yes"/>
      <point x="254" y="671"/>
      <point x="270" y="651"/>
      <point x="270" y="629" type="curve" smooth="yes"/>
      <point x="270" y="597"/>
      <point x="245" y="583"/>
      <point x="170" y="583" type="curve" smooth="yes"/>
      <point x="104" y="583"/>
      <point x="88" y="591"/>
      <point x="79" y="615" type="curve" smooth="yes"/>
      <point x="75" y="627"/>
      <point x="71" y="647"/>
      <point x="65" y="672" type="curve"/>
      <point x="33" y="665" type="line"/>
      <point x="40" y="633"/>
      <point x="46" y="601"/>
      <point x="46" y="568" type="curve" smooth="yes"/>
      <point x="46" y="545"/>
      <point x="45" y="506"/>
    </contour>
  </outline>
</glyph>
<glyph name="ainabove-ar" format="2">
  <unicode hex="0611"/>
  <anchor x="148" y="432" name="_top"/>
  <anchor x="155" y="736" name="top"/>
  <outline>
    <contour>
      <point x="36" y="469" type="curve"/>
      <point x="68" y="464" type="line"/>
      <point x="76" y="502"/>
      <point x="80" y="547"/>
      <point x="80" y="584" type="curve"/>
      <point x="69" y="585" type="line"/>
      <point x="76" y="562"/>
      <point x="109" y="548"/>
      <point x="169" y="548" type="curve" smooth="yes"/>
      <point x="208" y="548"/>
      <point x="241" y="554"/>
      <point x="276" y="569" type="curve"/>
      <point x="270" y="601" type="line"/>
      <point x="247" y="594"/>
      <point x="228" y="588"/>
      <point x="208" y="588" type="curve" smooth="yes"/>
      <point x="180" y="588"/>
      <point x="164" y="607"/>
      <point x="164" y="632" type="curve" smooth="yes"/>
      <point x="164" y="659"/>
      <point x="183" y="676"/>
      <point x="213" y="676" type="curve" smooth="yes"/>
      <point x="226" y="676"/>
      <point x="235" y="673"/>
      <point x="248" y="670" type="curve"/>
      <point x="253" y="701" type="line"/>
      <point x="240" y="706"/>
      <point x="224" y="710"/>
      <point x="207" y="710" type="curve" smooth="yes"/>
      <point x="162" y="710"/>
      <point x="129" y="682"/>
      <point x="129" y="635" type="curve" smooth="yes"/>
      <point x="129" y="602"/>
      <point x="145" y="579"/>
      <point x="168" y="572" type="curve"/>
      <point x="172" y="583" type="line"/>
      <point x="109" y="583"/>
      <point x="88" y="591"/>
      <point x="78" y="618" type="curve" smooth="yes"/>
      <point x="75" y="629"/>
      <point x="71" y="647"/>
      <point x="65" y="672" type="curve"/>
      <point x="33" y="665" type="line"/>
      <point x="40" y="633"/>
      <point x="46" y="603"/>
      <point x="46" y="568" type="curve" smooth="yes"/>
      <point x="46" y="545"/>
      <point x="45" y="506"/>
    </contour>
  </outline>
</glyph>
<glyph name="rehHahabove-ar" format="2">
  <unicode hex="0612"/>
  <anchor x="157" y="432" name="_top"/>
  <anchor x="159" y="730" name="top"/>
  <outline>
    <contour>
      <point x="24" y="486" type="curve"/>
      <point x="59" y="486" type="line"/>
      <point x="59" y="577"/>
      <point x="125" y="625"/>
      <point x="209" y="631" type="curve"/>
      <point x="212" y="664" type="line"/>
      <point x="155" y="666"/>
      <point x="115" y="698"/>
      <point x="65" y="698" type="curve" smooth="yes"/>
      <point x="47" y="698"/>
      <point x="33" y="695"/>
      <point x="20" y="689" type="curve"/>
      <point x="19" y="658" type="line"/>
      <point x="32" y="662"/>
      <point x="43" y="664"/>
      <point x="60" y="664" type="curve" smooth="yes"/>
      <point x="96" y="664"/>
      <point x="127" y="649"/>
      <point x="171" y="636" type="curve"/>
      <point x="172" y="654" type="line"/>
      <point x="72" y="632"/>
      <point x="24" y="569"/>
    </contour>
    <contour>
      <point x="201" y="490" type="curve" smooth="yes"/>
      <point x="271" y="490"/>
      <point x="311" y="527"/>
      <point x="311" y="593" type="curve" smooth="yes"/>
      <point x="311" y="625"/>
      <point x="303" y="655"/>
      <point x="290" y="684" type="curve"/>
      <point x="255" y="673" type="line"/>
      <point x="267" y="645"/>
      <point x="275" y="620"/>
      <point x="275" y="593" type="curve" smooth="yes"/>
      <point x="275" y="545"/>
      <point x="247" y="525"/>
      <point x="197" y="525" type="curve" smooth="yes"/>
      <point x="184" y="525"/>
      <point x="175" y="526"/>
      <point x="162" y="528" type="curve"/>
      <point x="160" y="496" type="line"/>
      <point x="171" y="492"/>
      <point x="186" y="490"/>
    </contour>
  </outline>
</glyph>
<glyph name="rehDadabove-ar" format="2">
  <unicode hex="0613"/>
  <anchor x="208" y="432" name="_top"/>
  <anchor x="210" y="736" name="top"/>
  <outline>
    <contour>
      <point x="304" y="490" type="curve" smooth="yes"/>
      <point x="374" y="490"/>
      <point x="414" y="527"/>
      <point x="414" y="593" type="curve" smooth="yes"/>
      <point x="414" y="625"/>
      <point x="406" y="655"/>
      <point x="393" y="684" type="curve"/>
      <point x="358" y="673" type="line"/>
      <point x="370" y="645"/>
      <point x="378" y="620"/>
      <point x="378" y="593" type="curve" smooth="yes"/>
      <point x="378" y="545"/>
      <point x="350" y="525"/>
      <point x="300" y="525" type="curve" smooth="yes"/>
      <point x="287" y="525"/>
      <point x="278" y="526"/>
      <point x="265" y="528" type="curve"/>
      <point x="263" y="496" type="line"/>
      <point x="274" y="492"/>
      <point x="289" y="490"/>
    </contour>
    <contour>
      <point x="102" y="703" type="curve" smooth="yes"/>
      <point x="115" y="703"/>
      <point x="125" y="714"/>
      <point x="125" y="726" type="curve" smooth="yes"/>
      <point x="125" y="740"/>
      <point x="115" y="750"/>
      <point x="102" y="750" type="curve" smooth="yes"/>
      <point x="89" y="750"/>
      <point x="79" y="740"/>
      <point x="79" y="726" type="curve" smooth="yes"/>
      <point x="79" y="714"/>
      <point x="89" y="703"/>
    </contour>
    <component base="sadabove-ar" xOffset="-6"/>
  </outline>
</glyph>
<glyph name="takhallusabove-ar" format="2">
  <unicode hex="0614"/>
  <anchor x="223" y="432" name="_top"/>
  <anchor x="222" y="678" name="top"/>
  <outline>
    <contour>
      <point x="196" y="496" type="curve" smooth="yes"/>
      <point x="238" y="496"/>
      <point x="271" y="507"/>
      <point x="279" y="544" type="curve"/>
      <point x="269" y="545" type="line"/>
      <point x="272" y="509"/>
      <point x="296" y="496"/>
      <point x="331" y="496" type="curve" smooth="yes"/>
      <point x="377" y="496"/>
      <point x="399" y="522"/>
      <point x="399" y="568" type="curve" smooth="yes"/>
      <point x="399" y="594"/>
      <point x="393" y="624"/>
      <point x="382" y="657" type="curve"/>
      <point x="350" y="648" type="line"/>
      <point x="359" y="616"/>
      <point x="364" y="593"/>
      <point x="364" y="569" type="curve" smooth="yes"/>
      <point x="364" y="544"/>
      <point x="353" y="533"/>
      <point x="329" y="533" type="curve" smooth="yes"/>
      <point x="304" y="533"/>
      <point x="291" y="541"/>
      <point x="290" y="563" type="curve" smooth="yes"/>
      <point x="289" y="577"/>
      <point x="289" y="598"/>
      <point x="288" y="625" type="curve"/>
      <point x="257" y="623" type="line"/>
      <point x="257" y="595"/>
      <point x="257" y="579"/>
      <point x="254" y="564" type="curve" smooth="yes"/>
      <point x="251" y="542"/>
      <point x="232" y="533"/>
      <point x="196" y="533" type="curve" smooth="yes"/>
      <point x="154" y="533"/>
      <point x="101" y="538"/>
      <point x="35" y="551" type="curve"/>
      <point x="30" y="515" type="line"/>
      <point x="98" y="500"/>
      <point x="153" y="496"/>
    </contour>
  </outline>
</glyph>
<glyph name="alefLamYehabove-ar" format="2">
  <unicode hex="0616"/>
  <anchor x="192" y="432" name="_top"/>
  <anchor x="199" y="805" name="top"/>
  <outline>
    <contour>
      <point x="185" y="485" type="curve" smooth="yes"/>
      <point x="238" y="485"/>
      <point x="306" y="493"/>
      <point x="345" y="502" type="curve"/>
      <point x="345" y="536" type="line"/>
      <point x="305" y="528"/>
      <point x="245" y="520"/>
      <point x="189" y="520" type="curve" smooth="yes"/>
      <point x="100" y="520"/>
      <point x="70" y="529"/>
      <point x="70" y="551" type="curve" smooth="yes"/>
      <point x="70" y="568"/>
      <point x="84" y="573"/>
      <point x="137" y="588" type="curve" smooth="yes"/>
      <point x="199" y="605"/>
      <point x="221" y="623"/>
      <point x="217" y="682" type="curve" smooth="yes"/>
      <point x="212" y="779" type="line"/>
      <point x="176" y="779" type="line"/>
      <point x="181" y="680" type="line" smooth="yes"/>
      <point x="182" y="645"/>
      <point x="172" y="635"/>
      <point x="136" y="624" type="curve" smooth="yes"/>
      <point x="67" y="603"/>
      <point x="30" y="590"/>
      <point x="30" y="547" type="curve" smooth="yes"/>
      <point x="30" y="498"/>
      <point x="91" y="485"/>
    </contour>
    <contour>
      <point x="289" y="584" type="line"/>
      <point x="325" y="585" type="line"/>
      <point x="315" y="779" type="line"/>
      <point x="279" y="779" type="line"/>
    </contour>
  </outline>
</glyph>
<glyph name="zainabove-ar" format="2">
  <unicode hex="0617"/>
  <anchor x="88" y="432" name="_top"/>
  <anchor x="84" y="760" name="top"/>
  <outline>
    <contour>
      <point x="58" y="490" type="curve" smooth="yes"/>
      <point x="129" y="490"/>
      <point x="169" y="527"/>
      <point x="169" y="593" type="curve" smooth="yes"/>
      <point x="169" y="625"/>
      <point x="161" y="655"/>
      <point x="147" y="684" type="curve"/>
      <point x="113" y="673" type="line"/>
      <point x="125" y="645"/>
      <point x="133" y="620"/>
      <point x="133" y="593" type="curve" smooth="yes"/>
      <point x="133" y="545"/>
      <point x="105" y="525"/>
      <point x="55" y="525" type="curve" smooth="yes"/>
      <point x="41" y="525"/>
      <point x="33" y="526"/>
      <point x="20" y="528" type="curve"/>
      <point x="18" y="496" type="line"/>
      <point x="29" y="492"/>
      <point x="44" y="490"/>
    </contour>
    <contour>
      <point x="121" y="708" type="curve" smooth="yes"/>
      <point x="134" y="708"/>
      <point x="145" y="719"/>
      <point x="145" y="731" type="curve" smooth="yes"/>
      <point x="145" y="744"/>
      <point x="134" y="755"/>
      <point x="121" y="755" type="curve" smooth="yes"/>
      <point x="109" y="755"/>
      <point x="98" y="744"/>
      <point x="98" y="731" type="curve" smooth="yes"/>
      <point x="98" y="719"/>
      <point x="109" y="708"/>
    </contour>
  </outline>
</glyph>
<glyph name="fathasmall-ar" format="2">
  <unicode hex="0618"/>
  <anchor x="124" y="464" name="_top"/>
  <anchor x="126" y="590" name="top"/>
  <outline>
    <contour>
      <point x="37" y="487" type="line"/>
      <point x="218" y="526" type="line"/>
      <point x="211" y="567" type="line"/>
      <point x="30" y="526" type="line"/>
    </contour>
  </outline>
</glyph>
<glyph name="dammasmall-ar" format="2">
  <unicode hex="0619"/>
  <anchor x="129" y="460" name="_top"/>
  <anchor x="136" y="742" name="top"/>
  <outline>
    <contour>
      <point x="33" y="480" type="line"/>
      <point x="150" y="492"/>
      <point x="234" y="544"/>
      <point x="234" y="634" type="curve" smooth="yes"/>
      <point x="234" y="689"/>
      <point x="201" y="723"/>
      <point x="149" y="723" type="curve" smooth="yes"/>
      <point x="100" y="723"/>
      <point x="61" y="690"/>
      <point x="61" y="639" type="curve" smooth="yes"/>
      <point x="61" y="592"/>
      <point x="95" y="553"/>
      <point x="138" y="534" type="curve"/>
      <point x="166" y="560" type="line"/>
      <point x="131" y="573"/>
      <point x="102" y="603"/>
      <point x="102" y="636" type="curve" smooth="yes"/>
      <point x="102" y="665"/>
      <point x="120" y="684"/>
      <point x="149" y="684" type="curve" smooth="yes"/>
      <point x="174" y="684"/>
      <point x="194" y="667"/>
      <point x="194" y="632" type="curve" smooth="yes"/>
      <point x="194" y="570"/>
      <point x="138" y="532"/>
      <point x="26" y="518" type="curve"/>
    </contour>
  </outline>
</glyph>
<glyph name="semicolon-ar" format="2">
  <advance width="290"/>
  <unicode hex="061B"/>
  <outline>
    <contour>
      <point x="94" y="251" type="curve"/>
      <point x="177" y="251" type="line"/>
      <point x="188" y="329"/>
      <point x="205" y="415"/>
      <point x="231" y="497" type="curve"/>
      <point x="162" y="497" type="line"/>
      <point x="129" y="418"/>
      <point x="106" y="330"/>
    </contour>
    <contour>
      <point x="140" y="-15" type="curve" smooth="yes"/>
      <point x="172" y="-15"/>
      <point x="199" y="1"/>
      <point x="199" y="41" type="curve" smooth="yes"/>
      <point x="199" y="81"/>
      <point x="172" y="97"/>
      <point x="140" y="97" type="curve" smooth="yes"/>
      <point x="108" y="97"/>
      <point x="81" y="81"/>
      <point x="81" y="41" type="curve" smooth="yes"/>
      <point x="81" y="1"/>
      <point x="108" y="-15"/>
    </contour>
  </outline>
</glyph>
<glyph name="question-ar" format="2">
  <advance width="451"/>
  <unicode hex="061F"/>
  <outline>
    <contour>
      <point x="225" y="204" type="curve"/>
      <point x="299" y="204" type="line"/>
      <point x="300" y="293"/>
      <point x="286" y="336"/>
      <point x="213" y="397" type="curve" smooth="yes"/>
      <point x="150" y="451"/>
      <point x="115" y="476"/>
      <point x="115" y="534" type="curve" smooth="yes"/>
      <point x="115" y="598"/>
      <point x="172" y="638"/>
      <point x="262" y="638" type="curve" smooth="yes"/>
      <point x="317" y="638"/>
      <point x="371" y="623"/>
      <point x="416" y="600" type="curve"/>
      <point x="439" y="668" type="line"/>
      <point x="395" y="692"/>
      <point x="328" y="712"/>
      <point x="261" y="712" type="curve" smooth="yes"/>
      <point x="117" y="712"/>
      <point x="30" y="640"/>
      <point x="30" y="539" type="curve" smooth="yes"/>
      <point x="30" y="457"/>
      <point x="78" y="415"/>
      <point x="153" y="351" type="curve" smooth="yes"/>
      <point x="210" y="303"/>
      <point x="226" y="268"/>
    </contour>
    <contour>
      <point x="258" y="-10" type="curve" smooth="yes"/>
      <point x="292" y="-10"/>
      <point x="316" y="10"/>
      <point x="316" y="46" type="curve" smooth="yes"/>
      <point x="316" y="82"/>
      <point x="292" y="101"/>
      <point x="258" y="101" type="curve" smooth="yes"/>
      <point x="223" y="101"/>
      <point x="200" y="82"/>
      <point x="200" y="46" type="curve" smooth="yes"/>
      <point x="200" y="10"/>
      <point x="223" y="-10"/>
    </contour>
  </outline>
</glyph>
<glyph name="hamza-ar" format="2">
  <advance width="458"/>
  <unicode hex="0621"/>
  <anchor x="237" y="-61" name="bottom"/>
  <anchor x="230" y="478" name="top"/>
  <outline>
    <contour>
      <point x="34" y="-36" type="line"/>
      <point x="155" y="-9"/>
      <point x="332" y="19"/>
      <point x="445" y="39" type="curve"/>
      <point x="436" y="112" type="line"/>
      <point x="371" y="102"/>
      <point x="311" y="91"/>
      <point x="265" y="91" type="curve" smooth="yes"/>
      <point x="182" y="91"/>
      <point x="140" y="141"/>
      <point x="140" y="205" type="curve" smooth="yes"/>
      <point x="140" y="281"/>
      <point x="193" y="323"/>
      <point x="272" y="323" type="curve" smooth="yes"/>
      <point x="314" y="323"/>
      <point x="346" y="315"/>
      <point x="380" y="303" type="curve"/>
      <point x="390" y="370" type="line"/>
      <point x="357" y="386"/>
      <point x="318" y="398"/>
      <point x="266" y="398" type="curve" smooth="yes"/>
      <point x="145" y="398"/>
      <point x="62" y="318"/>
      <point x="62" y="209" type="curve" smooth="yes"/>
      <point x="62" y="108"/>
      <point x="128" y="53"/>
      <point x="202" y="33" type="curve"/>
      <point x="208" y="76" type="line"/>
      <point x="153" y="66"/>
      <point x="86" y="52"/>
      <point x="23" y="37" type="curve"/>
    </contour>
  </outline>
</glyph>
<glyph name="alef-ar" format="2">
  <advance width="279"/>
  <unicode hex="0627"/>
  <anchor x="148" y="-111" name="bottom"/>
  <anchor x="148" y="-16" name="bottom.dot"/>
  <anchor x="131" y="756" name="top"/>
  <outline>
    <contour>
      <point x="110" y="0" type="line"/>
      <point x="188" y="0" type="line"/>
      <point x="167" y="732" type="line"/>
      <point x="90" y="732" type="line"/>
    </contour>
  </outline>
</glyph>
<glyph name="hah-ar" format="2">
  <advance width="715"/>
  <unicode hex="062D"/>
  <anchor x="333" y="-435" name="bottom"/>
  <anchor x="408" y="-36" name="center"/>
  <anchor x="339" y="610" name="top"/>
  <anchor x="336" y="504" name="top.dot"/>
  <outline>
    <contour>
      <point x="399" y="-394" type="curve" smooth="yes"/>
      <point x="500" y="-394"/>
      <point x="598" y="-374"/>
      <point x="654" y="-354" type="curve"/>
      <point x="654" y="-277" type="line"/>
      <point x="592" y="-293"/>
      <point x="512" y="-308"/>
      <point x="411" y="-308" type="curve" smooth="yes"/>
      <point x="236" y="-308"/>
      <point x="116" y="-236"/>
      <point x="116" y="-91" type="curve" smooth="yes"/>
      <point x="116" y="129"/>
      <point x="433" y="248"/>
      <point x="665" y="290" type="curve"/>
      <point x="669" y="367" type="line"/>
      <point x="616" y="365"/>
      <point x="575" y="373"/>
      <point x="532" y="384" type="curve" smooth="yes"/>
      <point x="405" y="411"/>
      <point x="313" y="495"/>
      <point x="190" y="495" type="curve" smooth="yes"/>
      <point x="141" y="495"/>
      <point x="102" y="485"/>
      <point x="69" y="470" type="curve"/>
      <point x="66" y="394" type="line"/>
      <point x="101" y="404"/>
      <point x="133" y="412"/>
      <point x="184" y="412" type="curve" smooth="yes"/>
      <point x="307" y="412"/>
      <point x="404" y="308"/>
      <point x="583" y="305" type="curve"/>
      <point x="586" y="334" type="line"/>
      <point x="334" y="287"/>
      <point x="37" y="153"/>
      <point x="37" y="-103" type="curve" smooth="yes"/>
      <point x="37" y="-286"/>
      <point x="164" y="-394"/>
    </contour>
  </outline>
</glyph>
<glyph name="dal-ar" format="2">
  <advance width="486"/>
  <unicode hex="062F"/>
  <anchor x="214" y="-111" name="bottom"/>
  <anchor x="217" y="-21" name="bottom.dot"/>
  <anchor x="235" y="620" name="top"/>
  <anchor x="235" y="506" name="top.dot"/>
  <outline>
    <contour>
      <point x="191" y="-10" type="curve" smooth="yes"/>
      <point x="347" y="-10"/>
      <point x="440" y="43"/>
      <point x="440" y="152" type="curve" smooth="yes"/>
      <point x="440" y="255"/>
      <point x="374" y="380"/>
      <point x="255" y="517" type="curve"/>
      <point x="194" y="462" type="line"/>
      <point x="300" y="344"/>
      <point x="363" y="231"/>
      <point x="363" y="167" type="curve" smooth="yes"/>
      <point x="363" y="105"/>
      <point x="299" y="76"/>
      <point x="195" y="76" type="curve" smooth="yes"/>
      <point x="142" y="76"/>
      <point x="78" y="87"/>
      <point x="32" y="108" type="curve"/>
      <point x="27" y="28" type="line"/>
      <point x="65" y="5"/>
      <point x="130" y="-10"/>
    </contour>
  </outline>
</glyph>
<glyph name="reh-ar" format="2">
  <advance width="458"/>
  <unicode hex="0631"/>
  <anchor x="130" y="-301" name="bottom"/>
  <anchor x="130" y="-252" name="bottom.dot"/>
  <anchor x="201" y="13" name="center"/>
  <anchor x="243" y="493" name="top"/>
  <anchor x="247" y="354" name="top.dot"/>
  <outline>
    <contour>
      <point x="82" y="-262" type="curve" smooth="yes"/>
      <point x="280" y="-262"/>
      <point x="387" y="-147"/>
      <point x="387" y="47" type="curve" smooth="yes"/>
      <point x="387" y="149"/>
      <point x="347" y="252"/>
      <point x="289" y="342" type="curve"/>
      <point x="220" y="298" type="line"/>
      <point x="276" y="209"/>
      <point x="309" y="122"/>
      <point x="309" y="41" type="curve" smooth="yes"/>
      <point x="309" y="-105"/>
      <point x="224" y="-182"/>
      <point x="73" y="-182" type="curve" smooth="yes"/>
      <point x="18" y="-182"/>
      <point x="-19" y="-174"/>
      <point x="-62" y="-160" type="curve"/>
      <point x="-59" y="-234" type="line"/>
      <point x="-25" y="-252"/>
      <point x="21" y="-262"/>
    </contour>
  </outline>
</glyph>
<glyph name="seen-ar" format="2">
  <advance width="1295"/>
  <unicode hex="0633"/>
  <anchor x="912" y="-111" name="bottom"/>
  <anchor x="912" y="-20" name="bottom.dot"/>
  <anchor x="921" y="483" name="top"/>
  <anchor x="922" y="361" name="top.dot"/>
  <outline>
    <contour>
      <point x="318" y="-237" type="curve" smooth="yes"/>
      <point x="528" y="-237"/>
      <point x="663" y="-117"/>
      <point x="650" y="100" type="curve"/>
      <point x="615" y="98" type="line"/>
      <point x="634" y="31"/>
      <point x="681" y="-10"/>
      <point x="765" y="-10" type="curve" smooth="yes"/>
      <point x="844" y="-10"/>
      <point x="909" y="20"/>
      <point x="930" y="117" type="curve"/>
      <point x="911" y="116" type="line"/>
      <point x="922" y="28"/>
      <point x="971" y="-10"/>
      <point x="1065" y="-10" type="curve" smooth="yes"/>
      <point x="1175" y="-10"/>
      <point x="1237" y="55"/>
      <point x="1237" y="174" type="curve" smooth="yes"/>
      <point x="1237" y="245"/>
      <point x="1221" y="316"/>
      <point x="1190" y="403" type="curve"/>
      <point x="1119" y="380" type="line"/>
      <point x="1145" y="298"/>
      <point x="1159" y="239"/>
      <point x="1159" y="176" type="curve" smooth="yes"/>
      <point x="1159" y="108"/>
      <point x="1126" y="76"/>
      <point x="1061" y="76" type="curve" smooth="yes"/>
      <point x="988" y="76"/>
      <point x="962" y="99"/>
      <point x="956" y="157" type="curve" smooth="yes"/>
      <point x="952" y="193"/>
      <point x="953" y="252"/>
      <point x="951" y="322" type="curve"/>
      <point x="880" y="316" type="line"/>
      <point x="881" y="246"/>
      <point x="880" y="195"/>
      <point x="873" y="160" type="curve" smooth="yes"/>
      <point x="862" y="102"/>
      <point x="829" y="76"/>
      <point x="761" y="76" type="curve" smooth="yes"/>
      <point x="707" y="76"/>
      <point x="666" y="97"/>
      <point x="652" y="147" type="curve" smooth="yes"/>
      <point x="639" y="185"/>
      <point x="631" y="234"/>
      <point x="615" y="306" type="curve"/>
      <point x="543" y="288" type="line"/>
      <point x="559" y="212"/>
      <point x="576" y="139"/>
      <point x="576" y="76" type="curve" smooth="yes"/>
      <point x="576" y="-59"/>
      <point x="498" y="-151"/>
      <point x="327" y="-151" type="curve" smooth="yes"/>
      <point x="189" y="-151"/>
      <point x="125" y="-85"/>
      <point x="125" y="28" type="curve" smooth="yes"/>
      <point x="125" y="86"/>
      <point x="135" y="137"/>
      <point x="152" y="198" type="curve"/>
      <point x="89" y="213" type="line"/>
      <point x="61" y="140"/>
      <point x="48" y="72"/>
      <point x="48" y="12" type="curve" smooth="yes"/>
      <point x="48" y="-140"/>
      <point x="139" y="-237"/>
    </contour>
  </outline>
</glyph>
<glyph name="sad-ar" format="2">
  <advance width="1345"/>
  <unicode hex="0635"/>
  <anchor x="939" y="-112" name="bottom"/>
  <anchor x="939" y="-20" name="bottom.dot"/>
  <anchor x="707" y="502" name="top"/>
  <anchor x="1049" y="462" name="top.dot"/>
  <outline>
    <contour>
      <point x="318" y="-237" type="curve" smooth="yes"/>
      <point x="528" y="-237"/>
      <point x="663" y="-116"/>
      <point x="650" y="100" type="curve"/>
      <point x="616" y="90" type="line"/>
      <point x="654" y="19"/>
      <point x="713" y="-7"/>
      <point x="898" y="-7" type="curve" smooth="yes"/>
      <point x="1183" y="-7"/>
      <point x="1299" y="73"/>
      <point x="1299" y="216" type="curve" smooth="yes"/>
      <point x="1299" y="338"/>
      <point x="1224" y="439"/>
      <point x="1096" y="439" type="curve" smooth="yes"/>
      <point x="934" y="439"/>
      <point x="785" y="273"/>
      <point x="660" y="82" type="curve"/>
      <point x="727" y="55" type="line"/>
      <point x="825" y="198"/>
      <point x="943" y="352"/>
      <point x="1080" y="352" type="curve" smooth="yes"/>
      <point x="1169" y="352"/>
      <point x="1220" y="281"/>
      <point x="1220" y="211" type="curve" smooth="yes"/>
      <point x="1220" y="129"/>
      <point x="1146" y="79"/>
      <point x="905" y="79" type="curve" smooth="yes"/>
      <point x="709" y="79"/>
      <point x="666" y="97"/>
      <point x="650" y="151" type="curve" smooth="yes"/>
      <point x="638" y="191"/>
      <point x="631" y="233"/>
      <point x="615" y="305" type="curve"/>
      <point x="543" y="288" type="line"/>
      <point x="560" y="208"/>
      <point x="576" y="139"/>
      <point x="576" y="76" type="curve" smooth="yes"/>
      <point x="576" y="-59"/>
      <point x="498" y="-151"/>
      <point x="327" y="-151" type="curve" smooth="yes"/>
      <point x="189" y="-151"/>
      <point x="125" y="-85"/>
      <point x="125" y="28" type="curve" smooth="yes"/>
      <point x="125" y="86"/>
      <point x="135" y="137"/>
      <point x="152" y="198" type="curve"/>
      <point x="89" y="213" type="line"/>
      <point x="61" y="140"/>
      <point x="48" y="72"/>
      <point x="48" y="12" type="curve" smooth="yes"/>
      <point x="48" y="-140"/>
      <point x="139" y="-237"/>
    </contour>
  </outline>
</glyph>
<glyph name="tah-ar" format="2">
  <advance width="872"/>
  <unicode hex="0637"/>
  <anchor x="423" y="-112" name="bottom"/>
  <anchor x="423" y="-20" name="bottom.dot"/>
  <anchor x="581" y="596" name="top"/>
  <anchor x="592" y="460" name="top.dot"/>
  <outline>
    <contour>
      <point x="375" y="-7" type="curve" smooth="yes"/>
      <point x="712" y="-7"/>
      <point x="826" y="77"/>
      <point x="826" y="216" type="curve" smooth="yes"/>
      <point x="826" y="335"/>
      <point x="750" y="439"/>
      <point x="623" y="439" type="curve" smooth="yes"/>
      <point x="468" y="439"/>
      <point x="305" y="254"/>
      <point x="179" y="63" type="curve"/>
      <point x="246" y="42" type="line"/>
      <point x="338" y="185"/>
      <point x="469" y="352"/>
      <point x="606" y="352" type="curve" smooth="yes"/>
      <point x="700" y="352"/>
      <point x="747" y="281"/>
      <point x="747" y="211" type="curve" smooth="yes"/>
      <point x="747" y="123"/>
      <point x="656" y="79"/>
      <point x="386" y="79" type="curve" smooth="yes"/>
      <point x="286" y="79"/>
      <point x="156" y="80"/>
      <point x="36" y="89" type="curve"/>
      <point x="30" y="5" type="line"/>
      <point x="134" y="-4"/>
      <point x="260" y="-7"/>
    </contour>
    <contour>
      <point x="257" y="114" type="line"/>
      <point x="330" y="218" type="line"/>
      <point x="313" y="732" type="line"/>
      <point x="237" y="732" type="line"/>
    </contour>
  </outline>
</glyph>
<glyph name="ain-ar" format="2">
  <advance width="578"/>
  <unicode hex="0639"/>
  <anchor x="333" y="-435" name="bottom"/>
  <anchor x="368" y="-89" name="center"/>
  <anchor x="304" y="623" name="top"/>
  <anchor x="304" y="534" name="top.dot"/>
  <outline>
    <contour>
      <point x="345" y="-388" type="curve" smooth="yes"/>
      <point x="430" y="-388"/>
      <point x="525" y="-370"/>
      <point x="586" y="-346" type="curve"/>
      <point x="586" y="-267" type="line"/>
      <point x="518" y="-289"/>
      <point x="431" y="-302"/>
      <point x="353" y="-302" type="curve" smooth="yes"/>
      <point x="205" y="-302"/>
      <point x="105" y="-254"/>
      <point x="105" y="-131" type="curve" smooth="yes"/>
      <point x="105" y="-44"/>
      <point x="168" y="27"/>
      <point x="276" y="76" type="curve" smooth="yes"/>
      <point x="332" y="102"/>
      <point x="431" y="124"/>
      <point x="515" y="143" type="curve"/>
      <point x="508" y="223" type="line"/>
      <point x="435" y="207"/>
      <point x="361" y="188"/>
      <point x="312" y="188" type="curve" smooth="yes"/>
      <point x="227" y="188"/>
      <point x="154" y="229"/>
      <point x="154" y="319" type="curve" smooth="yes"/>
      <point x="154" y="407"/>
      <point x="222" y="458"/>
      <point x="322" y="458" type="curve" smooth="yes"/>
      <point x="371" y="458"/>
      <point x="411" y="448"/>
      <point x="450" y="437" type="curve"/>
      <point x="457" y="515" type="line"/>
      <point x="420" y="533"/>
      <point x="373" y="544"/>
      <point x="316" y="544" type="curve" smooth="yes"/>
      <point x="169" y="544"/>
      <point x="75" y="451"/>
      <point x="75" y="320" type="curve" smooth="yes"/>
      <point x="75" y="198"/>
      <point x="170" y="126"/>
      <point x="263" y="113" type="curve"/>
      <point x="271" y="150" type="line"/>
      <point x="140" y="97"/>
      <point x="26" y="5"/>
      <point x="26" y="-141" type="curve" smooth="yes"/>
      <point x="26" y="-302"/>
      <point x="155" y="-388"/>
    </contour>
  </outline>
</glyph>
<glyph name="kashida-ar" format="2">
  <advance width="270"/>
  <unicode hex="0640"/>
  <anchor x="135" y="0" name="bottom"/>
  <anchor x="115" y="714" name="top"/>
  <outline>
    <contour>
      <point x="0" y="-5" type="line"/>
      <point x="270" y="-5" type="line" smooth="yes"/>
      <point x="299" y="-5"/>
      <point x="320" y="16"/>
      <point x="320" y="38" type="curve" smooth="yes"/>
      <point x="320" y="59"/>
      <point x="308" y="77"/>
      <point x="280" y="77" type="curve" smooth="yes"/>
      <point x="10" y="77" type="line"/>
    </contour>
  </outline>
</glyph>
<glyph name="kaf-ar" format="2">
  <advance width="940"/>
  <unicode hex="0643"/>
  <anchor x="450" y="-111" name="bottom"/>
  <anchor x="451" y="-20" name="bottom.dot"/>
  <anchor x="461" y="632" name="top"/>
  <anchor x="796" y="726" name="top.dot"/>
  <outline>
    <contour>
      <point x="413" y="-15" type="line"/>
      <point x="747" y="-15"/>
      <point x="856" y="75"/>
      <point x="849" y="280" type="curve" smooth="yes"/>
      <point x="831" y="732" type="line"/>
      <point x="754" y="732" type="line"/>
      <point x="772" y="271" type="line" smooth="yes"/>
      <point x="778" y="120"/>
      <point x="668" y="71"/>
      <point x="439" y="71" type="curve"/>
    </contour>
    <contour>
      <point x="335" y="287" type="line"/>
      <point x="469" y="286"/>
      <point x="560" y="318"/>
      <point x="560" y="384" type="curve" smooth="yes"/>
      <point x="560" y="418"/>
      <point x="538" y="437"/>
      <point x="485" y="457" type="curve" smooth="yes"/>
      <point x="438" y="475"/>
      <point x="421" y="483"/>
      <point x="421" y="498" type="curve" smooth="yes"/>
      <point x="421" y="521"/>
      <point x="452" y="539"/>
      <point x="548" y="558" type="curve"/>
      <point x="543" y="614" type="line"/>
      <point x="408" y="587"/>
      <point x="358" y="543"/>
      <point x="358" y="492" type="curve" smooth="yes"/>
      <point x="358" y="456"/>
      <point x="381" y="436"/>
      <point x="436" y="416" type="curve" smooth="yes"/>
      <point x="478" y="401"/>
      <point x="490" y="393"/>
      <point x="490" y="379" type="curve" smooth="yes"/>
      <point x="490" y="356"/>
      <point x="435" y="340"/>
      <point x="329" y="339" type="curve"/>
    </contour>
    <component base="_part.beh.fina" xOffset="-4"/>
  </outline>
</glyph>
<glyph name="lam-ar" format="2">
  <advance width="703"/>
  <unicode hex="0644"/>
  <anchor x="323" y="-272" name="bottom"/>
  <anchor x="323" y="-219" name="bottom.dot"/>
  <anchor x="565" y="418" name="center"/>
  <anchor x="207" y="498" name="top"/>
  <anchor x="555" y="726" name="top.dot"/>
  <outline>
    <contour>
      <point x="315" y="-236" type="curve" smooth="yes"/>
      <point x="508" y="-236"/>
      <point x="620" y="-130"/>
      <point x="611" y="148" type="curve" smooth="yes"/>
      <point x="594" y="732" type="line"/>
      <point x="516" y="732" type="line"/>
      <point x="535" y="147" type="line" smooth="yes"/>
      <point x="543" y="-80"/>
      <point x="464" y="-150"/>
      <point x="322" y="-150" type="curve" smooth="yes"/>
      <point x="192" y="-150"/>
      <point x="124" y="-91"/>
      <point x="124" y="28" type="curve" smooth="yes"/>
      <point x="124" y="92"/>
      <point x="136" y="139"/>
      <point x="152" y="198" type="curve"/>
      <point x="89" y="213" type="line"/>
      <point x="63" y="147"/>
      <point x="48" y="80"/>
      <point x="48" y="12" type="curve" smooth="yes"/>
      <point x="48" y="-146"/>
      <point x="142" y="-236"/>
    </contour>
  </outline>
</glyph>
<glyph name="meem-ar" format="2">
  <advance width="563"/>
  <unicode hex="0645"/>
  <anchor x="318" y="-111" name="bottom"/>
  <anchor x="318" y="-20" name="bottom.dot"/>
  <anchor x="278" y="528" name="top"/>
  <anchor x="280" y="425" name="top.dot"/>
  <outline>
    <contour>
      <point x="60" y="-389" type="curve"/>
      <point x="139" y="-386" type="line"/>
      <point x="130" y="-273"/>
      <point x="118" y="-162"/>
      <point x="118" y="-95" type="curve" smooth="yes"/>
      <point x="118" y="10"/>
      <point x="176" y="51"/>
      <point x="303" y="51" type="curve" smooth="yes"/>
      <point x="371" y="51"/>
      <point x="440" y="43"/>
      <point x="505" y="32" type="curve"/>
      <point x="528" y="112" type="line"/>
      <point x="483" y="275"/>
      <point x="404" y="423"/>
      <point x="277" y="423" type="curve" smooth="yes"/>
      <point x="194" y="423"/>
      <point x="128" y="371"/>
      <point x="88" y="260" type="curve"/>
      <point x="149" y="231" type="line"/>
      <point x="181" y="302"/>
      <point x="218" y="336"/>
      <point x="272" y="336" type="curve" smooth="yes"/>
      <point x="356" y="336"/>
      <point x="414" y="234"/>
      <point x="453" y="100" type="curve"/>
      <point x="482" y="116" type="line"/>
      <point x="431" y="124"/>
      <point x="366" y="134"/>
      <point x="291" y="134" type="curve" smooth="yes"/>
      <point x="130" y="134"/>
      <point x="38" y="66"/>
      <point x="38" y="-88" type="curve" smooth="yes"/>
      <point x="38" y="-169"/>
      <point x="47" y="-262"/>
    </contour>
  </outline>
</glyph>
<glyph name="heh-ar" format="2">
  <advance width="492"/>
  <unicode hex="0647"/>
  <anchor x="239" y="-111" name="bottom"/>
  <anchor x="227" y="612" name="top"/>
  <anchor x="227" y="543" name="top.dot"/>
  <outline>
    <contour>
      <point x="237" y="-4" type="curve" smooth="yes"/>
      <point x="386" y="-4"/>
      <point x="460" y="77"/>
      <point x="460" y="191" type="curve" smooth="yes"/>
      <point x="460" y="319"/>
      <point x="375" y="425"/>
      <point x="200" y="543" type="curve"/>
      <point x="154" y="479" type="line"/>
      <point x="325" y="363"/>
      <point x="383" y="281"/>
      <point x="383" y="197" type="curve" smooth="yes"/>
      <point x="383" y="128"/>
      <point x="340" y="82"/>
      <point x="243" y="82" type="curve" smooth="yes"/>
      <point x="161" y="82"/>
      <point x="114" y="126"/>
      <point x="114" y="191" type="curve" smooth="yes"/>
      <point x="114" y="276"/>
      <point x="171" y="345"/>
      <point x="264" y="425" type="curve"/>
      <point x="220" y="473" type="line"/>
      <point x="106" y="371"/>
      <point x="36" y="284"/>
      <point x="36" y="173" type="curve" smooth="yes"/>
      <point x="36" y="68"/>
      <point x="108" y="-4"/>
    </contour>
  </outline>
</glyph>
<glyph name="waw-ar" format="2">
  <advance width="490"/>
  <unicode hex="0648"/>
  <anchor x="211" y="-296" name="bottom"/>
  <anchor x="251" y="-84" name="center"/>
  <anchor x="245" y="454" name="top"/>
  <anchor x="245" y="384" name="top.dot"/>
  <outline>
    <contour>
      <point x="155" y="-262" type="curve" smooth="yes"/>
      <point x="341" y="-261"/>
      <point x="445" y="-128"/>
      <point x="445" y="70" type="curve" smooth="yes"/>
      <point x="445" y="257"/>
      <point x="374" y="383"/>
      <point x="245" y="383" type="curve" smooth="yes"/>
      <point x="136" y="383"/>
      <point x="58" y="280"/>
      <point x="58" y="155" type="curve" smooth="yes"/>
      <point x="58" y="46"/>
      <point x="118" y="-11"/>
      <point x="246" y="-11" type="curve" smooth="yes"/>
      <point x="306" y="-11"/>
      <point x="368" y="6"/>
      <point x="406" y="27" type="curve"/>
      <point x="406" y="104" type="line"/>
      <point x="357" y="82"/>
      <point x="309" y="71"/>
      <point x="258" y="71" type="curve" smooth="yes"/>
      <point x="162" y="71"/>
      <point x="128" y="101"/>
      <point x="128" y="168" type="curve" smooth="yes"/>
      <point x="128" y="242"/>
      <point x="172" y="304"/>
      <point x="241" y="304" type="curve" smooth="yes"/>
      <point x="323" y="304"/>
      <point x="376" y="231"/>
      <point x="376" y="69" type="curve" smooth="yes"/>
      <point x="376" y="-93"/>
      <point x="301" y="-183"/>
      <point x="146" y="-185" type="curve" smooth="yes"/>
      <point x="97" y="-186"/>
      <point x="50" y="-177"/>
      <point x="10" y="-163" type="curve"/>
      <point x="13" y="-234" type="line"/>
      <point x="47" y="-252"/>
      <point x="100" y="-263"/>
    </contour>
  </outline>
</glyph>
<glyph name="alefMaksura-ar" format="2">
  <advance width="811"/>
  <unicode hex="0649"/>
  <anchor x="351" y="-273" name="bottom"/>
  <anchor x="351" y="-236" name="bottom.dot"/>
  <anchor x="232" y="352" name="top"/>
  <anchor x="136" y="202" name="top.dot"/>
  <outline>
    <contour>
      <point x="341" y="-237" type="curve" smooth="yes"/>
      <point x="592" y="-237"/>
      <point x="741" y="-100"/>
      <point x="741" y="23" type="curve" smooth="yes"/>
      <point x="741" y="99"/>
      <point x="690" y="122"/>
      <point x="565" y="150" type="curve" smooth="yes"/>
      <point x="472" y="171"/>
      <point x="435" y="187"/>
      <point x="435" y="232" type="curve" smooth="yes"/>
      <point x="435" y="299"/>
      <point x="513" y="378"/>
      <point x="629" y="378" type="curve" smooth="yes"/>
      <point x="673" y="378"/>
      <point x="713" y="367"/>
      <point x="751" y="348" type="curve"/>
      <point x="770" y="427" type="line"/>
      <point x="738" y="448"/>
      <point x="690" y="463"/>
      <point x="634" y="463" type="curve" smooth="yes"/>
      <point x="480" y="463"/>
      <point x="361" y="341"/>
      <point x="361" y="218" type="curve" smooth="yes"/>
      <point x="361" y="139"/>
      <point x="411" y="100"/>
      <point x="532" y="73" type="curve" smooth="yes"/>
      <point x="631" y="52"/>
      <point x="658" y="40"/>
      <point x="658" y="5" type="curve" smooth="yes"/>
      <point x="658" y="-66"/>
      <point x="541" y="-151"/>
      <point x="355" y="-151" type="curve" smooth="yes"/>
      <point x="200" y="-151"/>
      <point x="124" y="-101"/>
      <point x="124" y="16" type="curve" smooth="yes"/>
      <point x="124" y="68"/>
      <point x="135" y="127"/>
      <point x="157" y="191" type="curve"/>
      <point x="95" y="207" type="line"/>
      <point x="60" y="128"/>
      <point x="48" y="56"/>
      <point x="48" y="-1" type="curve" smooth="yes"/>
      <point x="48" y="-165"/>
      <point x="159" y="-237"/>
    </contour>
  </outline>
</glyph>
<glyph name="fathatan-ar" format="2">
  <unicode hex="064B"/>
  <anchor x="154" y="464" name="_top"/>
  <anchor x="153" y="686" name="top"/>
  <outline>
    <contour>
      <point x="38" y="586" type="line"/>
      <point x="264" y="635" type="line"/>
      <point x="257" y="676" type="line"/>
      <point x="30" y="626" type="line"/>
    </contour>
    <contour>
      <point x="38" y="471" type="line"/>
      <point x="264" y="520" type="line"/>
      <point x="257" y="560" type="line"/>
      <point x="30" y="510" type="line"/>
    </contour>
  </outline>
</glyph>
<glyph name="dammatan-ar" format="2">
  <unicode hex="064C"/>
  <anchor x="181" y="464" name="_top"/>
  <anchor x="183" y="706" name="top"/>
  <outline>
    <contour>
      <point x="51" y="484" type="line"/>
      <point x="229" y="491"/>
      <point x="325" y="555"/>
      <point x="325" y="644" type="curve" smooth="yes"/>
      <point x="325" y="695"/>
      <point x="295" y="726"/>
      <point x="249" y="726" type="curve" smooth="yes"/>
      <point x="203" y="726"/>
      <point x="167" y="694"/>
      <point x="167" y="642" type="curve" smooth="yes"/>
      <point x="167" y="601"/>
      <point x="195" y="564"/>
      <point x="230" y="546" type="curve"/>
      <point x="257" y="572" type="line"/>
      <point x="227" y="588"/>
      <point x="207" y="612"/>
      <point x="207" y="641" type="curve" smooth="yes"/>
      <point x="207" y="669"/>
      <point x="222" y="685"/>
      <point x="246" y="685" type="curve" smooth="yes"/>
      <point x="273" y="685"/>
      <point x="285" y="668"/>
      <point x="285" y="640" type="curve" smooth="yes"/>
      <point x="285" y="575"/>
      <point x="192" y="535"/>
      <point x="99" y="527" type="curve"/>
      <point x="93" y="511" type="line"/>
      <point x="127" y="514"/>
      <point x="146" y="544"/>
      <point x="146" y="580" type="curve" smooth="yes"/>
      <point x="146" y="621"/>
      <point x="125" y="649"/>
      <point x="86" y="649" type="curve" smooth="yes"/>
      <point x="64" y="649"/>
      <point x="44" y="641"/>
      <point x="30" y="630" type="curve"/>
      <point x="40" y="599" type="line"/>
      <point x="51" y="605"/>
      <point x="63" y="609"/>
      <point x="75" y="609" type="curve" smooth="yes"/>
      <point x="95" y="609"/>
      <point x="106" y="596"/>
      <point x="106" y="573" type="curve" smooth="yes"/>
      <point x="106" y="547"/>
      <point x="90" y="527"/>
      <point x="46" y="522" type="curve"/>
    </contour>
  </outline>
</glyph>
<glyph name="fatha-ar" format="2">
  <unicode hex="064E"/>
  <anchor x="148" y="452" name="_top"/>
  <anchor x="149" y="432" name="_top.dot"/>
  <anchor x="138" y="569" name="top"/>
  <outline>
    <contour>
      <point x="38" y="475" type="line"/>
      <point x="264" y="523" type="line"/>
      <point x="257" y="564" type="line"/>
      <point x="30" y="514" type="line"/>
    </contour>
  </outline>
</glyph>
<glyph name="damma-ar" format="2">
  <unicode hex="064F"/>
  <anchor x="147" y="457" name="_top"/>
  <anchor x="147" y="432" name="_top.dot"/>
  <anchor x="168" y="747" name="top"/>
  <outline>
    <contour>
      <point x="37" y="483" type="line"/>
      <point x="174" y="495"/>
      <point x="266" y="543"/>
      <point x="266" y="632" type="curve" smooth="yes"/>
      <point x="266" y="683"/>
      <point x="236" y="720"/>
      <point x="183" y="720" type="curve" smooth="yes"/>
      <point x="134" y="720"/>
      <point x="98" y="684"/>
      <point x="98" y="636" type="curve" smooth="yes"/>
      <point x="98" y="593"/>
      <point x="124" y="558"/>
      <point x="168" y="540" type="curve"/>
      <point x="198" y="566" type="line"/>
      <point x="162" y="578"/>
      <point x="140" y="604"/>
      <point x="140" y="633" type="curve" smooth="yes"/>
      <point x="140" y="661"/>
      <point x="157" y="680"/>
      <point x="183" y="680" type="curve" smooth="yes"/>
      <point x="209" y="680"/>
      <point x="225" y="662"/>
      <point x="225" y="631" type="curve" smooth="yes"/>
      <point x="225" y="570"/>
      <point x="163" y="537"/>
      <point x="30" y="523" type="curve"/>
    </contour>
  </outline>
</glyph>
<glyph name="shadda-ar" format="2">
  <unicode hex="0651"/>
  <anchor x="161" y="464" name="_top"/>
  <anchor x="160" y="669" name="top"/>
  <outline>
    <contour>
      <point x="94" y="481" type="curve" smooth="yes"/>
      <point x="135" y="481"/>
      <point x="164" y="517"/>
      <point x="164" y="569" type="curve"/>
      <point x="149" y="571" type="line"/>
      <point x="150" y="530"/>
      <point x="176" y="510"/>
      <point x="205" y="510" type="curve" smooth="yes"/>
      <point x="256" y="510"/>
      <point x="279" y="547"/>
      <point x="279" y="597" type="curve" smooth="yes"/>
      <point x="279" y="627"/>
      <point x="272" y="652"/>
      <point x="263" y="677" type="curve"/>
      <point x="226" y="666" type="line"/>
      <point x="232" y="643"/>
      <point x="236" y="623"/>
      <point x="236" y="599" type="curve" smooth="yes"/>
      <point x="236" y="568"/>
      <point x="225" y="555"/>
      <point x="203" y="555" type="curve" smooth="yes"/>
      <point x="183" y="555"/>
      <point x="174" y="566"/>
      <point x="174" y="596" type="curve" smooth="yes"/>
      <point x="174" y="649" type="line"/>
      <point x="138" y="638" type="line"/>
      <point x="137" y="600" type="line" smooth="yes"/>
      <point x="136" y="545"/>
      <point x="122" y="527"/>
      <point x="99" y="527" type="curve" smooth="yes"/>
      <point x="78" y="527"/>
      <point x="71" y="540"/>
      <point x="71" y="567" type="curve" smooth="yes"/>
      <point x="71" y="582"/>
      <point x="74" y="598"/>
      <point x="76" y="621" type="curve"/>
      <point x="36" y="611" type="line"/>
      <point x="32" y="591"/>
      <point x="30" y="576"/>
      <point x="30" y="562" type="curve" smooth="yes"/>
      <point x="30" y="513"/>
      <point x="46" y="481"/>
    </contour>
  </outline>
</glyph>
<glyph name="madda-ar" format="2">
  <unicode hex="0653"/>
  <anchor x="162" y="463" name="_top"/>
  <anchor x="162" y="432" name="_top.dot"/>
  <anchor x="166" y="612" name="top"/>
  <outline>
    <contour>
      <point x="224" y="494" type="curve" smooth="yes"/>
      <point x="263" y="494"/>
      <point x="296" y="515"/>
      <point x="326" y="549" type="curve"/>
      <point x="301" y="586" type="line"/>
      <point x="276" y="562"/>
      <point x="256" y="546"/>
      <point x="226" y="546" type="curve" smooth="yes"/>
      <point x="176" y="546"/>
      <point x="139" y="592"/>
      <point x="91" y="592" type="curve" smooth="yes"/>
      <point x="52" y="592"/>
      <point x="25" y="565"/>
      <point x="3" y="535" type="curve"/>
      <point x="29" y="502" type="line"/>
      <point x="47" y="523"/>
      <point x="66" y="541"/>
      <point x="92" y="541" type="curve" smooth="yes"/>
      <point x="127" y="541"/>
      <point x="169" y="494"/>
    </contour>
  </outline>
</glyph>
<glyph name="noonghunnaabove-ar" format="2">
  <unicode hex="0658"/>
  <anchor x="140" y="463" name="_top"/>
  <anchor x="143" y="694" name="top"/>
  <outline>
    <contour>
      <point x="136" y="486" type="curve" smooth="yes"/>
      <point x="218" y="486"/>
      <point x="260" y="532"/>
      <point x="260" y="607" type="curve" smooth="yes"/>
      <point x="260" y="636"/>
      <point x="256" y="662"/>
      <point x="249" y="686" type="curve"/>
      <point x="211" y="679" type="line"/>
      <point x="215" y="655"/>
      <point x="219" y="627"/>
      <point x="219" y="605" type="curve" smooth="yes"/>
      <point x="219" y="549"/>
      <point x="192" y="527"/>
      <point x="139" y="527" type="curve" smooth="yes"/>
      <point x="86" y="527"/>
      <point x="64" y="549"/>
      <point x="64" y="594" type="curve" smooth="yes"/>
      <point x="64" y="615"/>
      <point x="67" y="635"/>
      <point x="71" y="655" type="curve"/>
      <point x="35" y="660" type="line"/>
      <point x="29" y="638"/>
      <point x="25" y="614"/>
      <point x="25" y="589" type="curve" smooth="yes"/>
      <point x="25" y="522"/>
      <point x="62" y="486"/>
    </contour>
  </outline>
</glyph>
<glyph name="fathaHorizont-ar" format="2">
  <unicode hex="0659"/>
  <anchor x="151" y="485" name="_top"/>
  <anchor x="148" y="653" name="top"/>
  <outline>
    <contour>
      <point x="30" y="566" type="line"/>
      <point x="266" y="566" type="line"/>
      <point x="266" y="604" type="line"/>
      <point x="30" y="603" type="line"/>
    </contour>
  </outline>
</glyph>
<glyph name="fathatwodots-ar" format="2">
  <unicode hex="065E"/>
  <anchor x="145" y="466" name="_top"/>
  <anchor x="149" y="767" name="top"/>
  <outline>
    <contour>
      <point x="34" y="505" type="line"/>
      <point x="250" y="679" type="line"/>
      <point x="250" y="730" type="line"/>
      <point x="34" y="556" type="line"/>
    </contour>
    <contour>
      <point x="208" y="486" type="curve"/>
      <point x="252" y="530" type="line"/>
      <point x="233" y="551"/>
      <point x="223" y="560"/>
      <point x="204" y="575" type="curve"/>
      <point x="160" y="530" type="line"/>
      <point x="181" y="512"/>
      <point x="192" y="502"/>
    </contour>
    <contour>
      <point x="81" y="666" type="curve"/>
      <point x="125" y="710" type="line"/>
      <point x="106" y="731"/>
      <point x="96" y="740"/>
      <point x="77" y="755" type="curve"/>
      <point x="33" y="710" type="line"/>
      <point x="54" y="692"/>
      <point x="65" y="682"/>
    </contour>
  </outline>
</glyph>
<glyph name="zero-ar" format="2">
  <advance width="305"/>
  <unicode hex="0660"/>
  <outline>
    <contour>
      <point x="158" y="156" type="curve"/>
      <point x="228" y="227" type="line"/>
      <point x="203" y="256"/>
      <point x="176" y="283"/>
      <point x="146" y="309" type="curve"/>
      <point x="77" y="235" type="line"/>
      <point x="109" y="207"/>
      <point x="127" y="188"/>
    </contour>
  </outline>
</glyph>
<glyph name="one-ar" format="2">
  <advance width="357"/>
  <unicode hex="0661"/>
  <outline>
    <contour>
      <point x="179" y="-6" type="curve"/>
      <point x="263" y="-2" type="line"/>
      <point x="255" y="213"/>
      <point x="225" y="464"/>
      <point x="165" y="675" type="curve"/>
      <point x="81" y="653" type="line"/>
      <point x="139" y="445"/>
      <point x="169" y="201"/>
    </contour>
  </outline>
</glyph>
<glyph name="two-ar" format="2">
  <advance width="512"/>
  <unicode hex="0662"/>
  <outline>
    <contour>
      <point x="165" y="-7" type="curve"/>
      <point x="247" y="-2" type="line"/>
      <point x="218" y="236"/>
      <point x="148" y="422"/>
      <point x="148" y="507" type="curve" smooth="yes"/>
      <point x="148" y="565"/>
      <point x="187" y="593"/>
      <point x="306" y="593" type="curve" smooth="yes"/>
      <point x="357" y="593"/>
      <point x="419" y="587"/>
      <point x="471" y="576" type="curve"/>
      <point x="478" y="659" type="line"/>
      <point x="424" y="672"/>
      <point x="364" y="679"/>
      <point x="302" y="679" type="curve" smooth="yes"/>
      <point x="140" y="679"/>
      <point x="61" y="625"/>
      <point x="61" y="525" type="curve" smooth="yes"/>
      <point x="61" y="428"/>
      <point x="134" y="223"/>
    </contour>
  </outline>
</glyph>
<glyph name="three-ar" format="2">
  <advance width="663"/>
  <unicode hex="0663"/>
  <outline>
    <contour>
      <point x="150" y="-6" type="curve"/>
      <point x="231" y="-2" type="line"/>
      <point x="223" y="174"/>
      <point x="203" y="363"/>
      <point x="162" y="518" type="curve"/>
      <point x="134" y="462" type="line"/>
      <point x="151" y="420"/>
      <point x="202" y="392"/>
      <point x="255" y="391" type="curve" smooth="yes"/>
      <point x="320" y="390"/>
      <point x="360" y="420"/>
      <point x="376" y="475" type="curve"/>
      <point x="356" y="475" type="line"/>
      <point x="364" y="424"/>
      <point x="403" y="395"/>
      <point x="472" y="394" type="curve" smooth="yes"/>
      <point x="562" y="395"/>
      <point x="610" y="450"/>
      <point x="610" y="550" type="curve" smooth="yes"/>
      <point x="610" y="584"/>
      <point x="604" y="634"/>
      <point x="589" y="686" type="curve"/>
      <point x="526" y="672" type="line"/>
      <point x="536" y="630"/>
      <point x="541" y="596"/>
      <point x="541" y="559" type="curve" smooth="yes"/>
      <point x="541" y="504"/>
      <point x="522" y="471"/>
      <point x="469" y="471" type="curve" smooth="yes"/>
      <point x="421" y="471"/>
      <point x="402" y="488"/>
      <point x="397" y="522" type="curve" smooth="yes"/>
      <point x="392" y="552"/>
      <point x="394" y="603"/>
      <point x="394" y="664" type="curve"/>
      <point x="328" y="665" type="line"/>
      <point x="328" y="598"/>
      <point x="327" y="553"/>
      <point x="323" y="524" type="curve" smooth="yes"/>
      <point x="318" y="490"/>
      <point x="296" y="468"/>
      <point x="254" y="468" type="curve" smooth="yes"/>
      <point x="204" y="468"/>
      <point x="174" y="488"/>
      <point x="165" y="528" type="curve" smooth="yes"/>
      <point x="156" y="562"/>
      <point x="146" y="611"/>
      <point x="131" y="671" type="curve"/>
      <point x="50" y="651" type="line"/>
      <point x="109" y="427"/>
      <point x="137" y="197"/>
    </contour>
  </outline>
</glyph>
<glyph name="four-ar" format="2">
  <advance width="485"/>
  <unicode hex="0664"/>
  <outline>
    <contour>
      <point x="275" y="-8" type="curve" smooth="yes"/>
      <point x="345" y="-8"/>
      <point x="415" y="7"/>
      <point x="465" y="30" type="curve"/>
      <point x="456" y="101" type="line"/>
      <point x="410" y="86"/>
      <point x="351" y="73"/>
      <point x="286" y="73" type="curve" smooth="yes"/>
      <point x="189" y="73"/>
      <point x="143" y="101"/>
      <point x="143" y="155" type="curve" smooth="yes"/>
      <point x="143" y="214"/>
      <point x="218" y="253"/>
      <point x="354" y="312" type="curve"/>
      <point x="349" y="383" type="line"/>
      <point x="231" y="391"/>
      <point x="137" y="402"/>
      <point x="137" y="460" type="curve" smooth="yes"/>
      <point x="137" y="523"/>
      <point x="231" y="573"/>
      <point x="360" y="605" type="curve"/>
      <point x="351" y="681" type="line"/>
      <point x="180" y="634"/>
      <point x="58" y="559"/>
      <point x="58" y="457" type="curve" smooth="yes"/>
      <point x="58" y="372"/>
      <point x="151" y="332"/>
      <point x="282" y="322" type="curve"/>
      <point x="281" y="349" type="line"/>
      <point x="131" y="293"/>
      <point x="57" y="220"/>
      <point x="57" y="140" type="curve" smooth="yes"/>
      <point x="57" y="50"/>
      <point x="124" y="-8"/>
    </contour>
  </outline>
</glyph>
<glyph name="five-ar" format="2">
  <advance width="524"/>
  <unicode hex="0665"/>
  <outline>
    <contour>
      <point x="260" y="0" type="curve" smooth="yes"/>
      <point x="393" y="0"/>
      <point x="472" y="80"/>
      <point x="472" y="236" type="curve" smooth="yes"/>
      <point x="472" y="400"/>
      <point x="393" y="517"/>
      <point x="270" y="517" type="curve" smooth="yes"/>
      <point x="150" y="517"/>
      <point x="52" y="397"/>
      <point x="52" y="225" type="curve" smooth="yes"/>
      <point x="52" y="71"/>
      <point x="134" y="0"/>
    </contour>
    <contour>
      <point x="261" y="80" type="curve" smooth="yes"/>
      <point x="181" y="80"/>
      <point x="126" y="124"/>
      <point x="126" y="231" type="curve" smooth="yes"/>
      <point x="126" y="354"/>
      <point x="186" y="437"/>
      <point x="268" y="437" type="curve" smooth="yes"/>
      <point x="344" y="437"/>
      <point x="397" y="360"/>
      <point x="397" y="235" type="curve" smooth="yes"/>
      <point x="397" y="126"/>
      <point x="342" y="80"/>
    </contour>
  </outline>
</glyph>
<glyph name="six-ar" format="2">
  <advance width="518"/>
  <unicode hex="0666"/>
  <outline>
    <contour>
      <point x="380" y="-4" type="curve"/>
      <point x="464" y="5" type="line"/>
      <point x="433" y="206"/>
      <point x="406" y="463"/>
      <point x="393" y="657" type="curve"/>
      <point x="338" y="653"/>
      <point x="274" y="651"/>
      <point x="220" y="651" type="curve" smooth="yes"/>
      <point x="152" y="651"/>
      <point x="85" y="655"/>
      <point x="28" y="663" type="curve"/>
      <point x="25" y="582" type="line"/>
      <point x="83" y="573"/>
      <point x="145" y="571"/>
      <point x="205" y="571" type="curve" smooth="yes"/>
      <point x="257" y="571"/>
      <point x="318" y="574"/>
      <point x="358" y="579" type="curve"/>
      <point x="322" y="597" type="line"/>
      <point x="331" y="414"/>
      <point x="350" y="195"/>
    </contour>
  </outline>
</glyph>
<glyph name="seven-ar" format="2">
  <advance width="584"/>
  <unicode hex="0667"/>
  <outline>
    <contour>
      <point x="258" y="-4" type="curve"/>
      <point x="336" y="0" type="line"/>
      <point x="403" y="222"/>
      <point x="489" y="475"/>
      <point x="563" y="660" type="curve"/>
      <point x="489" y="684" type="line"/>
      <point x="419" y="500"/>
      <point x="332" y="250"/>
      <point x="285" y="49" type="curve"/>
      <point x="312" y="50" type="line"/>
      <point x="267" y="254"/>
      <point x="170" y="504"/>
      <point x="96" y="683" type="curve"/>
      <point x="21" y="657" type="line"/>
      <point x="100" y="469"/>
      <point x="198" y="218"/>
    </contour>
  </outline>
</glyph>
<glyph name="nine-ar" format="2">
  <advance width="543"/>
  <unicode hex="0669"/>
  <outline>
    <contour>
      <point x="413" y="-3" type="curve"/>
      <point x="492" y="10" type="line"/>
      <point x="476" y="131"/>
      <point x="459" y="253"/>
      <point x="443" y="400" type="curve" smooth="yes"/>
      <point x="424" y="582"/>
      <point x="369" y="686"/>
      <point x="236" y="686" type="curve" smooth="yes"/>
      <point x="120" y="686"/>
      <point x="27" y="584"/>
      <point x="27" y="449" type="curve" smooth="yes"/>
      <point x="27" y="333"/>
      <point x="98" y="273"/>
      <point x="231" y="274" type="curve" smooth="yes"/>
      <point x="289" y="274"/>
      <point x="348" y="284"/>
      <point x="395" y="300" type="curve"/>
      <point x="385" y="377" type="line"/>
      <point x="342" y="364"/>
      <point x="296" y="354"/>
      <point x="241" y="354" type="curve" smooth="yes"/>
      <point x="146" y="354"/>
      <point x="107" y="391"/>
      <point x="107" y="461" type="curve" smooth="yes"/>
      <point x="107" y="536"/>
      <point x="154" y="605"/>
      <point x="231" y="605" type="curve" smooth="yes"/>
      <point x="314" y="605"/>
      <point x="349" y="535"/>
      <point x="363" y="394" type="curve" smooth="yes"/>
      <point x="378" y="247"/>
      <point x="395" y="110"/>
    </contour>
  </outline>
</glyph>
<glyph name="percent-ar" format="2">
  <advance width="521"/>
  <unicode hex="066A"/>
  <outline>
    <contour>
      <point x="115" y="-21" type="line"/>
      <point x="469" y="663" type="line"/>
      <point x="403" y="694" type="line"/>
      <point x="49" y="9" type="line"/>
    </contour>
    <contour>
      <point x="424" y="-15" type="curve"/>
      <point x="488" y="49" type="line"/>
      <point x="469" y="74"/>
      <point x="442" y="101"/>
      <point x="414" y="123" type="curve"/>
      <point x="351" y="55" type="line"/>
      <point x="380" y="31"/>
      <point x="395" y="14"/>
    </contour>
    <contour>
      <point x="113" y="553" type="curve"/>
      <point x="177" y="617" type="line"/>
      <point x="158" y="641"/>
      <point x="131" y="668"/>
      <point x="103" y="691" type="curve"/>
      <point x="40" y="623" type="line"/>
      <point x="69" y="599"/>
      <point x="85" y="582"/>
    </contour>
  </outline>
</glyph>
<glyph name="thousandseparator-ar" format="2">
  <advance width="256"/>
  <unicode hex="066C"/>
  <outline>
    <contour>
      <point x="126" y="0" type="curve" smooth="yes"/>
      <point x="157" y="0"/>
      <point x="178" y="19"/>
      <point x="178" y="46" type="curve" smooth="yes"/>
      <point x="178" y="64"/>
      <point x="168" y="75"/>
      <point x="154" y="87" type="curve" smooth="yes"/>
      <point x="140" y="99"/>
      <point x="131" y="109"/>
      <point x="131" y="125" type="curve" smooth="yes"/>
      <point x="131" y="157"/>
      <point x="148" y="194"/>
      <point x="197" y="249" type="curve"/>
      <point x="158" y="278" type="line"/>
      <point x="98" y="223"/>
      <point x="61" y="157"/>
      <point x="61" y="87" type="curve" smooth="yes"/>
      <point x="61" y="32"/>
      <point x="88" y="0"/>
    </contour>
  </outline>
</glyph>
<glyph name="asterisk-ar" format="2">
  <advance width="514"/>
  <unicode hex="066D"/>
  <outline>
    <contour>
      <point x="100" y="-1" type="line"/>
      <point x="257" y="126" type="line"/>
      <point x="415" y="-1" type="line"/>
      <point x="420" y="3" type="line"/>
      <point x="335" y="189" type="line"/>
      <point x="498" y="279" type="line"/>
      <point x="496" y="287" type="line"/>
      <point x="308" y="275" type="line"/>
      <point x="261" y="458" type="line"/>
      <point x="254" y="458" type="line"/>
      <point x="205" y="274" type="line"/>
      <point x="18" y="287" type="line"/>
      <point x="16" y="279" type="line"/>
      <point x="178" y="188" type="line"/>
      <point x="94" y="3" type="line"/>
    </contour>
  </outline>
</glyph>
<glyph name="dotlessbeh-ar" format="2">
  <advance width="973"/>
  <unicode hex="066E"/>
  <anchor x="480" y="-111" name="bottom"/>
  <anchor x="480" y="-32" name="bottom.dot"/>
  <anchor x="482" y="475" name="top"/>
  <anchor x="482" y="305" name="top.dot"/>
  <outline>
    <contour>
      <point x="413" y="-15" type="line"/>
      <point x="780" y="-15"/>
      <point x="915" y="58"/>
      <point x="915" y="209" type="curve" smooth="yes"/>
      <point x="915" y="272"/>
      <point x="899" y="338"/>
      <point x="875" y="406" type="curve"/>
      <point x="802" y="383" type="line"/>
      <point x="825" y="314"/>
      <point x="836" y="263"/>
      <point x="836" y="213" type="curve" smooth="yes"/>
      <point x="836" y="116"/>
      <point x="717" y="71"/>
      <point x="439" y="71" type="curve"/>
    </contour>
    <component base="_part.beh.fina" xOffset="-4"/>
  </outline>
</glyph>
<glyph name="dotlessqaf-ar" format="2">
  <advance width="797"/>
  <unicode hex="066F"/>
  <anchor x="379" y="-298" name="bottom"/>
  <anchor x="379" y="-244" name="bottom.dot"/>
  <anchor x="379" y="543" name="top"/>
  <anchor x="547" y="393" name="top.dot"/>
  <outline>
    <contour>
      <point x="374" y="-262" type="curve" smooth="yes"/>
      <point x="641" y="-262"/>
      <point x="751" y="-149"/>
      <point x="751" y="71" type="curve" smooth="yes"/>
      <point x="751" y="271"/>
      <point x="681" y="391"/>
      <point x="552" y="391" type="curve" smooth="yes"/>
      <point x="443" y="391"/>
      <point x="364" y="290"/>
      <point x="364" y="165" type="curve" smooth="yes"/>
      <point x="364" y="56"/>
      <point x="422" y="3"/>
      <point x="547" y="3" type="curve" smooth="yes"/>
      <point x="603" y="3"/>
      <point x="675" y="20"/>
      <point x="712" y="42" type="curve"/>
      <point x="713" y="114" type="line"/>
      <point x="664" y="92"/>
      <point x="616" y="79"/>
      <point x="564" y="79" type="curve" smooth="yes"/>
      <point x="469" y="79"/>
      <point x="434" y="109"/>
      <point x="434" y="176" type="curve" smooth="yes"/>
      <point x="434" y="250"/>
      <point x="481" y="312"/>
      <point x="548" y="312" type="curve" smooth="yes"/>
      <point x="632" y="312"/>
      <point x="683" y="235"/>
      <point x="683" y="63" type="curve" smooth="yes"/>
      <point x="683" y="-99"/>
      <point x="601" y="-176"/>
      <point x="386" y="-176" type="curve" smooth="yes"/>
      <point x="202" y="-176"/>
      <point x="125" y="-103"/>
      <point x="125" y="20" type="curve" smooth="yes"/>
      <point x="125" y="86"/>
      <point x="135" y="136"/>
      <point x="152" y="194" type="curve"/>
      <point x="89" y="208" type="line"/>
      <point x="63" y="147"/>
      <point x="48" y="72"/>
      <point x="48" y="-1" type="curve" smooth="yes"/>
      <point x="48" y="-158"/>
      <point x="150" y="-262"/>
    </contour>
  </outline>
</glyph>
<glyph name="dotlessfeh-ar" format="2">
  <advance width="1001"/>
  <unicode hex="06A1"/>
  <anchor x="478" y="-111" name="bottom"/>
  <anchor x="733" y="-20" name="bottom.dot"/>
  <anchor x="354" y="591" name="top"/>
  <anchor x="736" y="558" name="top.dot"/>
  <outline>
    <contour>
      <point x="427" y="-15" type="line"/>
      <point x="630" y="-15"/>
      <point x="793" y="2"/>
      <point x="857" y="46" type="curve" smooth="yes"/>
      <point x="922" y="89"/>
      <point x="943" y="147"/>
      <point x="943" y="255" type="curve" smooth="yes"/>
      <point x="943" y="424"/>
      <point x="874" y="547"/>
      <point x="741" y="547" type="curve" smooth="yes"/>
      <point x="629" y="547"/>
      <point x="554" y="454"/>
      <point x="554" y="345" type="curve" smooth="yes"/>
      <point x="554" y="243"/>
      <point x="616" y="187"/>
      <point x="729" y="187" type="curve" smooth="yes"/>
      <point x="795" y="187"/>
      <point x="860" y="202"/>
      <point x="901" y="224" type="curve"/>
      <point x="896" y="289" type="line"/>
      <point x="851" y="270"/>
      <point x="793" y="258"/>
      <point x="740" y="258" type="curve" smooth="yes"/>
      <point x="659" y="258"/>
      <point x="623" y="284"/>
      <point x="623" y="352" type="curve" smooth="yes"/>
      <point x="623" y="416"/>
      <point x="665" y="471"/>
      <point x="737" y="471" type="curve" smooth="yes"/>
      <point x="828" y="471"/>
      <point x="873" y="385"/>
      <point x="873" y="255" type="curve" smooth="yes"/>
      <point x="873" y="172"/>
      <point x="865" y="146"/>
      <point x="830" y="118" type="curve" smooth="yes"/>
      <point x="784" y="81"/>
      <point x="613" y="71"/>
      <point x="439" y="71" type="curve"/>
    </contour>
    <component base="_part.beh.fina" xOffset="-4"/>
  </outline>
</glyph>
<glyph name="keheh-ar" format="2">
  <advance width="902"/>
  <unicode hex="06A9"/>
  <anchor x="422" y="-111" name="bottom"/>
  <anchor x="422" y="-20" name="bottom.dot"/>
  <anchor x="780" y="555" name="center"/>
  <anchor x="289" y="570" name="top"/>
  <anchor x="552" y="576" name="top.dot"/>
  <outline>
    <contour>
      <point x="423" y="-15" type="line"/>
      <point x="700" y="-15"/>
      <point x="801" y="37"/>
      <point x="801" y="164" type="curve" smooth="yes"/>
      <point x="801" y="278"/>
      <point x="716" y="350"/>
      <point x="491" y="485" type="curve"/>
      <point x="475" y="445" type="line"/>
      <point x="882" y="638" type="line"/>
      <point x="881" y="724" type="line"/>
      <point x="442" y="506" type="line"/>
      <point x="428" y="431" type="line"/>
      <point x="653" y="299"/>
      <point x="721" y="233"/>
      <point x="721" y="165" type="curve" smooth="yes"/>
      <point x="721" y="102"/>
      <point x="664" y="71"/>
      <point x="433" y="71" type="curve"/>
    </contour>
    <component base="_part.beh.fina" xOffset="-4"/>
  </outline>
</glyph>
<glyph name="kafswash-ar" format="2">
  <advance width="1116"/>
  <unicode hex="06AA"/>
  <anchor x="550" y="-111" name="bottom"/>
  <anchor x="366" y="607" name="top"/>
  <outline>
    <contour>
      <point x="423" y="-15" type="line"/>
      <point x="501" y="-15"/>
      <point x="665" y="-15"/>
      <point x="745" y="-14" type="curve" smooth="yes"/>
      <point x="969" y="-13"/>
      <point x="1079" y="40"/>
      <point x="1079" y="165" type="curve" smooth="yes"/>
      <point x="1079" y="252"/>
      <point x="1023" y="302"/>
      <point x="870" y="302" type="curve" smooth="yes"/>
      <point x="529" y="302" type="line" smooth="yes"/>
      <point x="446" y="302"/>
      <point x="408" y="314"/>
      <point x="408" y="347" type="curve" smooth="yes"/>
      <point x="408" y="402"/>
      <point x="516" y="465"/>
      <point x="731" y="535" type="curve"/>
      <point x="727" y="615" type="line"/>
      <point x="484" y="538"/>
      <point x="327" y="440"/>
      <point x="327" y="335" type="curve" smooth="yes"/>
      <point x="327" y="258"/>
      <point x="388" y="226"/>
      <point x="532" y="226" type="curve" smooth="yes"/>
      <point x="885" y="226" type="line" smooth="yes"/>
      <point x="977" y="226"/>
      <point x="1002" y="204"/>
      <point x="1002" y="161" type="curve" smooth="yes"/>
      <point x="1002" y="96"/>
      <point x="941" y="74"/>
      <point x="809" y="73" type="curve" smooth="yes"/>
      <point x="709" y="71"/>
      <point x="531" y="71"/>
      <point x="433" y="71" type="curve"/>
    </contour>
    <component base="_part.beh.fina" xOffset="-4"/>
  </outline>
</glyph>
<glyph name="noonghunna-ar" format="2">
  <advance width="692"/>
  <unicode hex="06BA"/>
  <anchor x="331" y="-280" name="bottom"/>
  <anchor x="332" y="-232" name="bottom.dot"/>
  <anchor x="351" y="268" name="top.dot"/>
  <outline>
    <contour>
      <point x="322" y="-237" type="curve" smooth="yes"/>
      <point x="535" y="-237"/>
      <point x="644" y="-128"/>
      <point x="644" y="74" type="curve" smooth="yes"/>
      <point x="644" y="156"/>
      <point x="629" y="217"/>
      <point x="610" y="288" type="curve"/>
      <point x="538" y="270" type="line"/>
      <point x="556" y="194"/>
      <point x="569" y="132"/>
      <point x="569" y="70" type="curve" smooth="yes"/>
      <point x="569" y="-72"/>
      <point x="498" y="-151"/>
      <point x="331" y="-151" type="curve" smooth="yes"/>
      <point x="192" y="-151"/>
      <point x="125" y="-91"/>
      <point x="125" y="28" type="curve" smooth="yes"/>
      <point x="125" y="92"/>
      <point x="135" y="140"/>
      <point x="152" y="198" type="curve"/>
      <point x="89" y="213" type="line"/>
      <point x="62" y="147"/>
      <point x="48" y="80"/>
      <point x="48" y="12" type="curve" smooth="yes"/>
      <point x="48" y="-146"/>
      <point x="144" y="-237"/>
    </contour>
  </outline>
</glyph>
<glyph name="hehDoachashmee-ar" format="2">
  <advance width="793"/>
  <unicode hex="06BE"/>
  <anchor x="395" y="-112" name="bottom"/>
  <anchor x="395" y="635" name="top"/>
  <anchor x="395" y="580" name="top.dot"/>
  <outline>
    <contour>
      <point x="149" y="-7" type="curve" smooth="yes"/>
      <point x="227" y="-7"/>
      <point x="314" y="9"/>
      <point x="387" y="49" type="curve" smooth="yes"/>
      <point x="475" y="96"/>
      <point x="536" y="172"/>
      <point x="536" y="270" type="curve" smooth="yes"/>
      <point x="536" y="395"/>
      <point x="451" y="465"/>
      <point x="365" y="465" type="curve" smooth="yes"/>
      <point x="267" y="465"/>
      <point x="192" y="379"/>
      <point x="192" y="276" type="curve" smooth="yes"/>
      <point x="192" y="106"/>
      <point x="374" y="-7"/>
      <point x="548" y="-7" type="curve" smooth="yes"/>
      <point x="677" y="-7"/>
      <point x="747" y="54"/>
      <point x="747" y="159" type="curve" smooth="yes"/>
      <point x="747" y="294"/>
      <point x="615" y="417"/>
      <point x="276" y="543" type="curve"/>
      <point x="256" y="473" type="line"/>
      <point x="574" y="350"/>
      <point x="677" y="255"/>
      <point x="677" y="164" type="curve" smooth="yes"/>
      <point x="677" y="100"/>
      <point x="626" y="74"/>
      <point x="555" y="74" type="curve" smooth="yes"/>
      <point x="407" y="74"/>
      <point x="256" y="150"/>
      <point x="256" y="281" type="curve" smooth="yes"/>
      <point x="256" y="345"/>
      <point x="298" y="402"/>
      <point x="367" y="402" type="curve" smooth="yes"/>
      <point x="428" y="402"/>
      <point x="476" y="350"/>
      <point x="476" y="274" type="curve" smooth="yes"/>
      <point x="476" y="186"/>
      <point x="407" y="133"/>
      <point x="337" y="108" type="curve" smooth="yes"/>
      <point x="282" y="87"/>
      <point x="216" y="79"/>
      <point x="154" y="79" type="curve" smooth="yes"/>
      <point x="123" y="79"/>
      <point x="81" y="82"/>
      <point x="38" y="89" type="curve"/>
      <point x="30" y="9" type="line"/>
      <point x="69" y="-2"/>
      <point x="107" y="-7"/>
    </contour>
  </outline>
</glyph>
<glyph name="yehTail-ar" format="2">
  <advance width="952"/>
  <unicode hex="06CD"/>
  <anchor x="492" y="-273" name="bottom"/>
  <anchor x="492" y="-208" name="bottom.dot"/>
  <anchor x="413" y="392" name="top"/>
  <anchor x="261" y="185" name="top.dot"/>
  <outline>
    <contour>
      <point x="482" y="-237" type="curve" smooth="yes"/>
      <point x="733" y="-237"/>
      <point x="881" y="-100"/>
      <point x="881" y="23" type="curve" smooth="yes"/>
      <point x="881" y="99"/>
      <point x="831" y="122"/>
      <point x="706" y="150" type="curve" smooth="yes"/>
      <point x="613" y="171"/>
      <point x="576" y="187"/>
      <point x="576" y="232" type="curve" smooth="yes"/>
      <point x="576" y="299"/>
      <point x="654" y="378"/>
      <point x="770" y="378" type="curve" smooth="yes"/>
      <point x="814" y="378"/>
      <point x="854" y="367"/>
      <point x="892" y="348" type="curve"/>
      <point x="911" y="427" type="line"/>
      <point x="879" y="448"/>
      <point x="831" y="463"/>
      <point x="775" y="463" type="curve" smooth="yes"/>
      <point x="621" y="463"/>
      <point x="502" y="341"/>
      <point x="502" y="218" type="curve" smooth="yes"/>
      <point x="502" y="139"/>
      <point x="552" y="100"/>
      <point x="673" y="73" type="curve" smooth="yes"/>
      <point x="772" y="52"/>
      <point x="799" y="40"/>
      <point x="799" y="5" type="curve" smooth="yes"/>
      <point x="799" y="-66"/>
      <point x="682" y="-151"/>
      <point x="496" y="-151" type="curve" smooth="yes"/>
      <point x="341" y="-151"/>
      <point x="265" y="-101"/>
      <point x="265" y="16" type="curve" smooth="yes"/>
      <point x="265" y="68"/>
      <point x="276" y="127"/>
      <point x="298" y="191" type="curve"/>
      <point x="247" y="217" type="line"/>
      <point x="26" y="149" type="line"/>
      <point x="40" y="76" type="line"/>
      <point x="230" y="136" type="line"/>
      <point x="216" y="155" type="line"/>
      <point x="196" y="97"/>
      <point x="189" y="43"/>
      <point x="189" y="-1" type="curve" smooth="yes"/>
      <point x="189" y="-165"/>
      <point x="300" y="-237"/>
    </contour>
  </outline>
</glyph>
<glyph name="yehbarree-ar" format="2">
  <advance width="950"/>
  <unicode hex="06D2"/>
  <anchor x="419" y="-93" name="bottom"/>
  <anchor x="426" y="579" name="top"/>
  <anchor x="425" y="515" name="top_1"/>
  <outline>
    <contour>
      <point x="479" y="-21" type="curve" smooth="yes"/>
      <point x="660" y="-21"/>
      <point x="811" y="-3"/>
      <point x="898" y="16" type="curve"/>
      <point x="904" y="99" type="line"/>
      <point x="819" y="84"/>
      <point x="679" y="65"/>
      <point x="483" y="65" type="curve" smooth="yes"/>
      <point x="205" y="65"/>
      <point x="132" y="95"/>
      <point x="132" y="147" type="curve" smooth="yes"/>
      <point x="132" y="187"/>
      <point x="208" y="218"/>
      <point x="273" y="279" type="curve" smooth="yes"/>
      <point x="334" y="336"/>
      <point x="369" y="391"/>
      <point x="422" y="391" type="curve" smooth="yes"/>
      <point x="475" y="391"/>
      <point x="495" y="347"/>
      <point x="531" y="247" type="curve"/>
      <point x="600" y="271" type="line"/>
      <point x="560" y="404"/>
      <point x="514" y="477"/>
      <point x="427" y="477" type="curve" smooth="yes"/>
      <point x="337" y="477"/>
      <point x="294" y="402"/>
      <point x="213" y="326" type="curve" smooth="yes"/>
      <point x="141" y="258"/>
      <point x="43" y="219"/>
      <point x="43" y="128" type="curve" smooth="yes"/>
      <point x="43" y="21"/>
      <point x="173" y="-21"/>
    </contour>
  </outline>
</glyph>
<glyph name="fullstop-ar" format="2">
  <advance width="315"/>
  <unicode hex="06D4"/>
  <outline>
    <contour>
      <point x="31" y="0" type="line"/>
      <point x="277" y="0" type="line"/>
      <point x="283" y="52" type="line"/>
      <point x="37" y="52" type="line"/>
    </contour>
  </outline>
</glyph>
<glyph name="lamAlefabove-ar" format="2">
  <unicode hex="06D9"/>
  <guideline x="117" y="601" angle="0"/>
  <guideline x="175" y="829" angle="0"/>
  <anchor x="104" y="458" name="_top"/>
  <anchor x="98" y="821" name="top"/>
  <outline>
    <contour>
      <point x="20" y="601" type="line"/>
      <point x="142" y="591"/>
      <point x="189" y="612"/>
      <point x="187" y="681" type="curve" smooth="yes"/>
      <point x="182" y="829" type="line"/>
      <point x="132" y="829" type="line"/>
      <point x="136" y="680" type="line" smooth="yes"/>
      <point x="137" y="655"/>
      <point x="116" y="645"/>
      <point x="20" y="651" type="curve"/>
    </contour>
    <contour>
      <point x="67" y="670" type="line"/>
      <point x="115" y="687" type="line"/>
      <point x="71" y="812" type="line"/>
      <point x="22" y="796" type="line"/>
    </contour>
  </outline>
</glyph>
<glyph name="threedotsabove-ar" format="2">
  <unicode hex="06DB"/>
  <anchor x="120" y="432" name="_top.dot"/>
  <anchor x="120" y="708" name="top"/>
  <outline>
    <contour>
      <point x="60" y="497" type="curve"/>
      <point x="104" y="541" type="line"/>
      <point x="85" y="562"/>
      <point x="75" y="571"/>
      <point x="56" y="586" type="curve"/>
      <point x="12" y="541" type="line"/>
      <point x="33" y="523"/>
      <point x="44" y="513"/>
    </contour>
    <contour>
      <point x="187" y="497" type="curve"/>
      <point x="231" y="541" type="line"/>
      <point x="212" y="562"/>
      <point x="202" y="571"/>
      <point x="183" y="586" type="curve"/>
      <point x="139" y="541" type="line"/>
      <point x="160" y="523"/>
      <point x="171" y="513"/>
    </contour>
    <contour>
      <point x="123" y="605" type="curve"/>
      <point x="165" y="647" type="line"/>
      <point x="147" y="668"/>
      <point x="137" y="677"/>
      <point x="119" y="691" type="curve"/>
      <point x="77" y="647" type="line"/>
      <point x="98" y="629"/>
      <point x="107" y="620"/>
    </contour>
  </outline>
</glyph>
<glyph name="seenabove-ar" format="2">
  <unicode hex="06DC"/>
  <anchor x="245" y="468" name="_top"/>
  <anchor x="243" y="732" name="top"/>
  <outline>
    <contour>
      <point x="128" y="493" type="curve" smooth="yes"/>
      <point x="197" y="493"/>
      <point x="252" y="528"/>
      <point x="245" y="612" type="curve"/>
      <point x="231" y="609" type="line"/>
      <point x="240" y="579"/>
      <point x="263" y="571"/>
      <point x="287" y="571" type="curve" smooth="yes"/>
      <point x="313" y="571"/>
      <point x="340" y="580"/>
      <point x="346" y="618" type="curve"/>
      <point x="334" y="617" type="line"/>
      <point x="340" y="581"/>
      <point x="365" y="571"/>
      <point x="390" y="571" type="curve" smooth="yes"/>
      <point x="439" y="571"/>
      <point x="460" y="601"/>
      <point x="460" y="646" type="curve" smooth="yes"/>
      <point x="460" y="669"/>
      <point x="456" y="695"/>
      <point x="445" y="723" type="curve"/>
      <point x="413" y="714" type="line"/>
      <point x="421" y="688"/>
      <point x="424" y="670"/>
      <point x="424" y="650" type="curve" smooth="yes"/>
      <point x="424" y="622"/>
      <point x="412" y="611"/>
      <point x="388" y="611" type="curve" smooth="yes"/>
      <point x="369" y="611"/>
      <point x="360" y="619"/>
      <point x="357" y="639" type="curve" smooth="yes"/>
      <point x="355" y="654"/>
      <point x="355" y="671"/>
      <point x="354" y="698" type="curve"/>
      <point x="322" y="696" type="line"/>
      <point x="322" y="670"/>
      <point x="322" y="649"/>
      <point x="319" y="636" type="curve" smooth="yes"/>
      <point x="315" y="618"/>
      <point x="305" y="611"/>
      <point x="284" y="611" type="curve" smooth="yes"/>
      <point x="264" y="611"/>
      <point x="254" y="618"/>
      <point x="248" y="633" type="curve" smooth="yes"/>
      <point x="243" y="647"/>
      <point x="241" y="663"/>
      <point x="235" y="691" type="curve"/>
      <point x="201" y="683" type="line"/>
      <point x="207" y="655"/>
      <point x="211" y="629"/>
      <point x="211" y="603" type="curve" smooth="yes"/>
      <point x="211" y="553"/>
      <point x="184" y="533"/>
      <point x="132" y="533" type="curve" smooth="yes"/>
      <point x="87" y="533"/>
      <point x="67" y="551"/>
      <point x="67" y="586" type="curve" smooth="yes"/>
      <point x="67" y="608"/>
      <point x="71" y="625"/>
      <point x="78" y="648" type="curve"/>
      <point x="46" y="655" type="line"/>
      <point x="34" y="627"/>
      <point x="30" y="602"/>
      <point x="30" y="578" type="curve" smooth="yes"/>
      <point x="30" y="520"/>
      <point x="69" y="493"/>
    </contour>
  </outline>
</glyph>
<glyph name="endofayah-ar" format="2">
  <advance width="1394"/>
  <unicode hex="06DD"/>
  <outline>
    <contour>
      <point x="236" y="-103" type="curve"/>
      <point x="258" y="-70" type="line"/>
      <point x="187" y="25"/>
      <point x="149" y="141"/>
      <point x="149" y="255" type="curve" smooth="yes"/>
      <point x="149" y="370"/>
      <point x="185" y="491"/>
      <point x="259" y="587" type="curve"/>
      <point x="236" y="618" type="line"/>
      <point x="154" y="512"/>
      <point x="112" y="385"/>
      <point x="112" y="257" type="curve" smooth="yes"/>
      <point x="112" y="130"/>
      <point x="154" y="3"/>
    </contour>
    <contour>
      <point x="313" y="556" type="curve" smooth="yes"/>
      <point x="363" y="556"/>
      <point x="405" y="597"/>
      <point x="405" y="648" type="curve" smooth="yes"/>
      <point x="405" y="698"/>
      <point x="364" y="740"/>
      <point x="313" y="740" type="curve" smooth="yes"/>
      <point x="263" y="740"/>
      <point x="221" y="698"/>
      <point x="221" y="648" type="curve" smooth="yes"/>
      <point x="221" y="596"/>
      <point x="264" y="556"/>
    </contour>
    <contour>
      <point x="313" y="584" type="curve" smooth="yes"/>
      <point x="275" y="584"/>
      <point x="250" y="614"/>
      <point x="250" y="648" type="curve" smooth="yes"/>
      <point x="250" y="683"/>
      <point x="278" y="711"/>
      <point x="312" y="711" type="curve" smooth="yes"/>
      <point x="348" y="711"/>
      <point x="376" y="682"/>
      <point x="376" y="648" type="curve" smooth="yes"/>
      <point x="376" y="612"/>
      <point x="347" y="584"/>
    </contour>
    <contour>
      <point x="1023" y="700" type="curve"/>
      <point x="1054" y="721" type="line"/>
      <point x="949" y="802"/>
      <point x="823" y="842"/>
      <point x="697" y="842" type="curve" smooth="yes"/>
      <point x="573" y="842"/>
      <point x="450" y="804"/>
      <point x="347" y="726" type="curve"/>
      <point x="376" y="703" type="line"/>
      <point x="470" y="772"/>
      <point x="585" y="806"/>
      <point x="698" y="806" type="curve" smooth="yes"/>
      <point x="813" y="806"/>
      <point x="928" y="771"/>
    </contour>
    <contour>
      <point x="1089" y="555" type="curve" smooth="yes"/>
      <point x="1138" y="555"/>
      <point x="1181" y="595"/>
      <point x="1181" y="647" type="curve" smooth="yes"/>
      <point x="1181" y="697"/>
      <point x="1140" y="739"/>
      <point x="1089" y="739" type="curve" smooth="yes"/>
      <point x="1039" y="739"/>
      <point x="997" y="697"/>
      <point x="997" y="647" type="curve" smooth="yes"/>
      <point x="997" y="597"/>
      <point x="1039" y="555"/>
    </contour>
    <contour>
      <point x="1089" y="584" type="curve" smooth="yes"/>
      <point x="1054" y="584"/>
      <point x="1026" y="611"/>
      <point x="1026" y="647" type="curve" smooth="yes"/>
      <point x="1026" y="681"/>
      <point x="1053" y="711"/>
      <point x="1089" y="711" type="curve" smooth="yes"/>
      <point x="1123" y="711"/>
      <point x="1152" y="683"/>
      <point x="1152" y="647" type="curve" smooth="yes"/>
      <point x="1152" y="613"/>
      <point x="1126" y="584"/>
    </contour>
    <contour>
      <point x="1160" y="-102" type="line"/>
      <point x="1242" y="3"/>
      <point x="1282" y="130"/>
      <point x="1282" y="257" type="curve" smooth="yes"/>
      <point x="1282" y="385"/>
      <point x="1241" y="512"/>
      <point x="1159" y="617" type="curve"/>
      <point x="1137" y="585" type="line"/>
      <point x="1210" y="490"/>
      <point x="1246" y="369"/>
      <point x="1246" y="255" type="curve" smooth="yes"/>
      <point x="1246" y="141"/>
      <point x="1210" y="26"/>
      <point x="1140" y="-68" type="curve"/>
    </contour>
    <contour>
      <point x="1095" y="-227" type="curve" smooth="yes"/>
      <point x="1145" y="-227"/>
      <point x="1187" y="-186"/>
      <point x="1187" y="-135" type="curve" smooth="yes"/>
      <point x="1187" y="-84"/>
      <point x="1145" y="-43"/>
      <point x="1095" y="-43" type="curve" smooth="yes"/>
      <point x="1045" y="-43"/>
      <point x="1003" y="-85"/>
      <point x="1003" y="-135" type="curve" smooth="yes"/>
      <point x="1003" y="-185"/>
      <point x="1044" y="-227"/>
    </contour>
    <contour>
      <point x="1095" y="-198" type="curve" smooth="yes"/>
      <point x="1057" y="-198"/>
      <point x="1032" y="-169"/>
      <point x="1032" y="-135" type="curve" smooth="yes"/>
      <point x="1032" y="-99"/>
      <point x="1060" y="-72"/>
      <point x="1094" y="-72" type="curve" smooth="yes"/>
      <point x="1130" y="-72"/>
      <point x="1158" y="-100"/>
      <point x="1158" y="-135" type="curve" smooth="yes"/>
      <point x="1158" y="-171"/>
      <point x="1129" y="-198"/>
    </contour>
    <contour>
      <point x="702" y="-329" type="curve" smooth="yes"/>
      <point x="828" y="-329"/>
      <point x="954" y="-289"/>
      <point x="1059" y="-208" type="curve"/>
      <point x="1028" y="-186" type="line"/>
      <point x="933" y="-257"/>
      <point x="818" y="-293"/>
      <point x="704" y="-293" type="curve" smooth="yes"/>
      <point x="583" y="-293"/>
      <point x="470" y="-255"/>
      <point x="376" y="-185" type="curve"/>
      <point x="352" y="-212" type="line"/>
      <point x="455" y="-290"/>
      <point x="578" y="-329"/>
    </contour>
    <contour>
      <point x="307" y="-227" type="curve" smooth="yes"/>
      <point x="358" y="-227"/>
      <point x="400" y="-185"/>
      <point x="400" y="-135" type="curve" smooth="yes"/>
      <point x="400" y="-85"/>
      <point x="358" y="-43"/>
      <point x="308" y="-43" type="curve" smooth="yes"/>
      <point x="259" y="-43"/>
      <point x="216" y="-84"/>
      <point x="216" y="-135" type="curve" smooth="yes"/>
      <point x="216" y="-186"/>
      <point x="257" y="-227"/>
    </contour>
    <contour>
      <point x="307" y="-198" type="curve" smooth="yes"/>
      <point x="272" y="-198"/>
      <point x="245" y="-171"/>
      <point x="245" y="-135" type="curve" smooth="yes"/>
      <point x="245" y="-100"/>
      <point x="272" y="-72"/>
      <point x="308" y="-72" type="curve" smooth="yes"/>
      <point x="342" y="-72"/>
      <point x="371" y="-99"/>
      <point x="371" y="-135" type="curve" smooth="yes"/>
      <point x="371" y="-169"/>
      <point x="344" y="-198"/>
    </contour>
    <contour>
      <point x="390" y="-153" type="line"/>
      <point x="1021" y="-153" type="line"/>
      <point x="1021" y="-118" type="line"/>
      <point x="390" y="-118" type="line"/>
    </contour>
    <contour>
      <point x="390" y="630" type="line"/>
      <point x="1021" y="630" type="line"/>
      <point x="1021" y="665" type="line"/>
      <point x="390" y="665" type="line"/>
    </contour>
  </outline>
</glyph>
<glyph name="asteriskArt-ar" format="2">
  <advance width="999"/>
  <unicode hex="06DE"/>
  <outline>
    <contour>
      <point x="501" y="-200" type="line"/>
      <point x="961" y="260" type="line"/>
      <point x="499" y="722" type="line"/>
      <point x="39" y="262" type="line"/>
    </contour>
    <contour>
      <point x="501" y="-155" type="line"/>
      <point x="83" y="263" type="line"/>
      <point x="499" y="678" type="line"/>
      <point x="916" y="262" type="line"/>
    </contour>
    <contour>
      <point x="174" y="-64" type="line"/>
      <point x="827" y="-64" type="line"/>
      <point x="827" y="587" type="line"/>
      <point x="174" y="587" type="line"/>
    </contour>
    <contour>
      <point x="205" y="-32" type="line"/>
      <point x="205" y="556" type="line"/>
      <point x="795" y="556" type="line"/>
      <point x="795" y="-32" type="line"/>
    </contour>
    <contour>
      <point x="500" y="175" type="curve" smooth="yes"/>
      <point x="548" y="175"/>
      <point x="588" y="215"/>
      <point x="588" y="264" type="curve" smooth="yes"/>
      <point x="588" y="312"/>
      <point x="548" y="352"/>
      <point x="500" y="352" type="curve" smooth="yes"/>
      <point x="452" y="352"/>
      <point x="412" y="312"/>
      <point x="412" y="264" type="curve" smooth="yes"/>
      <point x="412" y="215"/>
      <point x="452" y="175"/>
    </contour>
    <contour>
      <point x="500" y="203" type="curve" smooth="yes"/>
      <point x="466" y="203"/>
      <point x="440" y="231"/>
      <point x="440" y="264" type="curve" smooth="yes"/>
      <point x="440" y="297"/>
      <point x="466" y="324"/>
      <point x="500" y="324" type="curve" smooth="yes"/>
      <point x="534" y="324"/>
      <point x="560" y="297"/>
      <point x="560" y="264" type="curve" smooth="yes"/>
      <point x="560" y="231"/>
      <point x="534" y="203"/>
    </contour>
  </outline>
</glyph>
<glyph name="sukunoval-ar" format="2">
  <unicode hex="06E0"/>
  <anchor x="116" y="472" name="_top"/>
  <anchor x="116" y="745" name="top"/>
  <outline>
    <contour>
      <point x="115" y="495" type="curve" smooth="yes"/>
      <point x="167" y="495"/>
      <point x="201" y="530"/>
      <point x="201" y="614" type="curve" smooth="yes"/>
      <point x="201" y="693"/>
      <point x="171" y="727"/>
      <point x="118" y="727" type="curve" smooth="yes"/>
      <point x="65" y="727"/>
      <point x="30" y="686"/>
      <point x="30" y="609" type="curve" smooth="yes"/>
      <point x="30" y="531"/>
      <point x="62" y="495"/>
    </contour>
    <contour>
      <point x="114" y="526" type="curve" smooth="yes"/>
      <point x="86" y="526"/>
      <point x="70" y="545"/>
      <point x="70" y="612" type="curve" smooth="yes"/>
      <point x="70" y="672"/>
      <point x="86" y="695"/>
      <point x="117" y="695" type="curve" smooth="yes"/>
      <point x="146" y="695"/>
      <point x="160" y="673"/>
      <point x="160" y="614" type="curve" smooth="yes"/>
      <point x="160" y="548"/>
      <point x="143" y="526"/>
    </contour>
  </outline>
</glyph>
<glyph name="hahabove-ar" format="2">
  <unicode hex="06E1"/>
  <anchor x="128" y="461" name="_top"/>
  <anchor x="138" y="704" name="top"/>
  <outline>
    <contour>
      <point x="47" y="507" type="line"/>
      <point x="150" y="507"/>
      <point x="207" y="551"/>
      <point x="235" y="603" type="curve"/>
      <point x="234" y="637" type="line"/>
      <point x="202" y="662"/>
      <point x="171" y="679"/>
      <point x="130" y="679" type="curve" smooth="yes"/>
      <point x="95" y="679"/>
      <point x="66" y="666"/>
      <point x="41" y="647" type="curve"/>
      <point x="54" y="615" type="line"/>
      <point x="77" y="630"/>
      <point x="97" y="639"/>
      <point x="127" y="639" type="curve" smooth="yes"/>
      <point x="160" y="639"/>
      <point x="186" y="624"/>
      <point x="211" y="604" type="curve"/>
      <point x="213" y="630" type="line"/>
      <point x="192" y="581"/>
      <point x="134" y="543"/>
      <point x="40" y="542" type="curve"/>
    </contour>
  </outline>
</glyph>
<glyph name="meemStopabove-ar" format="2">
  <unicode hex="06E2"/>
  <anchor x="107" y="432" name="_top.dot"/>
  <anchor x="111" y="756" name="top"/>
  <outline>
    <contour>
      <point x="37" y="492" type="curve"/>
      <point x="72" y="494" type="line"/>
      <point x="70" y="525"/>
      <point x="69" y="535"/>
      <point x="69" y="557" type="curve" smooth="yes"/>
      <point x="69" y="591"/>
      <point x="79" y="604"/>
      <point x="122" y="604" type="curve" smooth="yes"/>
      <point x="146" y="604"/>
      <point x="166" y="600"/>
      <point x="188" y="597" type="curve"/>
      <point x="199" y="630" type="line"/>
      <point x="181" y="697"/>
      <point x="155" y="734"/>
      <point x="113" y="734" type="curve" smooth="yes"/>
      <point x="84" y="734"/>
      <point x="61" y="716"/>
      <point x="47" y="678" type="curve"/>
      <point x="75" y="665" type="line"/>
      <point x="85" y="688"/>
      <point x="96" y="696"/>
      <point x="110" y="696" type="curve" smooth="yes"/>
      <point x="132" y="696"/>
      <point x="147" y="677"/>
      <point x="165" y="624" type="curve"/>
      <point x="180" y="634" type="line"/>
      <point x="162" y="636"/>
      <point x="138" y="640"/>
      <point x="115" y="640" type="curve" smooth="yes"/>
      <point x="56" y="640"/>
      <point x="33" y="613"/>
      <point x="33" y="563" type="curve" smooth="yes"/>
      <point x="33" y="537"/>
      <point x="34" y="525"/>
    </contour>
  </outline>
</glyph>
<glyph name="maddalong-ar" format="2">
  <unicode hex="06E4"/>
  <anchor x="194" y="445" name="_top"/>
  <anchor x="201" y="617" name="top"/>
  <outline>
    <contour>
      <point x="275" y="510" type="curve" smooth="yes"/>
      <point x="311" y="510"/>
      <point x="349" y="524"/>
      <point x="380" y="560" type="curve"/>
      <point x="358" y="599" type="line"/>
      <point x="331" y="576"/>
      <point x="306" y="562"/>
      <point x="278" y="562" type="curve" smooth="yes"/>
      <point x="203" y="562"/>
      <point x="170" y="616"/>
      <point x="104" y="616" type="curve" smooth="yes"/>
      <point x="65" y="616"/>
      <point x="32" y="594"/>
      <point x="2" y="555" type="curve"/>
      <point x="30" y="521" type="line"/>
      <point x="54" y="547"/>
      <point x="75" y="564"/>
      <point x="103" y="564" type="curve" smooth="yes"/>
      <point x="150" y="564"/>
      <point x="192" y="510"/>
    </contour>
  </outline>
</glyph>
<glyph name="yehabove-ar" format="2">
  <unicode hex="06E7"/>
  <anchor x="171" y="461" name="_top"/>
  <anchor x="178" y="710" name="top"/>
  <outline>
    <contour>
      <point x="172" y="500" type="curve" smooth="yes"/>
      <point x="233" y="500"/>
      <point x="290" y="509"/>
      <point x="323" y="516" type="curve"/>
      <point x="323" y="555" type="line"/>
      <point x="290" y="548"/>
      <point x="228" y="540"/>
      <point x="172" y="540" type="curve" smooth="yes"/>
      <point x="99" y="540"/>
      <point x="68" y="543"/>
      <point x="68" y="562" type="curve" smooth="yes"/>
      <point x="68" y="578"/>
      <point x="85" y="581"/>
      <point x="108" y="605" type="curve" smooth="yes"/>
      <point x="131" y="629"/>
      <point x="140" y="646"/>
      <point x="158" y="646" type="curve" smooth="yes"/>
      <point x="178" y="646"/>
      <point x="182" y="635"/>
      <point x="198" y="599" type="curve"/>
      <point x="231" y="616" type="line"/>
      <point x="214" y="661"/>
      <point x="196" y="688"/>
      <point x="163" y="688" type="curve" smooth="yes"/>
      <point x="132" y="688"/>
      <point x="111" y="661"/>
      <point x="83" y="631" type="curve" smooth="yes"/>
      <point x="58" y="603"/>
      <point x="25" y="588"/>
      <point x="25" y="558" type="curve" smooth="yes"/>
      <point x="25" y="511"/>
      <point x="74" y="500"/>
    </contour>
  </outline>
</glyph>
<glyph name="noonabove-ar" format="2">
  <unicode hex="06E8"/>
  <anchor x="127" y="432" name="_top.dot"/>
  <anchor x="127" y="774" name="top"/>
  <outline>
    <contour>
      <point x="123" y="496" type="curve" smooth="yes"/>
      <point x="201" y="496"/>
      <point x="239" y="539"/>
      <point x="239" y="606" type="curve" smooth="yes"/>
      <point x="239" y="638"/>
      <point x="232" y="664"/>
      <point x="223" y="687" type="curve"/>
      <point x="186" y="676" type="line"/>
      <point x="194" y="651"/>
      <point x="199" y="629"/>
      <point x="199" y="602" type="curve" smooth="yes"/>
      <point x="199" y="560"/>
      <point x="173" y="536"/>
      <point x="126" y="536" type="curve" smooth="yes"/>
      <point x="80" y="536"/>
      <point x="61" y="557"/>
      <point x="61" y="594" type="curve" smooth="yes"/>
      <point x="61" y="614"/>
      <point x="65" y="630"/>
      <point x="70" y="649" type="curve"/>
      <point x="35" y="658" type="line"/>
      <point x="27" y="638"/>
      <point x="22" y="615"/>
      <point x="22" y="589" type="curve" smooth="yes"/>
      <point x="22" y="530"/>
      <point x="57" y="496"/>
    </contour>
    <contour>
      <point x="129" y="697" type="curve"/>
      <point x="158" y="727" type="line"/>
      <point x="146" y="738"/>
      <point x="140" y="746"/>
      <point x="127" y="756" type="curve"/>
      <point x="98" y="726" type="line"/>
      <point x="110" y="714"/>
      <point x="117" y="708"/>
    </contour>
  </outline>
</glyph>
<glyph name="sajdah-ar" format="2">
  <advance width="565"/>
  <unicode hex="06E9"/>
  <outline>
    <contour>
      <point x="57" y="0" type="line"/>
      <point x="508" y="0" type="line"/>
      <point x="507" y="51" type="line"/>
      <point x="463" y="75"/>
      <point x="451" y="99"/>
      <point x="451" y="177" type="curve" smooth="yes"/>
      <point x="450" y="366" type="line"/>
      <point x="500" y="394"/>
      <point x="525" y="424"/>
      <point x="525" y="479" type="curve" smooth="yes"/>
      <point x="525" y="574"/>
      <point x="399" y="620"/>
      <point x="282" y="699" type="curve"/>
      <point x="170" y="623"/>
      <point x="40" y="572"/>
      <point x="40" y="478" type="curve" smooth="yes"/>
      <point x="40" y="423"/>
      <point x="66" y="393"/>
      <point x="116" y="365" type="curve"/>
      <point x="115" y="177" type="line" smooth="yes"/>
      <point x="115" y="99"/>
      <point x="102" y="73"/>
      <point x="58" y="49" type="curve"/>
    </contour>
    <contour>
      <point x="110" y="40" type="line"/>
      <point x="146" y="70"/>
      <point x="155" y="108"/>
      <point x="155" y="182" type="curve" smooth="yes"/>
      <point x="156" y="390" type="line"/>
      <point x="114" y="412"/>
      <point x="87" y="435"/>
      <point x="87" y="476" type="curve" smooth="yes"/>
      <point x="87" y="547"/>
      <point x="180" y="578"/>
      <point x="281" y="651" type="curve"/>
      <point x="383" y="578"/>
      <point x="479" y="544"/>
      <point x="479" y="477" type="curve" smooth="yes"/>
      <point x="479" y="434"/>
      <point x="451" y="412"/>
      <point x="409" y="391" type="curve"/>
      <point x="410" y="182" type="line" smooth="yes"/>
      <point x="410" y="101"/>
      <point x="418" y="68"/>
      <point x="454" y="40" type="curve"/>
    </contour>
  </outline>
</glyph>
<glyph name="rhombusStopabove-ar" format="2">
  <unicode hex="06EB"/>
  <anchor x="125" y="468" name="_top"/>
  <anchor x="124" y="718" name="top"/>
  <outline>
    <contour>
      <point x="123" y="495" type="line"/>
      <point x="226" y="596" type="line"/>
      <point x="124" y="697" type="line"/>
      <point x="22" y="594" type="line"/>
    </contour>
    <contour>
      <point x="123" y="541" type="line"/>
      <point x="69" y="594" type="line"/>
      <point x="124" y="650" type="line"/>
      <point x="179" y="596" type="line"/>
    </contour>
  </outline>
</glyph>
<glyph name="four-persian" format="2">
  <advance width="588"/>
  <unicode hex="06F4"/>
  <outline>
    <contour>
      <point x="151" y="-6" type="curve"/>
      <point x="230" y="-2" type="line"/>
      <point x="223" y="151"/>
      <point x="199" y="348"/>
      <point x="163" y="506" type="curve"/>
      <point x="130" y="486" type="line"/>
      <point x="161" y="379"/>
      <point x="242" y="340"/>
      <point x="376" y="340" type="curve" smooth="yes"/>
      <point x="455" y="340"/>
      <point x="507" y="351"/>
      <point x="559" y="369" type="curve"/>
      <point x="551" y="432" type="line"/>
      <point x="516" y="422"/>
      <point x="487" y="416"/>
      <point x="453" y="416" type="curve" smooth="yes"/>
      <point x="388" y="416"/>
      <point x="348" y="455"/>
      <point x="348" y="517" type="curve" smooth="yes"/>
      <point x="348" y="574"/>
      <point x="384" y="613"/>
      <point x="453" y="613" type="curve" smooth="yes"/>
      <point x="479" y="613"/>
      <point x="503" y="609"/>
      <point x="526" y="603" type="curve"/>
      <point x="531" y="667" type="line"/>
      <point x="508" y="675"/>
      <point x="482" y="681"/>
      <point x="441" y="681" type="curve" smooth="yes"/>
      <point x="340" y="681"/>
      <point x="277" y="615"/>
      <point x="277" y="528" type="curve" smooth="yes"/>
      <point x="277" y="444"/>
      <point x="319" y="392"/>
      <point x="387" y="381" type="curve"/>
      <point x="400" y="408" type="line"/>
      <point x="372" y="405"/>
      <point x="372" y="405"/>
      <point x="345" y="406" type="curve" smooth="yes"/>
      <point x="251" y="411"/>
      <point x="192" y="439"/>
      <point x="166" y="524" type="curve" smooth="yes"/>
      <point x="154" y="565"/>
      <point x="142" y="608"/>
      <point x="125" y="675" type="curve"/>
      <point x="45" y="654" type="line"/>
      <point x="103" y="440"/>
      <point x="136" y="205"/>
    </contour>
  </outline>
</glyph>
<glyph name="five-persian" format="2">
  <advance width="599"/>
  <unicode hex="06F5"/>
  <outline>
    <contour>
      <point x="186" y="-7" type="curve" smooth="yes"/>
      <point x="264" y="-7"/>
      <point x="299" y="51"/>
      <point x="300" y="94" type="curve"/>
      <point x="287" y="92" type="line"/>
      <point x="287" y="43"/>
      <point x="336" y="-7"/>
      <point x="405" y="-7" type="curve" smooth="yes"/>
      <point x="501" y="-7"/>
      <point x="547" y="68"/>
      <point x="547" y="172" type="curve" smooth="yes"/>
      <point x="547" y="337"/>
      <point x="435" y="493"/>
      <point x="258" y="655" type="curve"/>
      <point x="206" y="597" type="line"/>
      <point x="375" y="438"/>
      <point x="468" y="310"/>
      <point x="469" y="177" type="curve" smooth="yes"/>
      <point x="470" y="106"/>
      <point x="442" y="71"/>
      <point x="398" y="71" type="curve" smooth="yes"/>
      <point x="357" y="71"/>
      <point x="324" y="93"/>
      <point x="325" y="189" type="curve"/>
      <point x="268" y="187" type="line"/>
      <point x="269" y="100"/>
      <point x="243" y="71"/>
      <point x="203" y="71" type="curve" smooth="yes"/>
      <point x="159" y="71"/>
      <point x="129" y="96"/>
      <point x="129" y="175" type="curve" smooth="yes"/>
      <point x="129" y="310"/>
      <point x="236" y="443"/>
      <point x="329" y="538" type="curve"/>
      <point x="280" y="588" type="line"/>
      <point x="182" y="486"/>
      <point x="52" y="335"/>
      <point x="52" y="168" type="curve" smooth="yes"/>
      <point x="52" y="51"/>
      <point x="101" y="-7"/>
    </contour>
  </outline>
</glyph>
<glyph name="six-persian" format="2">
  <advance width="492"/>
  <unicode hex="06F6"/>
  <outline>
    <contour>
      <point x="110" y="-7" type="line"/>
      <point x="199" y="135"/>
      <point x="328" y="261"/>
      <point x="470" y="341" type="curve"/>
      <point x="440" y="410" type="line"/>
      <point x="384" y="382"/>
      <point x="338" y="366"/>
      <point x="284" y="366" type="curve" smooth="yes"/>
      <point x="194" y="366"/>
      <point x="149" y="410"/>
      <point x="149" y="481" type="curve" smooth="yes"/>
      <point x="149" y="556"/>
      <point x="207" y="603"/>
      <point x="293" y="603" type="curve" smooth="yes"/>
      <point x="335" y="603"/>
      <point x="361" y="598"/>
      <point x="396" y="589" type="curve"/>
      <point x="402" y="660" type="line"/>
      <point x="368" y="672"/>
      <point x="333" y="680"/>
      <point x="288" y="680" type="curve" smooth="yes"/>
      <point x="160" y="680"/>
      <point x="72" y="595"/>
      <point x="72" y="481" type="curve" smooth="yes"/>
      <point x="72" y="375"/>
      <point x="142" y="294"/>
      <point x="258" y="294" type="curve" smooth="yes"/>
      <point x="300" y="294"/>
      <point x="335" y="307"/>
      <point x="368" y="323" type="curve"/>
      <point x="349" y="361" type="line"/>
      <point x="248" y="295"/>
      <point x="126" y="172"/>
      <point x="49" y="38" type="curve"/>
    </contour>
  </outline>
</glyph>
<glyph name="rehLoop-ar" format="2">
  <advance width="634"/>
  <unicode hex="08AA"/>
  <anchor x="299" y="-350" name="bottom"/>
  <anchor x="419" y="493" name="top"/>
  <outline>
    <contour>
      <point x="288" y="-358" type="line"/>
      <point x="310" y="-256"/>
      <point x="326" y="-184"/>
      <point x="326" y="-78" type="curve" smooth="yes"/>
      <point x="326" y="35"/>
      <point x="282" y="112"/>
      <point x="196" y="112" type="curve" smooth="yes"/>
      <point x="113" y="112"/>
      <point x="57" y="36"/>
      <point x="57" y="-75" type="curve" smooth="yes"/>
      <point x="57" y="-194"/>
      <point x="133" y="-262"/>
      <point x="261" y="-262" type="curve" smooth="yes"/>
      <point x="449" y="-262"/>
      <point x="563" y="-153"/>
      <point x="563" y="47" type="curve" smooth="yes"/>
      <point x="563" y="149"/>
      <point x="523" y="252"/>
      <point x="464" y="342" type="curve"/>
      <point x="396" y="298" type="line"/>
      <point x="452" y="209"/>
      <point x="485" y="122"/>
      <point x="485" y="41" type="curve" smooth="yes"/>
      <point x="485" y="-105"/>
      <point x="405" y="-186"/>
      <point x="259" y="-186" type="curve" smooth="yes"/>
      <point x="157" y="-186"/>
      <point x="123" y="-136"/>
      <point x="123" y="-71" type="curve"/>
      <point x="123" y="-71" type="line"/>
      <point x="123" y="0"/>
      <point x="153" y="39"/>
      <point x="191" y="39" type="curve" smooth="yes"/>
      <point x="243" y="39"/>
      <point x="259" y="-10"/>
      <point x="259" y="-96" type="curve" smooth="yes"/>
      <point x="259" y="-183"/>
      <point x="245" y="-247"/>
      <point x="227" y="-348" type="curve"/>
    </contour>
  </outline>
</glyph>
<glyph name="aleflow-ar" format="2">
  <advance width="281"/>
  <unicode hex="08AD"/>
  <anchor x="141" y="-274" name="bottom"/>
  <anchor x="132" y="225" name="top"/>
  <outline>
    <contour>
      <point x="111" y="-211" type="curve"/>
      <point x="188" y="-211" type="line"/>
      <point x="194" y="-86"/>
      <point x="189" y="37"/>
      <point x="171" y="164" type="curve"/>
      <point x="90" y="155" type="line"/>
      <point x="109" y="29"/>
      <point x="116" y="-86"/>
    </contour>
  </outline>
</glyph>
<glyph name="wawStraight-ar" format="2">
  <advance width="519"/>
  <unicode hex="08B1"/>
  <outline>
    <contour>
      <point x="400" y="-259" type="line"/>
      <point x="427" y="-166"/>
      <point x="445" y="-59"/>
      <point x="445" y="67" type="curve" smooth="yes"/>
      <point x="445" y="250"/>
      <point x="375" y="383"/>
      <point x="244" y="383" type="curve" smooth="yes"/>
      <point x="134" y="383"/>
      <point x="58" y="280"/>
      <point x="58" y="155" type="curve" smooth="yes"/>
      <point x="58" y="46"/>
      <point x="120" y="-7"/>
      <point x="256" y="-7" type="curve" smooth="yes"/>
      <point x="518" y="-7" type="line" smooth="yes"/>
      <point x="549" y="-7"/>
      <point x="566" y="13"/>
      <point x="566" y="36" type="curve" smooth="yes"/>
      <point x="566" y="58"/>
      <point x="554" y="80"/>
      <point x="524" y="79" type="curve" smooth="yes"/>
      <point x="413" y="78" type="line"/>
      <point x="361" y="74"/>
      <point x="310" y="72"/>
      <point x="263" y="72" type="curve" smooth="yes"/>
      <point x="171" y="72"/>
      <point x="128" y="99"/>
      <point x="128" y="168" type="curve" smooth="yes"/>
      <point x="128" y="242"/>
      <point x="172" y="304"/>
      <point x="240" y="304" type="curve" smooth="yes"/>
      <point x="323" y="304"/>
      <point x="376" y="224"/>
      <point x="376" y="66" type="curve" smooth="yes"/>
      <point x="376" y="-39"/>
      <point x="353" y="-129"/>
      <point x="316" y="-244" type="curve"/>
    </contour>
  </outline>
</glyph>
<glyph name="fathaCurly-ar" format="2">
  <unicode hex="08E4"/>
  <anchor x="154" y="468" name="_top"/>
  <anchor x="155" y="681" name="top"/>
  <outline>
    <contour>
      <point x="47" y="484" type="curve"/>
      <point x="81" y="495" type="line"/>
      <point x="76" y="508"/>
      <point x="72" y="519"/>
      <point x="72" y="530" type="curve" smooth="yes"/>
      <point x="72" y="545"/>
      <point x="79" y="553"/>
      <point x="100" y="561" type="curve" smooth="yes"/>
      <point x="131" y="572"/>
      <point x="195" y="586"/>
      <point x="232" y="600" type="curve" smooth="yes"/>
      <point x="261" y="610"/>
      <point x="274" y="628"/>
      <point x="274" y="657" type="curve" smooth="yes"/>
      <point x="274" y="683"/>
      <point x="266" y="707"/>
      <point x="259" y="720" type="curve"/>
      <point x="222" y="709" type="line"/>
      <point x="228" y="693"/>
      <point x="232" y="682"/>
      <point x="232" y="668" type="curve" smooth="yes"/>
      <point x="232" y="652"/>
      <point x="226" y="645"/>
      <point x="210" y="639" type="curve" smooth="yes"/>
      <point x="180" y="628"/>
      <point x="117" y="613"/>
      <point x="80" y="601" type="curve" smooth="yes"/>
      <point x="43" y="588"/>
      <point x="30" y="566"/>
      <point x="30" y="540" type="curve" smooth="yes"/>
      <point x="30" y="522"/>
      <point x="35" y="504"/>
    </contour>
  </outline>
</glyph>
<glyph name="dammaCurly-ar" format="2">
  <unicode hex="08E5"/>
  <anchor x="176" y="464" name="_top"/>
  <anchor x="185" y="761" name="top"/>
  <outline>
    <contour>
      <point x="91" y="489" type="line"/>
      <point x="209" y="507"/>
      <point x="314" y="556"/>
      <point x="314" y="648" type="curve" smooth="yes"/>
      <point x="314" y="699"/>
      <point x="284" y="736"/>
      <point x="232" y="736" type="curve" smooth="yes"/>
      <point x="182" y="736"/>
      <point x="146" y="700"/>
      <point x="146" y="652" type="curve" smooth="yes"/>
      <point x="146" y="609"/>
      <point x="173" y="574"/>
      <point x="217" y="556" type="curve"/>
      <point x="247" y="582" type="line"/>
      <point x="211" y="594"/>
      <point x="188" y="620"/>
      <point x="188" y="649" type="curve" smooth="yes"/>
      <point x="188" y="677"/>
      <point x="205" y="696"/>
      <point x="231" y="696" type="curve" smooth="yes"/>
      <point x="257" y="696"/>
      <point x="273" y="677"/>
      <point x="273" y="647" type="curve" smooth="yes"/>
      <point x="273" y="582"/>
      <point x="187" y="544"/>
      <point x="84" y="529" type="curve"/>
      <point x="100" y="520" type="line"/>
      <point x="87" y="554"/>
      <point x="77" y="588"/>
      <point x="67" y="621" type="curve"/>
      <point x="30" y="609" type="line"/>
      <point x="39" y="575"/>
      <point x="50" y="539"/>
      <point x="63" y="507" type="curve"/>
    </contour>
  </outline>
</glyph>
<glyph name="toneloopabove-ar" format="2">
  <unicode hex="08EC"/>
  <anchor x="143" y="468" name="_top"/>
  <anchor x="144" y="688" name="top"/>
  <outline>
    <contour>
      <point x="115" y="501" type="curve" smooth="yes"/>
      <point x="178" y="501"/>
      <point x="227" y="555"/>
      <point x="282" y="643" type="curve"/>
      <point x="253" y="661" type="line"/>
      <point x="204" y="583"/>
      <point x="164" y="538"/>
      <point x="119" y="538" type="curve" smooth="yes"/>
      <point x="83" y="538"/>
      <point x="67" y="555"/>
      <point x="67" y="581" type="curve" smooth="yes"/>
      <point x="67" y="605"/>
      <point x="81" y="622"/>
      <point x="110" y="622" type="curve" smooth="yes"/>
      <point x="152" y="622"/>
      <point x="191" y="595"/>
      <point x="269" y="526" type="curve"/>
      <point x="291" y="553" type="line"/>
      <point x="210" y="629"/>
      <point x="159" y="659"/>
      <point x="111" y="659" type="curve" smooth="yes"/>
      <point x="60" y="659"/>
      <point x="30" y="624"/>
      <point x="30" y="581" type="curve" smooth="yes"/>
      <point x="30" y="526"/>
      <point x="66" y="501"/>
    </contour>
  </outline>
</glyph>
<glyph name="highwaw-ar" format="2">
  <unicode hex="08F3"/>
  <anchor x="104" y="468" name="_top"/>
  <anchor x="112" y="762" name="top"/>
  <outline>
    <contour>
      <point x="72" y="504" type="curve" smooth="yes"/>
      <point x="147" y="504"/>
      <point x="188" y="546"/>
      <point x="188" y="628" type="curve" smooth="yes"/>
      <point x="188" y="704"/>
      <point x="155" y="739"/>
      <point x="111" y="739" type="curve" smooth="yes"/>
      <point x="69" y="739"/>
      <point x="38" y="703"/>
      <point x="38" y="657" type="curve" smooth="yes"/>
      <point x="38" y="611"/>
      <point x="65" y="595"/>
      <point x="108" y="595" type="curve" smooth="yes"/>
      <point x="131" y="595"/>
      <point x="152" y="600"/>
      <point x="168" y="608" type="curve"/>
      <point x="166" y="638" type="line"/>
      <point x="149" y="632"/>
      <point x="133" y="628"/>
      <point x="112" y="628" type="curve" smooth="yes"/>
      <point x="85" y="628"/>
      <point x="72" y="636"/>
      <point x="72" y="659" type="curve" smooth="yes"/>
      <point x="72" y="686"/>
      <point x="87" y="704"/>
      <point x="110" y="704" type="curve" smooth="yes"/>
      <point x="137" y="704"/>
      <point x="154" y="682"/>
      <point x="154" y="623" type="curve" smooth="yes"/>
      <point x="154" y="562"/>
      <point x="125" y="539"/>
      <point x="70" y="539" type="curve" smooth="yes"/>
      <point x="55" y="539"/>
      <point x="42" y="541"/>
      <point x="30" y="542" type="curve"/>
      <point x="32" y="509" type="line"/>
      <point x="43" y="506"/>
      <point x="57" y="504"/>
    </contour>
  </outline>
</glyph>
<glyph name="fathaRing-ar" format="2">
  <unicode hex="08F4"/>
  <anchor x="124" y="464" name="_top"/>
  <anchor x="125" y="685" name="top"/>
  <outline>
    <contour>
      <point x="126" y="498" type="curve" smooth="yes"/>
      <point x="174" y="498"/>
      <point x="208" y="526"/>
      <point x="208" y="578" type="curve" smooth="yes"/>
      <point x="208" y="636"/>
      <point x="171" y="668"/>
      <point x="129" y="668" type="curve" smooth="yes"/>
      <point x="80" y="668"/>
      <point x="43" y="626"/>
      <point x="43" y="575" type="curve" smooth="yes"/>
      <point x="43" y="527"/>
      <point x="74" y="498"/>
    </contour>
    <contour>
      <point x="125" y="535" type="curve" smooth="yes"/>
      <point x="97" y="535"/>
      <point x="81" y="551"/>
      <point x="81" y="577" type="curve" smooth="yes"/>
      <point x="81" y="605"/>
      <point x="99" y="630"/>
      <point x="126" y="630" type="curve" smooth="yes"/>
      <point x="151" y="630"/>
      <point x="170" y="610"/>
      <point x="170" y="579" type="curve" smooth="yes"/>
      <point x="170" y="551"/>
      <point x="153" y="535"/>
    </contour>
    <contour>
      <point x="6" y="533" type="line"/>
      <point x="245" y="604" type="line"/>
      <point x="245" y="635" type="line"/>
      <point x="6" y="563" type="line"/>
    </contour>
  </outline>
</glyph>
<glyph name="leftarrowheadabove-ar" format="2">
  <unicode hex="08F7"/>
  <anchor x="117" y="467" name="_top"/>
  <anchor x="120" y="687" name="top"/>
  <outline>
    <contour>
      <point x="185" y="489" type="curve"/>
      <point x="200" y="523" type="line"/>
      <point x="154" y="545"/>
      <point x="96" y="573"/>
      <point x="48" y="591" type="curve"/>
      <point x="50" y="569" type="line"/>
      <point x="92" y="589"/>
      <point x="150" y="621"/>
      <point x="197" y="646" type="curve"/>
      <point x="180" y="679" type="line"/>
      <point x="132" y="652"/>
      <point x="75" y="622"/>
      <point x="30" y="600" type="curve"/>
      <point x="33" y="559" type="line"/>
      <point x="81" y="540"/>
      <point x="140" y="511"/>
    </contour>
  </outline>
</glyph>
<glyph name="marksidewaysnoonghunna-ar" format="2">
  <unicode hex="08FF"/>
  <anchor x="91" y="467" name="_top"/>
  <anchor x="95" y="749" name="top"/>
  <outline>
    <contour>
      <point x="48" y="494" type="line"/>
      <point x="125" y="510"/>
      <point x="169" y="570"/>
      <point x="169" y="632" type="curve" smooth="yes"/>
      <point x="169" y="691"/>
      <point x="139" y="723"/>
      <point x="96" y="723" type="curve" smooth="yes"/>
      <point x="55" y="723"/>
      <point x="32" y="693"/>
      <point x="32" y="662" type="curve" smooth="yes"/>
      <point x="32" y="633"/>
      <point x="52" y="609"/>
      <point x="90" y="609" type="curve" smooth="yes"/>
      <point x="109" y="609"/>
      <point x="129" y="615"/>
      <point x="148" y="647" type="curve"/>
      <point x="118" y="652" type="line"/>
      <point x="120" y="593"/>
      <point x="106" y="562"/>
      <point x="30" y="534" type="curve"/>
    </contour>
  </outline>
</glyph>
<glyph name="zerowidthjoiner" format="2">
  <unicode hex="200D"/>
  <outline>
    <contour>
      <point x="93" y="532" type="line"/>
      <point x="114" y="553" type="line"/>
      <point x="-77" y="744" type="line"/>
      <point x="-98" y="723" type="line"/>
    </contour>
    <contour>
      <point x="-12" y="-28" type="line"/>
      <point x="16" y="-28" type="line"/>
      <point x="16" y="639" type="line"/>
      <point x="-12" y="639" type="line"/>
    </contour>
    <contour>
      <point x="-89" y="536" type="line"/>
      <point x="102" y="727" type="line"/>
      <point x="81" y="748" type="line"/>
      <point x="-110" y="557" type="line"/>
    </contour>
  </outline>
</glyph>
<glyph name="lefttorightmark" format="2">
  <unicode hex="200E"/>
  <outline>
    <contour>
      <point x="-16" y="-28" type="line"/>
      <point x="12" y="-28" type="line"/>
      <point x="12" y="606" type="line"/>
      <point x="162" y="606" type="line"/>
      <point x="85" y="533" type="line"/>
      <point x="105" y="513" type="line"/>
      <point x="215" y="620" type="line"/>
      <point x="106" y="729" type="line"/>
      <point x="86" y="708" type="line"/>
      <point x="162" y="635" type="line"/>
      <point x="-16" y="635" type="line"/>
    </contour>
  </outline>
</glyph>
<glyph name="righttoleftmark" format="2">
  <unicode hex="200F"/>
  <outline>
    <contour>
      <point x="-13" y="-28" type="line"/>
      <point x="15" y="-28" type="line"/>
      <point x="15" y="635" type="line"/>
      <point x="-163" y="635" type="line"/>
      <point x="-87" y="708" type="line"/>
      <point x="-107" y="729" type="line"/>
      <point x="-216" y="620" type="line"/>
      <point x="-106" y="513" type="line"/>
      <point x="-86" y="533" type="line"/>
      <point x="-163" y="606" type="line"/>
      <point x="-13" y="606" type="line"/>
    </contour>
  </outline>
</glyph>
<glyph name="nonbreakinghyphen" format="2">
  <advance width="320"/>
  <unicode hex="2011"/>
  <outline>
    <contour>
      <point x="33" y="233" type="line"/>
      <point x="288" y="233" type="line"/>
      <point x="288" y="307" type="line"/>
      <point x="33" y="307" type="line"/>
    </contour>
  </outline>
</glyph>
<glyph name="dottedCircle" format="2">
  <advance width="639"/>
  <unicode hex="25CC"/>
  <anchor x="319" y="-34" name="bottom"/>
  <anchor x="314" y="628" name="top"/>
  <outline>
    <contour>
      <point x="510" y="465" type="curve" smooth="yes"/>
      <point x="522" y="465"/>
      <point x="532" y="475"/>
      <point x="532" y="487" type="curve" smooth="yes"/>
      <point x="532" y="499"/>
      <point x="522" y="508"/>
      <point x="510" y="508" type="curve" smooth="yes"/>
      <point x="499" y="508"/>
      <point x="489" y="499"/>
      <point x="489" y="487" type="curve" smooth="yes"/>
      <point x="489" y="475"/>
      <point x="499" y="465"/>
    </contour>
    <contour>
      <point x="129" y="91" type="curve" smooth="yes"/>
      <point x="140" y="91"/>
      <point x="150" y="100"/>
      <point x="150" y="112" type="curve" smooth="yes"/>
      <point x="150" y="124"/>
      <point x="140" y="134"/>
      <point x="129" y="134" type="curve" smooth="yes"/>
      <point x="117" y="134"/>
      <point x="107" y="124"/>
      <point x="107" y="112" type="curve" smooth="yes"/>
      <point x="107" y="100"/>
      <point x="117" y="91"/>
    </contour>
    <contour>
      <point x="213" y="32" type="curve" smooth="yes"/>
      <point x="224" y="32"/>
      <point x="234" y="41"/>
      <point x="234" y="53" type="curve" smooth="yes"/>
      <point x="234" y="65"/>
      <point x="224" y="75"/>
      <point x="213" y="75" type="curve" smooth="yes"/>
      <point x="201" y="75"/>
      <point x="191" y="65"/>
      <point x="191" y="53" type="curve" smooth="yes"/>
      <point x="191" y="41"/>
      <point x="201" y="32"/>
    </contour>
    <contour>
      <point x="72" y="177" type="curve" smooth="yes"/>
      <point x="83" y="177"/>
      <point x="93" y="186"/>
      <point x="93" y="198" type="curve" smooth="yes"/>
      <point x="93" y="210"/>
      <point x="83" y="220"/>
      <point x="72" y="220" type="curve" smooth="yes"/>
      <point x="60" y="220"/>
      <point x="50" y="210"/>
      <point x="50" y="198" type="curve" smooth="yes"/>
      <point x="50" y="186"/>
      <point x="60" y="177"/>
    </contour>
    <contour>
      <point x="319" y="9" type="curve" smooth="yes"/>
      <point x="331" y="9"/>
      <point x="341" y="18"/>
      <point x="341" y="30" type="curve" smooth="yes"/>
      <point x="341" y="42"/>
      <point x="331" y="52"/>
      <point x="319" y="52" type="curve" smooth="yes"/>
      <point x="308" y="52"/>
      <point x="298" y="42"/>
      <point x="298" y="30" type="curve" smooth="yes"/>
      <point x="298" y="18"/>
      <point x="308" y="9"/>
    </contour>
    <contour>
      <point x="52" y="278" type="curve" smooth="yes"/>
      <point x="63" y="278"/>
      <point x="73" y="287"/>
      <point x="73" y="299" type="curve" smooth="yes"/>
      <point x="73" y="311"/>
      <point x="63" y="321"/>
      <point x="52" y="321" type="curve" smooth="yes"/>
      <point x="40" y="321"/>
      <point x="30" y="311"/>
      <point x="30" y="299" type="curve" smooth="yes"/>
      <point x="30" y="287"/>
      <point x="40" y="278"/>
    </contour>
    <contour>
      <point x="72" y="379" type="curve" smooth="yes"/>
      <point x="83" y="379"/>
      <point x="93" y="389"/>
      <point x="93" y="401" type="curve" smooth="yes"/>
      <point x="93" y="413"/>
      <point x="83" y="422"/>
      <point x="72" y="422" type="curve" smooth="yes"/>
      <point x="60" y="422"/>
      <point x="50" y="413"/>
      <point x="50" y="401" type="curve" smooth="yes"/>
      <point x="50" y="389"/>
      <point x="60" y="379"/>
    </contour>
    <contour>
      <point x="426" y="32" type="curve" smooth="yes"/>
      <point x="438" y="32"/>
      <point x="448" y="41"/>
      <point x="448" y="53" type="curve" smooth="yes"/>
      <point x="448" y="65"/>
      <point x="438" y="75"/>
      <point x="426" y="75" type="curve" smooth="yes"/>
      <point x="415" y="75"/>
      <point x="405" y="65"/>
      <point x="405" y="53" type="curve" smooth="yes"/>
      <point x="405" y="41"/>
      <point x="415" y="32"/>
    </contour>
    <contour>
      <point x="129" y="465" type="curve" smooth="yes"/>
      <point x="140" y="465"/>
      <point x="150" y="475"/>
      <point x="150" y="487" type="curve" smooth="yes"/>
      <point x="150" y="499"/>
      <point x="140" y="508"/>
      <point x="129" y="508" type="curve" smooth="yes"/>
      <point x="117" y="508"/>
      <point x="107" y="499"/>
      <point x="107" y="487" type="curve" smooth="yes"/>
      <point x="107" y="475"/>
      <point x="117" y="465"/>
    </contour>
    <contour>
      <point x="510" y="91" type="curve" smooth="yes"/>
      <point x="522" y="91"/>
      <point x="532" y="100"/>
      <point x="532" y="112" type="curve" smooth="yes"/>
      <point x="532" y="124"/>
      <point x="522" y="134"/>
      <point x="510" y="134" type="curve" smooth="yes"/>
      <point x="499" y="134"/>
      <point x="489" y="124"/>
      <point x="489" y="112" type="curve" smooth="yes"/>
      <point x="489" y="100"/>
      <point x="499" y="91"/>
    </contour>
    <contour>
      <point x="213" y="524" type="curve" smooth="yes"/>
      <point x="224" y="524"/>
      <point x="234" y="534"/>
      <point x="234" y="546" type="curve" smooth="yes"/>
      <point x="234" y="558"/>
      <point x="224" y="567"/>
      <point x="213" y="567" type="curve" smooth="yes"/>
      <point x="201" y="567"/>
      <point x="191" y="558"/>
      <point x="191" y="546" type="curve" smooth="yes"/>
      <point x="191" y="534"/>
      <point x="201" y="524"/>
    </contour>
    <contour>
      <point x="567" y="177" type="curve" smooth="yes"/>
      <point x="579" y="177"/>
      <point x="589" y="186"/>
      <point x="589" y="198" type="curve" smooth="yes"/>
      <point x="589" y="210"/>
      <point x="579" y="220"/>
      <point x="567" y="220" type="curve" smooth="yes"/>
      <point x="556" y="220"/>
      <point x="546" y="210"/>
      <point x="546" y="198" type="curve" smooth="yes"/>
      <point x="546" y="186"/>
      <point x="556" y="177"/>
    </contour>
    <contour>
      <point x="587" y="278" type="curve" smooth="yes"/>
      <point x="599" y="278"/>
      <point x="609" y="288"/>
      <point x="609" y="299" type="curve" smooth="yes"/>
      <point x="609" y="312"/>
      <point x="599" y="321"/>
      <point x="587" y="321" type="curve" smooth="yes"/>
      <point x="576" y="321"/>
      <point x="566" y="312"/>
      <point x="566" y="299" type="curve" smooth="yes"/>
      <point x="566" y="288"/>
      <point x="576" y="278"/>
    </contour>
    <contour>
      <point x="319" y="547" type="curve" smooth="yes"/>
      <point x="331" y="547"/>
      <point x="341" y="557"/>
      <point x="341" y="569" type="curve" smooth="yes"/>
      <point x="341" y="581"/>
      <point x="331" y="590"/>
      <point x="319" y="590" type="curve" smooth="yes"/>
      <point x="308" y="590"/>
      <point x="298" y="581"/>
      <point x="298" y="569" type="curve" smooth="yes"/>
      <point x="298" y="557"/>
      <point x="308" y="547"/>
    </contour>
    <contour>
      <point x="567" y="379" type="curve" smooth="yes"/>
      <point x="579" y="379"/>
      <point x="589" y="389"/>
      <point x="589" y="401" type="curve" smooth="yes"/>
      <point x="589" y="413"/>
      <point x="579" y="422"/>
      <point x="567" y="422" type="curve" smooth="yes"/>
      <point x="556" y="422"/>
      <point x="546" y="413"/>
      <point x="546" y="401" type="curve" smooth="yes"/>
      <point x="546" y="389"/>
      <point x="556" y="379"/>
    </contour>
    <contour>
      <point x="426" y="524" type="curve" smooth="yes"/>
      <point x="438" y="524"/>
      <point x="448" y="534"/>
      <point x="448" y="546" type="curve" smooth="yes"/>
      <point x="448" y="558"/>
      <point x="438" y="567"/>
      <point x="426" y="567" type="curve" smooth="yes"/>
      <point x="415" y="567"/>
      <point x="405" y="558"/>
      <point x="405" y="546" type="curve" smooth="yes"/>
      <point x="405" y="534"/>
      <point x="415" y="524"/>
    </contour>
  </outline>
</glyph>
<glyph name="keheh-ar.fina" format="2">
  <advance width="952"/>
  <unicode hex="FB8F"/>
  <anchor x="402" y="-111" name="bottom"/>
  <anchor x="402" y="-20" name="bottom.dot"/>
  <anchor x="845" y="560" name="center"/>
  <anchor x="328" y="605" name="top"/>
  <anchor x="592" y="576" name="top.dot"/>
  <outline>
    <contour>
      <point x="952" y="-7" type="curve" smooth="yes"/>
      <point x="982" y="-7"/>
      <point x="999" y="13"/>
      <point x="999" y="36" type="curve" smooth="yes"/>
      <point x="999" y="58"/>
      <point x="987" y="79"/>
      <point x="958" y="79" type="curve" smooth="yes"/>
      <point x="876" y="79"/>
      <point x="832" y="119"/>
      <point x="762" y="201" type="curve" smooth="yes"/>
      <point x="516" y="486" type="line"/>
      <point x="504" y="442" type="line"/>
      <point x="915" y="640" type="line"/>
      <point x="914" y="725" type="line"/>
      <point x="475" y="506" type="line"/>
      <point x="460" y="431" type="line"/>
      <point x="544" y="336"/>
      <point x="629" y="234"/>
      <point x="706" y="143" type="curve" smooth="yes"/>
      <point x="782" y="54"/>
      <point x="841" y="-7"/>
    </contour>
    <contour>
      <point x="423" y="-15" type="line"/>
      <point x="615" y="-15"/>
      <point x="693" y="55"/>
      <point x="723" y="171" type="curve"/>
      <point x="671" y="220" type="line"/>
      <point x="645" y="117"/>
      <point x="578" y="71"/>
      <point x="433" y="71" type="curve"/>
    </contour>
    <component base="_part.beh.fina" xOffset="-4"/>
  </outline>
</glyph>
<glyph name="noonghunna-ar.fina" format="2">
  <advance width="760"/>
  <unicode hex="FB9F"/>
  <anchor x="331" y="-280" name="bottom"/>
  <anchor x="332" y="-232" name="bottom.dot"/>
  <anchor x="351" y="270" name="top.dot"/>
  <outline>
    <contour>
      <point x="318" y="-237" type="curve" smooth="yes"/>
      <point x="528" y="-237"/>
      <point x="656" y="-117"/>
      <point x="643" y="99" type="curve"/>
      <point x="609" y="83" type="line"/>
      <point x="627" y="29"/>
      <point x="672" y="-7"/>
      <point x="759" y="-7" type="curve" smooth="yes"/>
      <point x="790" y="-7"/>
      <point x="807" y="13"/>
      <point x="807" y="36" type="curve" smooth="yes"/>
      <point x="807" y="58"/>
      <point x="795" y="79"/>
      <point x="765" y="79" type="curve" smooth="yes"/>
      <point x="705" y="79"/>
      <point x="663" y="95"/>
      <point x="645" y="147" type="curve" smooth="yes"/>
      <point x="632" y="185"/>
      <point x="627" y="214"/>
      <point x="611" y="285" type="curve"/>
      <point x="539" y="268" type="line"/>
      <point x="556" y="188"/>
      <point x="570" y="139"/>
      <point x="570" y="76" type="curve" smooth="yes"/>
      <point x="570" y="-59"/>
      <point x="498" y="-151"/>
      <point x="327" y="-151" type="curve" smooth="yes"/>
      <point x="189" y="-151"/>
      <point x="125" y="-91"/>
      <point x="125" y="28" type="curve" smooth="yes"/>
      <point x="125" y="92"/>
      <point x="135" y="140"/>
      <point x="152" y="198" type="curve"/>
      <point x="89" y="213" type="line"/>
      <point x="62" y="147"/>
      <point x="48" y="80"/>
      <point x="48" y="12" type="curve" smooth="yes"/>
      <point x="48" y="-146"/>
      <point x="140" y="-237"/>
    </contour>
  </outline>
</glyph>
<glyph name="hehgoal-ar.fina" format="2">
  <advance width="618"/>
  <unicode hex="FBA7"/>
  <anchor x="279" y="-111" name="bottom"/>
  <anchor x="281" y="496" name="top"/>
  <anchor x="281" y="364" name="top.dot"/>
  <outline>
    <contour>
      <point x="617" y="-7" type="curve" smooth="yes"/>
      <point x="648" y="-7"/>
      <point x="665" y="13"/>
      <point x="665" y="36" type="curve" smooth="yes"/>
      <point x="665" y="58"/>
      <point x="653" y="79"/>
      <point x="623" y="79" type="curve" smooth="yes"/>
      <point x="558" y="79"/>
      <point x="529" y="122"/>
      <point x="462" y="209" type="curve" smooth="yes"/>
      <point x="396" y="293"/>
      <point x="353" y="330"/>
      <point x="282" y="330" type="curve" smooth="yes"/>
      <point x="191" y="330"/>
      <point x="105" y="251"/>
      <point x="33" y="131" type="curve"/>
      <point x="91" y="88" type="line"/>
      <point x="156" y="184"/>
      <point x="210" y="241"/>
      <point x="274" y="241" type="curve" smooth="yes"/>
      <point x="327" y="241"/>
      <point x="357" y="208"/>
      <point x="413" y="136" type="curve" smooth="yes"/>
      <point x="481" y="48"/>
      <point x="527" y="-7"/>
    </contour>
  </outline>
</glyph>
<glyph name="hehgoal-ar.medi" format="2">
  <advance width="521"/>
  <unicode hex="FBA9"/>
  <anchor x="307" y="-358" name="bottom"/>
  <anchor x="284" y="337" name="top"/>
  <outline>
    <contour>
      <point x="300" y="-307" type="curve"/>
      <point x="358" y="-260" type="line"/>
      <point x="352" y="-235"/>
      <point x="347" y="-199"/>
      <point x="347" y="-163" type="curve" smooth="yes"/>
      <point x="347" y="-56"/>
      <point x="395" y="-7"/>
      <point x="520" y="-7" type="curve" smooth="yes"/>
      <point x="551" y="-7"/>
      <point x="568" y="13"/>
      <point x="568" y="36" type="curve" smooth="yes"/>
      <point x="568" y="58"/>
      <point x="556" y="79"/>
      <point x="526" y="79" type="curve" smooth="yes"/>
      <point x="363" y="79"/>
      <point x="283" y="-1"/>
      <point x="283" y="-148" type="curve" smooth="yes"/>
      <point x="283" y="-185"/>
      <point x="287" y="-212"/>
      <point x="291" y="-241" type="curve"/>
      <point x="311" y="-224" type="line"/>
      <point x="209" y="-177"/>
      <point x="170" y="-97"/>
      <point x="170" y="22" type="curve" smooth="yes"/>
      <point x="170" y="74"/>
      <point x="179" y="137"/>
      <point x="194" y="204" type="curve"/>
      <point x="129" y="219" type="line"/>
      <point x="104" y="107"/>
      <point x="65" y="79"/>
      <point x="2" y="79" type="curve"/>
      <point x="-4" y="-7" type="line"/>
      <point x="74" y="-7"/>
      <point x="111" y="32"/>
      <point x="139" y="82" type="curve"/>
      <point x="111" y="106" type="line"/>
      <point x="104" y="71"/>
      <point x="98" y="41"/>
      <point x="98" y="3" type="curve" smooth="yes"/>
      <point x="98" y="-143"/>
      <point x="167" y="-251"/>
    </contour>
  </outline>
</glyph>
<glyph name="hehDoachashmee-ar.fina" format="2">
  <advance width="653"/>
  <unicode hex="FBAB"/>
  <anchor x="404" y="-309" name="bottom"/>
  <anchor x="404" y="538" name="top"/>
  <anchor x="404" y="474" name="top.dot"/>
  <outline>
    <contour>
      <point x="417" y="-257" type="curve" smooth="yes"/>
      <point x="533" y="-257"/>
      <point x="575" y="-185"/>
      <point x="575" y="-93" type="curve" smooth="yes"/>
      <point x="575" y="-40"/>
      <point x="551" y="15"/>
      <point x="502" y="42" type="curve"/>
      <point x="487" y="14" type="line"/>
      <point x="533" y="-4"/>
      <point x="595" y="-7"/>
      <point x="653" y="-7" type="curve" smooth="yes"/>
      <point x="683" y="-7"/>
      <point x="700" y="13"/>
      <point x="700" y="36" type="curve" smooth="yes"/>
      <point x="700" y="58"/>
      <point x="688" y="79"/>
      <point x="659" y="79" type="curve" smooth="yes"/>
      <point x="561" y="79"/>
      <point x="473" y="85"/>
      <point x="396" y="104" type="curve"/>
      <point x="377" y="36" type="line"/>
      <point x="479" y="20"/>
      <point x="500" y="-48"/>
      <point x="500" y="-94" type="curve" smooth="yes"/>
      <point x="500" y="-154"/>
      <point x="464" y="-171"/>
      <point x="410" y="-171" type="curve" smooth="yes"/>
      <point x="319" y="-171"/>
      <point x="258" y="-93"/>
      <point x="258" y="63" type="curve" smooth="yes"/>
      <point x="258" y="231"/>
      <point x="357" y="348"/>
      <point x="412" y="348" type="curve" smooth="yes"/>
      <point x="452" y="348"/>
      <point x="485" y="304"/>
      <point x="485" y="235" type="curve" smooth="yes"/>
      <point x="485" y="183"/>
      <point x="467" y="145"/>
      <point x="411" y="116" type="curve" smooth="yes"/>
      <point x="356" y="88"/>
      <point x="281" y="79"/>
      <point x="179" y="79" type="curve" smooth="yes"/>
      <point x="140" y="79"/>
      <point x="81" y="82"/>
      <point x="38" y="89" type="curve"/>
      <point x="30" y="9" type="line"/>
      <point x="72" y="-2"/>
      <point x="127" y="-7"/>
      <point x="174" y="-7" type="curve" smooth="yes"/>
      <point x="290" y="-7"/>
      <point x="369" y="14"/>
      <point x="442" y="53" type="curve" smooth="yes"/>
      <point x="514" y="90"/>
      <point x="559" y="153"/>
      <point x="559" y="245" type="curve" smooth="yes"/>
      <point x="559" y="349"/>
      <point x="497" y="434"/>
      <point x="424" y="434" type="curve" smooth="yes"/>
      <point x="324" y="434"/>
      <point x="192" y="267"/>
      <point x="192" y="44" type="curve" smooth="yes"/>
      <point x="192" y="-149"/>
      <point x="295" y="-257"/>
    </contour>
  </outline>
</glyph>
<glyph name="yehbarree-ar.fina" format="2">
  <advance width="656"/>
  <unicode hex="FBAF"/>
  <anchor x="355" y="-341" name="bottom"/>
  <anchor x="218" y="127" name="top"/>
  <outline>
    <contour>
      <point x="353" y="-298" type="curve" smooth="yes"/>
      <point x="470" y="-298"/>
      <point x="573" y="-288"/>
      <point x="650" y="-275" type="curve"/>
      <point x="656" y="-192" type="line"/>
      <point x="578" y="-203"/>
      <point x="493" y="-212"/>
      <point x="364" y="-212" type="curve" smooth="yes"/>
      <point x="184" y="-212"/>
      <point x="122" y="-174"/>
      <point x="122" y="-119" type="curve" smooth="yes"/>
      <point x="122" y="-54"/>
      <point x="182" y="-7"/>
      <point x="341" y="-7" type="curve" smooth="yes"/>
      <point x="420" y="-7"/>
      <point x="538" y="-7"/>
      <point x="656" y="-7" type="curve" smooth="yes"/>
      <point x="687" y="-7"/>
      <point x="703" y="13"/>
      <point x="703" y="36" type="curve" smooth="yes"/>
      <point x="703" y="58"/>
      <point x="691" y="79"/>
      <point x="662" y="79" type="curve" smooth="yes"/>
      <point x="549" y="79"/>
      <point x="442" y="79"/>
      <point x="359" y="79" type="curve" smooth="yes"/>
      <point x="152" y="79"/>
      <point x="39" y="6"/>
      <point x="39" y="-123" type="curve" smooth="yes"/>
      <point x="39" y="-242"/>
      <point x="134" y="-298"/>
    </contour>
  </outline>
</glyph>
<glyph name="threedotsupbelow-ar" format="2">
  <unicode hex="FBB7"/>
  <anchor x="145" y="0" name="_bottom"/>
  <anchor x="145" y="-299" name="bottom"/>
  <outline>
    <contour>
      <point x="145" y="-299" type="curve" smooth="yes"/>
      <point x="172" y="-299"/>
      <point x="194" y="-277"/>
      <point x="194" y="-250" type="curve" smooth="yes"/>
      <point x="194" y="-223"/>
      <point x="172" y="-200"/>
      <point x="145" y="-200" type="curve" smooth="yes"/>
      <point x="117" y="-200"/>
      <point x="95" y="-223"/>
      <point x="95" y="-250" type="curve" smooth="yes"/>
      <point x="95" y="-277"/>
      <point x="117" y="-299"/>
    </contour>
    <contour>
      <point x="77" y="-189" type="curve" smooth="yes"/>
      <point x="104" y="-189"/>
      <point x="126" y="-167"/>
      <point x="126" y="-140" type="curve" smooth="yes"/>
      <point x="126" y="-113"/>
      <point x="104" y="-90"/>
      <point x="77" y="-90" type="curve" smooth="yes"/>
      <point x="49" y="-90"/>
      <point x="27" y="-113"/>
      <point x="27" y="-140" type="curve" smooth="yes"/>
      <point x="27" y="-167"/>
      <point x="49" y="-189"/>
    </contour>
    <contour>
      <point x="213" y="-189" type="curve" smooth="yes"/>
      <point x="240" y="-189"/>
      <point x="262" y="-167"/>
      <point x="262" y="-140" type="curve" smooth="yes"/>
      <point x="262" y="-113"/>
      <point x="240" y="-90"/>
      <point x="213" y="-90" type="curve" smooth="yes"/>
      <point x="185" y="-90"/>
      <point x="163" y="-113"/>
      <point x="163" y="-140" type="curve" smooth="yes"/>
      <point x="163" y="-167"/>
      <point x="185" y="-189"/>
    </contour>
  </outline>
</glyph>
<glyph name="uniFBBC" format="2">
  <unicode hex="FBBC"/>
  <anchor x="113" y="0" name="_top"/>
  <outline>
    <contour>
      <point x="153" y="-209" type="line"/>
      <point x="203" y="-209" type="line"/>
      <point x="197" y="-31" type="line"/>
      <point x="147" y="-31" type="line"/>
    </contour>
    <contour>
      <point x="37" y="-209" type="line"/>
      <point x="87" y="-209" type="line"/>
      <point x="82" y="-31" type="line"/>
      <point x="31" y="-31" type="line"/>
    </contour>
  </outline>
</glyph>
<glyph name="kaf_alefMaksura-ar" format="2">
  <advance width="1055"/>
  <unicode hex="FC3D"/>
  <anchor x="357" y="-244" name="bottom.dot"/>
  <anchor x="845" y="-111" name="bottom_1"/>
  <anchor x="357" y="-287" name="bottom_2"/>
  <anchor x="136" y="198" name="top.dot_2"/>
  <anchor x="782" y="679" name="top_1"/>
  <anchor x="365" y="293" name="top_2"/>
  <outline>
    <contour>
      <point x="359" y="-245" type="curve" smooth="yes"/>
      <point x="599" y="-245"/>
      <point x="741" y="-134"/>
      <point x="741" y="-31" type="curve" smooth="yes"/>
      <point x="741" y="1"/>
      <point x="725" y="34"/>
      <point x="694" y="55" type="curve"/>
      <point x="674" y="22" type="line"/>
      <point x="692" y="15"/>
      <point x="725" y="10"/>
      <point x="755" y="10" type="curve" smooth="yes"/>
      <point x="885" y="10"/>
      <point x="952" y="67"/>
      <point x="952" y="167" type="curve" smooth="yes"/>
      <point x="952" y="271"/>
      <point x="868" y="350"/>
      <point x="644" y="482" type="curve"/>
      <point x="628" y="445" type="line"/>
      <point x="1035" y="638" type="line"/>
      <point x="1034" y="724" type="line"/>
      <point x="595" y="506" type="line"/>
      <point x="581" y="431" type="line"/>
      <point x="806" y="299"/>
      <point x="871" y="234"/>
      <point x="871" y="168" type="curve" smooth="yes"/>
      <point x="871" y="118"/>
      <point x="832" y="93"/>
      <point x="743" y="93" type="curve" smooth="yes"/>
      <point x="683" y="93"/>
      <point x="630" y="106"/>
      <point x="560" y="131" type="curve"/>
      <point x="539" y="59" type="line"/>
      <point x="641" y="24"/>
      <point x="673" y="7"/>
      <point x="673" y="-24" type="curve" smooth="yes"/>
      <point x="673" y="-88"/>
      <point x="568" y="-159"/>
      <point x="372" y="-159" type="curve" smooth="yes"/>
      <point x="200" y="-159"/>
      <point x="124" y="-101"/>
      <point x="124" y="8" type="curve" smooth="yes"/>
      <point x="124" y="60"/>
      <point x="134" y="109"/>
      <point x="157" y="181" type="curve"/>
      <point x="94" y="195" type="line"/>
      <point x="61" y="116"/>
      <point x="48" y="51"/>
      <point x="48" y="-8" type="curve" smooth="yes"/>
      <point x="48" y="-175"/>
      <point x="174" y="-245"/>
    </contour>
  </outline>
</glyph>
<glyph name="kaf_alefMaksura-ar.fina" format="2">
  <advance width="1105"/>
  <unicode hex="FC83"/>
  <anchor x="357" y="-244" name="bottom.dot"/>
  <anchor x="872" y="-111" name="bottom_1"/>
  <anchor x="357" y="-287" name="bottom_2"/>
  <anchor x="136" y="198" name="top.dot_2"/>
  <anchor x="803" y="679" name="top_1"/>
  <anchor x="365" y="293" name="top_2"/>
  <outline>
    <contour>
      <point x="1105" y="-7" type="curve" smooth="yes"/>
      <point x="1135" y="-7"/>
      <point x="1152" y="13"/>
      <point x="1152" y="36" type="curve" smooth="yes"/>
      <point x="1152" y="58"/>
      <point x="1140" y="79"/>
      <point x="1110" y="79" type="curve" smooth="yes"/>
      <point x="1029" y="79"/>
      <point x="984" y="119"/>
      <point x="915" y="201" type="curve" smooth="yes"/>
      <point x="670" y="486" type="line"/>
      <point x="659" y="442" type="line"/>
      <point x="1065" y="638" type="line"/>
      <point x="1064" y="724" type="line"/>
      <point x="630" y="506" type="line"/>
      <point x="615" y="431" type="line"/>
      <point x="699" y="336"/>
      <point x="782" y="234"/>
      <point x="859" y="143" type="curve" smooth="yes"/>
      <point x="934" y="54"/>
      <point x="994" y="-7"/>
    </contour>
    <contour>
      <point x="359" y="-245" type="curve" smooth="yes"/>
      <point x="599" y="-245"/>
      <point x="741" y="-137"/>
      <point x="741" y="-31" type="curve" smooth="yes"/>
      <point x="741" y="6"/>
      <point x="726" y="38"/>
      <point x="672" y="64" type="curve"/>
      <point x="652" y="38" type="line"/>
      <point x="666" y="32"/>
      <point x="699" y="20"/>
      <point x="727" y="20" type="curve" smooth="yes"/>
      <point x="800" y="20"/>
      <point x="856" y="65"/>
      <point x="869" y="170" type="curve"/>
      <point x="825" y="217" type="line"/>
      <point x="812" y="132"/>
      <point x="768" y="98"/>
      <point x="700" y="98" type="curve" smooth="yes"/>
      <point x="656" y="98"/>
      <point x="619" y="110"/>
      <point x="560" y="131" type="curve"/>
      <point x="539" y="59" type="line"/>
      <point x="641" y="24"/>
      <point x="673" y="7"/>
      <point x="673" y="-24" type="curve" smooth="yes"/>
      <point x="673" y="-88"/>
      <point x="568" y="-159"/>
      <point x="372" y="-159" type="curve" smooth="yes"/>
      <point x="200" y="-159"/>
      <point x="124" y="-101"/>
      <point x="124" y="8" type="curve" smooth="yes"/>
      <point x="124" y="60"/>
      <point x="134" y="109"/>
      <point x="157" y="181" type="curve"/>
      <point x="94" y="195" type="line"/>
      <point x="61" y="116"/>
      <point x="48" y="51"/>
      <point x="48" y="-8" type="curve" smooth="yes"/>
      <point x="48" y="-175"/>
      <point x="174" y="-245"/>
    </contour>
  </outline>
</glyph>
<glyph name="seen_alefMaksura-ar" format="2">
  <advance width="1528"/>
  <unicode hex="FCFB"/>
  <anchor x="351" y="-244" name="bottom.dot_2"/>
  <anchor x="1150" y="-111" name="bottom_1"/>
  <anchor x="351" y="-281" name="bottom_2"/>
  <anchor x="1150" y="359" name="top.dot_1"/>
  <anchor x="136" y="194" name="top.dot_2"/>
  <anchor x="1148" y="475" name="top_1"/>
  <anchor x="272" y="372" name="top_2"/>
  <outline>
    <contour>
      <point x="341" y="-245" type="curve" smooth="yes"/>
      <point x="592" y="-245"/>
      <point x="730" y="-144"/>
      <point x="730" y="-30" type="curve" smooth="yes"/>
      <point x="730" y="44"/>
      <point x="689" y="72"/>
      <point x="565" y="105" type="curve" smooth="yes"/>
      <point x="480" y="126"/>
      <point x="443" y="141"/>
      <point x="443" y="186" type="curve" smooth="yes"/>
      <point x="443" y="248"/>
      <point x="519" y="305"/>
      <point x="619" y="305" type="curve" smooth="yes"/>
      <point x="702" y="305"/>
      <point x="743" y="268"/>
      <point x="784" y="177" type="curve" smooth="yes"/>
      <point x="846" y="37"/>
      <point x="894" y="-10"/>
      <point x="997" y="-10" type="curve" smooth="yes"/>
      <point x="1076" y="-10"/>
      <point x="1141" y="21"/>
      <point x="1165" y="118" type="curve"/>
      <point x="1145" y="117" type="line"/>
      <point x="1156" y="30"/>
      <point x="1206" y="-10"/>
      <point x="1297" y="-10" type="curve" smooth="yes"/>
      <point x="1413" y="-10"/>
      <point x="1470" y="55"/>
      <point x="1470" y="174" type="curve" smooth="yes"/>
      <point x="1470" y="245"/>
      <point x="1455" y="318"/>
      <point x="1424" y="403" type="curve"/>
      <point x="1353" y="380" type="line"/>
      <point x="1380" y="300"/>
      <point x="1392" y="241"/>
      <point x="1392" y="178" type="curve" smooth="yes"/>
      <point x="1392" y="110"/>
      <point x="1361" y="76"/>
      <point x="1292" y="76" type="curve" smooth="yes"/>
      <point x="1223" y="76"/>
      <point x="1196" y="101"/>
      <point x="1190" y="159" type="curve" smooth="yes"/>
      <point x="1186" y="194"/>
      <point x="1187" y="252"/>
      <point x="1184" y="322" type="curve"/>
      <point x="1113" y="316" type="line"/>
      <point x="1121" y="115"/>
      <point x="1074" y="76"/>
      <point x="998" y="76" type="curve" smooth="yes"/>
      <point x="931" y="76"/>
      <point x="901" y="112"/>
      <point x="853" y="222" type="curve" smooth="yes"/>
      <point x="803" y="339"/>
      <point x="744" y="389"/>
      <point x="634" y="389" type="curve" smooth="yes"/>
      <point x="493" y="389"/>
      <point x="369" y="291"/>
      <point x="369" y="172" type="curve" smooth="yes"/>
      <point x="369" y="97"/>
      <point x="420" y="61"/>
      <point x="532" y="32" type="curve" smooth="yes"/>
      <point x="627" y="9"/>
      <point x="653" y="-4"/>
      <point x="653" y="-39" type="curve" smooth="yes"/>
      <point x="653" y="-103"/>
      <point x="538" y="-159"/>
      <point x="355" y="-159" type="curve" smooth="yes"/>
      <point x="200" y="-159"/>
      <point x="124" y="-109"/>
      <point x="124" y="8" type="curve" smooth="yes"/>
      <point x="124" y="60"/>
      <point x="135" y="119"/>
      <point x="157" y="184" type="curve"/>
      <point x="95" y="199" type="line"/>
      <point x="60" y="120"/>
      <point x="48" y="48"/>
      <point x="48" y="-8" type="curve" smooth="yes"/>
      <point x="48" y="-173"/>
      <point x="159" y="-245"/>
    </contour>
  </outline>
</glyph>
<glyph name="sad_alefMaksura-ar" format="2">
  <advance width="1573"/>
  <unicode hex="FD05"/>
  <anchor x="351" y="-244" name="bottom.dot_2"/>
  <anchor x="1172" y="-112" name="bottom_1"/>
  <anchor x="351" y="-281" name="bottom_2"/>
  <anchor x="1273" y="462" name="top.dot_1"/>
  <anchor x="136" y="194" name="top.dot_2"/>
  <anchor x="1229" y="559" name="top_1"/>
  <anchor x="272" y="372" name="top_2"/>
  <outline>
    <contour>
      <point x="341" y="-245" type="curve" smooth="yes"/>
      <point x="592" y="-245"/>
      <point x="730" y="-144"/>
      <point x="730" y="-30" type="curve" smooth="yes"/>
      <point x="730" y="44"/>
      <point x="689" y="72"/>
      <point x="565" y="105" type="curve" smooth="yes"/>
      <point x="480" y="126"/>
      <point x="443" y="141"/>
      <point x="443" y="186" type="curve" smooth="yes"/>
      <point x="443" y="248"/>
      <point x="519" y="305"/>
      <point x="619" y="305" type="curve" smooth="yes"/>
      <point x="702" y="305"/>
      <point x="740" y="268"/>
      <point x="784" y="177" type="curve" smooth="yes"/>
      <point x="858" y="24"/>
      <point x="930" y="-7"/>
      <point x="1138" y="-7" type="curve" smooth="yes"/>
      <point x="1411" y="-7"/>
      <point x="1527" y="73"/>
      <point x="1527" y="216" type="curve" smooth="yes"/>
      <point x="1527" y="338"/>
      <point x="1451" y="439"/>
      <point x="1324" y="439" type="curve" smooth="yes"/>
      <point x="1164" y="439"/>
      <point x="1017" y="279"/>
      <point x="894" y="90" type="curve"/>
      <point x="961" y="63" type="line"/>
      <point x="1058" y="205"/>
      <point x="1173" y="352"/>
      <point x="1308" y="352" type="curve" smooth="yes"/>
      <point x="1397" y="352"/>
      <point x="1447" y="281"/>
      <point x="1447" y="211" type="curve" smooth="yes"/>
      <point x="1447" y="129"/>
      <point x="1374" y="79"/>
      <point x="1138" y="79" type="curve" smooth="yes"/>
      <point x="933" y="79"/>
      <point x="903" y="117"/>
      <point x="853" y="222" type="curve" smooth="yes"/>
      <point x="796" y="340"/>
      <point x="744" y="389"/>
      <point x="634" y="389" type="curve" smooth="yes"/>
      <point x="493" y="389"/>
      <point x="369" y="291"/>
      <point x="369" y="172" type="curve" smooth="yes"/>
      <point x="369" y="97"/>
      <point x="420" y="61"/>
      <point x="532" y="32" type="curve" smooth="yes"/>
      <point x="627" y="9"/>
      <point x="653" y="-4"/>
      <point x="653" y="-39" type="curve" smooth="yes"/>
      <point x="653" y="-103"/>
      <point x="538" y="-159"/>
      <point x="355" y="-159" type="curve" smooth="yes"/>
      <point x="200" y="-159"/>
      <point x="124" y="-109"/>
      <point x="124" y="8" type="curve" smooth="yes"/>
      <point x="124" y="60"/>
      <point x="135" y="119"/>
      <point x="157" y="184" type="curve"/>
      <point x="95" y="199" type="line"/>
      <point x="60" y="120"/>
      <point x="48" y="48"/>
      <point x="48" y="-8" type="curve" smooth="yes"/>
      <point x="48" y="-173"/>
      <point x="159" y="-245"/>
    </contour>
  </outline>
</glyph>
<glyph name="seen_reh-ar" format="2">
  <advance width="1301"/>
  <unicode hex="FD0E"/>
  <anchor x="923" y="-111" name="bottom_1"/>
  <anchor x="130" y="-301" name="bottom_2"/>
  <anchor x="923" y="359" name="top.dot_1"/>
  <anchor x="282" y="297" name="top.dot_2"/>
  <anchor x="920" y="475" name="top_1"/>
  <anchor x="278" y="445" name="top_2"/>
  <outline>
    <contour>
      <point x="82" y="-262" type="curve" smooth="yes"/>
      <point x="272" y="-262"/>
      <point x="384" y="-158"/>
      <point x="384" y="35" type="curve" smooth="yes"/>
      <point x="384" y="87"/>
      <point x="375" y="144"/>
      <point x="360" y="196" type="curve"/>
      <point x="335" y="167" type="line"/>
      <point x="432" y="173"/>
      <point x="526" y="190"/>
      <point x="617" y="223" type="curve"/>
      <point x="588" y="241" type="line"/>
      <point x="587" y="220"/>
      <point x="586" y="195"/>
      <point x="586" y="169" type="curve" smooth="yes"/>
      <point x="586" y="49"/>
      <point x="627" y="-10"/>
      <point x="757" y="-10" type="curve" smooth="yes"/>
      <point x="839" y="-10"/>
      <point x="911" y="20"/>
      <point x="937" y="118" type="curve"/>
      <point x="917" y="117" type="line"/>
      <point x="928" y="30"/>
      <point x="978" y="-10"/>
      <point x="1069" y="-10" type="curve" smooth="yes"/>
      <point x="1186" y="-10"/>
      <point x="1243" y="55"/>
      <point x="1243" y="174" type="curve" smooth="yes"/>
      <point x="1243" y="245"/>
      <point x="1228" y="318"/>
      <point x="1197" y="403" type="curve"/>
      <point x="1126" y="380" type="line"/>
      <point x="1152" y="300"/>
      <point x="1165" y="241"/>
      <point x="1165" y="178" type="curve" smooth="yes"/>
      <point x="1165" y="110"/>
      <point x="1133" y="76"/>
      <point x="1065" y="76" type="curve" smooth="yes"/>
      <point x="995" y="76"/>
      <point x="969" y="101"/>
      <point x="962" y="159" type="curve" smooth="yes"/>
      <point x="959" y="194"/>
      <point x="959" y="252"/>
      <point x="957" y="322" type="curve"/>
      <point x="886" y="316" type="line"/>
      <point x="893" y="111"/>
      <point x="849" y="76"/>
      <point x="756" y="76" type="curve" smooth="yes"/>
      <point x="672" y="76"/>
      <point x="647" y="112"/>
      <point x="647" y="208" type="curve" smooth="yes"/>
      <point x="647" y="236"/>
      <point x="648" y="264"/>
      <point x="649" y="299" type="curve"/>
      <point x="592" y="298" type="line"/>
      <point x="509" y="267"/>
      <point x="407" y="249"/>
      <point x="317" y="245" type="curve"/>
      <point x="281" y="183" type="line"/>
      <point x="295" y="138"/>
      <point x="306" y="93"/>
      <point x="306" y="46" type="curve" smooth="yes"/>
      <point x="306" y="-100"/>
      <point x="224" y="-182"/>
      <point x="73" y="-182" type="curve" smooth="yes"/>
      <point x="18" y="-182"/>
      <point x="-19" y="-174"/>
      <point x="-62" y="-160" type="curve"/>
      <point x="-59" y="-234" type="line"/>
      <point x="-25" y="-252"/>
      <point x="21" y="-262"/>
    </contour>
  </outline>
</glyph>
<glyph name="sad_reh-ar" format="2">
  <advance width="1350"/>
  <unicode hex="FD0F"/>
  <anchor x="949" y="-112" name="bottom_1"/>
  <anchor x="130" y="-301" name="bottom_2"/>
  <anchor x="1050" y="462" name="top.dot_1"/>
  <anchor x="282" y="297" name="top.dot_2"/>
  <anchor x="1007" y="559" name="top_1"/>
  <anchor x="278" y="445" name="top_2"/>
  <outline>
    <contour>
      <point x="82" y="-262" type="curve" smooth="yes"/>
      <point x="276" y="-262"/>
      <point x="382" y="-154"/>
      <point x="382" y="39" type="curve" smooth="yes"/>
      <point x="382" y="90"/>
      <point x="374" y="143"/>
      <point x="361" y="191" type="curve"/>
      <point x="335" y="167" type="line"/>
      <point x="432" y="173"/>
      <point x="526" y="191"/>
      <point x="617" y="224" type="curve"/>
      <point x="586" y="233" type="line"/>
      <point x="592" y="28"/>
      <point x="651" y="-7"/>
      <point x="912" y="-7" type="curve" smooth="yes"/>
      <point x="1188" y="-7"/>
      <point x="1304" y="73"/>
      <point x="1304" y="216" type="curve" smooth="yes"/>
      <point x="1304" y="338"/>
      <point x="1229" y="439"/>
      <point x="1101" y="439" type="curve" smooth="yes"/>
      <point x="939" y="439"/>
      <point x="790" y="273"/>
      <point x="665" y="82" type="curve"/>
      <point x="732" y="55" type="line"/>
      <point x="830" y="198"/>
      <point x="948" y="352"/>
      <point x="1085" y="352" type="curve" smooth="yes"/>
      <point x="1174" y="352"/>
      <point x="1225" y="281"/>
      <point x="1225" y="211" type="curve" smooth="yes"/>
      <point x="1225" y="129"/>
      <point x="1152" y="79"/>
      <point x="916" y="79" type="curve" smooth="yes"/>
      <point x="701" y="79"/>
      <point x="672" y="103"/>
      <point x="655" y="168" type="curve" smooth="yes"/>
      <point x="647" y="204"/>
      <point x="645" y="246"/>
      <point x="644" y="299" type="curve"/>
      <point x="588" y="298" type="line"/>
      <point x="505" y="267"/>
      <point x="407" y="249"/>
      <point x="317" y="245" type="curve"/>
      <point x="281" y="183" type="line"/>
      <point x="295" y="138"/>
      <point x="306" y="93"/>
      <point x="306" y="46" type="curve" smooth="yes"/>
      <point x="306" y="-100"/>
      <point x="224" y="-182"/>
      <point x="73" y="-182" type="curve" smooth="yes"/>
      <point x="18" y="-182"/>
      <point x="-19" y="-174"/>
      <point x="-62" y="-160" type="curve"/>
      <point x="-59" y="-234" type="line"/>
      <point x="-25" y="-252"/>
      <point x="21" y="-262"/>
    </contour>
  </outline>
</glyph>
<glyph name="seen_reh-ar.fina" format="2">
  <advance width="1380"/>
  <unicode hex="FD2A"/>
  <anchor x="923" y="-111" name="bottom_1"/>
  <anchor x="130" y="-301" name="bottom_2"/>
  <anchor x="923" y="359" name="top.dot_1"/>
  <anchor x="282" y="297" name="top.dot_2"/>
  <anchor x="920" y="475" name="top_1"/>
  <anchor x="278" y="445" name="top_2"/>
  <outline>
    <contour>
      <point x="82" y="-262" type="curve" smooth="yes"/>
      <point x="272" y="-262"/>
      <point x="384" y="-158"/>
      <point x="384" y="35" type="curve" smooth="yes"/>
      <point x="384" y="87"/>
      <point x="375" y="144"/>
      <point x="360" y="196" type="curve"/>
      <point x="335" y="167" type="line"/>
      <point x="432" y="173"/>
      <point x="526" y="190"/>
      <point x="617" y="223" type="curve"/>
      <point x="588" y="241" type="line"/>
      <point x="587" y="220"/>
      <point x="586" y="195"/>
      <point x="586" y="169" type="curve" smooth="yes"/>
      <point x="586" y="49"/>
      <point x="627" y="-10"/>
      <point x="757" y="-10" type="curve" smooth="yes"/>
      <point x="839" y="-10"/>
      <point x="911" y="20"/>
      <point x="937" y="118" type="curve"/>
      <point x="917" y="117" type="line"/>
      <point x="928" y="30"/>
      <point x="978" y="-10"/>
      <point x="1069" y="-10" type="curve" smooth="yes"/>
      <point x="1144" y="-10"/>
      <point x="1210" y="26"/>
      <point x="1222" y="116" type="curve"/>
      <point x="1204" y="114" type="line"/>
      <point x="1224" y="29"/>
      <point x="1284" y="-7"/>
      <point x="1379" y="-7" type="curve" smooth="yes"/>
      <point x="1410" y="-7"/>
      <point x="1427" y="13"/>
      <point x="1427" y="36" type="curve" smooth="yes"/>
      <point x="1427" y="58"/>
      <point x="1415" y="79"/>
      <point x="1385" y="79" type="curve" smooth="yes"/>
      <point x="1314" y="79"/>
      <point x="1274" y="90"/>
      <point x="1254" y="146" type="curve" smooth="yes"/>
      <point x="1239" y="188"/>
      <point x="1231" y="277"/>
      <point x="1220" y="374" type="curve"/>
      <point x="1147" y="360" type="line"/>
      <point x="1156" y="274"/>
      <point x="1161" y="226"/>
      <point x="1161" y="175" type="curve" smooth="yes"/>
      <point x="1161" y="112"/>
      <point x="1129" y="76"/>
      <point x="1065" y="76" type="curve" smooth="yes"/>
      <point x="995" y="76"/>
      <point x="969" y="101"/>
      <point x="962" y="159" type="curve" smooth="yes"/>
      <point x="959" y="194"/>
      <point x="959" y="252"/>
      <point x="957" y="322" type="curve"/>
      <point x="886" y="316" type="line"/>
      <point x="893" y="111"/>
      <point x="849" y="76"/>
      <point x="756" y="76" type="curve" smooth="yes"/>
      <point x="672" y="76"/>
      <point x="647" y="112"/>
      <point x="647" y="208" type="curve" smooth="yes"/>
      <point x="647" y="236"/>
      <point x="648" y="264"/>
      <point x="649" y="299" type="curve"/>
      <point x="592" y="298" type="line"/>
      <point x="509" y="267"/>
      <point x="407" y="249"/>
      <point x="317" y="245" type="curve"/>
      <point x="281" y="183" type="line"/>
      <point x="295" y="138"/>
      <point x="306" y="93"/>
      <point x="306" y="46" type="curve" smooth="yes"/>
      <point x="306" y="-100"/>
      <point x="224" y="-182"/>
      <point x="73" y="-182" type="curve" smooth="yes"/>
      <point x="18" y="-182"/>
      <point x="-19" y="-174"/>
      <point x="-62" y="-160" type="curve"/>
      <point x="-59" y="-234" type="line"/>
      <point x="-25" y="-252"/>
      <point x="21" y="-262"/>
    </contour>
  </outline>
</glyph>
<glyph name="parenleft-ar" format="2">
  <advance width="466"/>
  <unicode hex="FD3E"/>
  <outline>
    <contour>
      <point x="317" y="-233" type="curve"/>
      <point x="392" y="-233" type="line"/>
      <point x="324" y="-143"/>
      <point x="284" y="-37"/>
      <point x="267" y="77" type="curve"/>
      <point x="288" y="86"/>
      <point x="305" y="108"/>
      <point x="305" y="131" type="curve" smooth="yes"/>
      <point x="305" y="139"/>
      <point x="304" y="147"/>
      <point x="302" y="153" type="curve"/>
      <point x="308" y="150"/>
      <point x="316" y="150"/>
      <point x="324" y="150" type="curve" smooth="yes"/>
      <point x="369" y="150"/>
      <point x="405" y="185"/>
      <point x="405" y="235" type="curve" smooth="yes"/>
      <point x="405" y="285"/>
      <point x="369" y="320"/>
      <point x="324" y="320" type="curve" smooth="yes"/>
      <point x="316" y="320"/>
      <point x="309" y="319"/>
      <point x="302" y="317" type="curve"/>
      <point x="305" y="323"/>
      <point x="306" y="331"/>
      <point x="306" y="339" type="curve" smooth="yes"/>
      <point x="306" y="363"/>
      <point x="289" y="386"/>
      <point x="266" y="394" type="curve"/>
      <point x="283" y="511"/>
      <point x="325" y="619"/>
      <point x="392" y="708" type="curve"/>
      <point x="317" y="708" type="line"/>
      <point x="244" y="621"/>
      <point x="204" y="515"/>
      <point x="187" y="402" type="curve"/>
      <point x="156" y="396"/>
      <point x="135" y="370"/>
      <point x="135" y="339" type="curve" smooth="yes"/>
      <point x="135" y="331"/>
      <point x="136" y="324"/>
      <point x="138" y="318" type="curve"/>
      <point x="132" y="320"/>
      <point x="124" y="321"/>
      <point x="116" y="321" type="curve" smooth="yes"/>
      <point x="71" y="321"/>
      <point x="35" y="286"/>
      <point x="35" y="235" type="curve" smooth="yes"/>
      <point x="35" y="185"/>
      <point x="71" y="151"/>
      <point x="116" y="151" type="curve" smooth="yes"/>
      <point x="124" y="151"/>
      <point x="131" y="151"/>
      <point x="137" y="153" type="curve"/>
      <point x="135" y="147"/>
      <point x="134" y="139"/>
      <point x="134" y="131" type="curve" smooth="yes"/>
      <point x="134" y="100"/>
      <point x="156" y="73"/>
      <point x="188" y="68" type="curve"/>
      <point x="205" y="-43"/>
      <point x="244" y="-146"/>
    </contour>
    <contour>
      <point x="117" y="177" type="curve" smooth="yes"/>
      <point x="83" y="177"/>
      <point x="61" y="205"/>
      <point x="61" y="235" type="curve" smooth="yes"/>
      <point x="61" y="266"/>
      <point x="81" y="294"/>
      <point x="117" y="294" type="curve" smooth="yes"/>
      <point x="130" y="294"/>
      <point x="142" y="288"/>
      <point x="151" y="281" type="curve"/>
      <point x="141" y="267"/>
      <point x="135" y="251"/>
      <point x="135" y="233" type="curve" smooth="yes"/>
      <point x="135" y="216"/>
      <point x="140" y="201"/>
      <point x="148" y="188" type="curve"/>
      <point x="140" y="182"/>
      <point x="129" y="177"/>
    </contour>
    <contour>
      <point x="220" y="77" type="curve" smooth="yes"/>
      <point x="189" y="77"/>
      <point x="161" y="98"/>
      <point x="161" y="132" type="curve" smooth="yes"/>
      <point x="161" y="145"/>
      <point x="166" y="155"/>
      <point x="172" y="164" type="curve"/>
      <point x="185" y="155"/>
      <point x="201" y="150"/>
      <point x="218" y="150" type="curve" smooth="yes"/>
      <point x="235" y="150"/>
      <point x="251" y="156"/>
      <point x="265" y="166" type="curve"/>
      <point x="272" y="157"/>
      <point x="278" y="146"/>
      <point x="278" y="133" type="curve" smooth="yes"/>
      <point x="278" y="97"/>
      <point x="249" y="77"/>
    </contour>
    <contour>
      <point x="218" y="180" type="curve" smooth="yes"/>
      <point x="184" y="180"/>
      <point x="163" y="203"/>
      <point x="163" y="234" type="curve" smooth="yes"/>
      <point x="163" y="266"/>
      <point x="186" y="288"/>
      <point x="217" y="288" type="curve" smooth="yes"/>
      <point x="246" y="288"/>
      <point x="270" y="266"/>
      <point x="270" y="233" type="curve" smooth="yes"/>
      <point x="270" y="204"/>
      <point x="250" y="180"/>
    </contour>
    <contour>
      <point x="323" y="176" type="curve" smooth="yes"/>
      <point x="309" y="176"/>
      <point x="297" y="182"/>
      <point x="287" y="191" type="curve"/>
      <point x="295" y="203"/>
      <point x="300" y="217"/>
      <point x="300" y="233" type="curve" smooth="yes"/>
      <point x="300" y="250"/>
      <point x="295" y="265"/>
      <point x="286" y="278" type="curve"/>
      <point x="296" y="287"/>
      <point x="308" y="293"/>
      <point x="323" y="293" type="curve" smooth="yes"/>
      <point x="358" y="293"/>
      <point x="379" y="265"/>
      <point x="379" y="235" type="curve" smooth="yes"/>
      <point x="379" y="205"/>
      <point x="357" y="176"/>
    </contour>
    <contour>
      <point x="263" y="302" type="curve"/>
      <point x="250" y="311"/>
      <point x="234" y="316"/>
      <point x="218" y="316" type="curve" smooth="yes"/>
      <point x="202" y="316"/>
      <point x="188" y="312"/>
      <point x="175" y="304" type="curve"/>
      <point x="167" y="313"/>
      <point x="161" y="324"/>
      <point x="161" y="338" type="curve" smooth="yes"/>
      <point x="161" y="373"/>
      <point x="190" y="394"/>
      <point x="220" y="394" type="curve" smooth="yes"/>
      <point x="250" y="394"/>
      <point x="278" y="374"/>
      <point x="278" y="338" type="curve" smooth="yes"/>
      <point x="278" y="323"/>
      <point x="272" y="311"/>
    </contour>
  </outline>
</glyph>
<glyph name="sad_lam_yeh-ar" format="2">
  <advance width="1600"/>
  <unicode hex="FDF0"/>
  <outline>
    <contour>
      <point x="518" y="-298" type="curve" smooth="yes"/>
      <point x="684" y="-298"/>
      <point x="906" y="-288"/>
      <point x="1088" y="-275" type="curve"/>
      <point x="1094" y="-192" type="line"/>
      <point x="911" y="-203"/>
      <point x="707" y="-212"/>
      <point x="529" y="-212" type="curve" smooth="yes"/>
      <point x="243" y="-212"/>
      <point x="130" y="-191"/>
      <point x="130" y="-113" type="curve" smooth="yes"/>
      <point x="130" y="-44"/>
      <point x="183" y="-16"/>
      <point x="350" y="-7" type="curve" smooth="yes"/>
      <point x="471" y="-2"/>
      <point x="535" y="35"/>
      <point x="560" y="116" type="curve"/>
      <point x="528" y="119" type="line"/>
      <point x="543" y="24"/>
      <point x="603" y="-7"/>
      <point x="690" y="-7" type="curve" smooth="yes"/>
      <point x="796" y="-7"/>
      <point x="851" y="33"/>
      <point x="879" y="124" type="curve"/>
      <point x="844" y="123" type="line"/>
      <point x="871" y="26"/>
      <point x="950" y="-7"/>
      <point x="1165" y="-7" type="curve" smooth="yes"/>
      <point x="1438" y="-7"/>
      <point x="1554" y="73"/>
      <point x="1554" y="216" type="curve" smooth="yes"/>
      <point x="1554" y="338"/>
      <point x="1478" y="439"/>
      <point x="1351" y="439" type="curve" smooth="yes"/>
      <point x="1188" y="439"/>
      <point x="1039" y="273"/>
      <point x="915" y="82" type="curve"/>
      <point x="981" y="55" type="line"/>
      <point x="1080" y="198"/>
      <point x="1197" y="352"/>
      <point x="1334" y="352" type="curve" smooth="yes"/>
      <point x="1423" y="352"/>
      <point x="1474" y="281"/>
      <point x="1474" y="211" type="curve" smooth="yes"/>
      <point x="1474" y="129"/>
      <point x="1401" y="79"/>
      <point x="1171" y="79" type="curve" smooth="yes"/>
      <point x="970" y="79"/>
      <point x="925" y="95"/>
      <point x="906" y="147" type="curve" smooth="yes"/>
      <point x="893" y="184"/>
      <point x="897" y="229"/>
      <point x="897" y="306" type="curve"/>
      <point x="827" y="303" type="line"/>
      <point x="824" y="114"/>
      <point x="782" y="79"/>
      <point x="692" y="79" type="curve" smooth="yes"/>
      <point x="613" y="79"/>
      <point x="580" y="105"/>
      <point x="576" y="214" type="curve" smooth="yes"/>
      <point x="559" y="732" type="line"/>
      <point x="482" y="732" type="line"/>
      <point x="497" y="216" type="line" smooth="yes"/>
      <point x="500" y="120"/>
      <point x="461" y="83"/>
      <point x="361" y="79" type="curve" smooth="yes"/>
      <point x="136" y="71"/>
      <point x="48" y="7"/>
      <point x="48" y="-118" type="curve" smooth="yes"/>
      <point x="48" y="-255"/>
      <point x="191" y="-298"/>
    </contour>
  </outline>
</glyph>
